<?xml version="1.0" encoding="UTF-8" standalone="no"?>
<!-- Created with Inkscape (http://www.inkscape.org/) -->

<svg
   xmlns:dc="http://purl.org/dc/elements/1.1/"
   xmlns:cc="http://creativecommons.org/ns#"
   xmlns:rdf="http://www.w3.org/1999/02/22-rdf-syntax-ns#"
   xmlns:svg="http://www.w3.org/2000/svg"
   xmlns="http://www.w3.org/2000/svg"
   xmlns:sodipodi="http://sodipodi.sourceforge.net/DTD/sodipodi-0.dtd"
   xmlns:inkscape="http://www.inkscape.org/namespaces/inkscape"
   width="281.8125"
   height="326.8125"
   id="svg5570"
   version="1.1"
   inkscape:version="0.48.2 r9819"
   sodipodi:docname="New document 9">
  <defs
     id="defs5572" />
  <sodipodi:namedview
     id="base"
     pagecolor="#ffffff"
     bordercolor="#666666"
     borderopacity="1.0"
     inkscape:pageopacity="0.0"
     inkscape:pageshadow="2"
     inkscape:zoom="1.4"
     inkscape:cx="140.90625"
     inkscape:cy="163.41907"
     inkscape:document-units="px"
     inkscape:current-layer="layer1"
     showgrid="false"
     fit-margin-top="0"
     fit-margin-left="0"
     fit-margin-right="0"
     fit-margin-bottom="0"
     inkscape:window-width="811"
     inkscape:window-height="738"
     inkscape:window-x="112"
     inkscape:window-y="0"
     inkscape:window-maximized="0" />
  <metadata
     id="metadata5575">
    <rdf:RDF>
      <cc:Work
         rdf:about="">
        <dc:format>image/svg+xml</dc:format>
        <dc:type
           rdf:resource="http://purl.org/dc/dcmitype/StillImage" />
        <dc:title></dc:title>
      </cc:Work>
    </rdf:RDF>
  </metadata>
  <g
     inkscape:label="Layer 1"
     inkscape:groupmode="layer"
     id="layer1"
     transform="translate(-234.09375,-368.96875)">
    <path
       inkscape:connector-curvature="0"
       id="path22"
       style="fill:#0000ff;fill-opacity:1;fill-rule:evenodd;stroke:none"
       d="m 330,689.86218 0,-315" />
    <path
       inkscape:connector-curvature="0"
       id="path24"
       style="fill:none;stroke:#c2c2c2;stroke-width:0.5625;stroke-linecap:butt;stroke-linejoin:miter;stroke-miterlimit:10;stroke-opacity:1;stroke-dasharray:none"
       d="m 330,689.86218 0,-315" />
    <path
       inkscape:connector-curvature="0"
       id="path26"
       style="fill:#0000ff;fill-opacity:1;fill-rule:evenodd;stroke:none"
       d="m 375,689.86218 0,-315" />
    <path
       inkscape:connector-curvature="0"
       id="path28"
       style="fill:none;stroke:#c2c2c2;stroke-width:0.5625;stroke-linecap:butt;stroke-linejoin:miter;stroke-miterlimit:10;stroke-opacity:1;stroke-dasharray:none"
       d="m 375,689.86218 0,-315" />
    <path
       inkscape:connector-curvature="0"
       id="path30"
       style="fill:#0000ff;fill-opacity:1;fill-rule:evenodd;stroke:none"
       d="m 240,419.86218 270,0" />
    <path
       inkscape:connector-curvature="0"
       id="path32"
       style="fill:none;stroke:#c2c2c2;stroke-width:0.5625;stroke-linecap:butt;stroke-linejoin:miter;stroke-miterlimit:10;stroke-opacity:1;stroke-dasharray:none"
       d="m 240,419.86218 270,0" />
    <path
       inkscape:connector-curvature="0"
       id="path34"
       style="fill:#0000ff;fill-opacity:1;fill-rule:evenodd;stroke:none"
       d="m 420,689.86218 0,-315" />
    <path
       inkscape:connector-curvature="0"
       id="path36"
       style="fill:none;stroke:#c2c2c2;stroke-width:0.5625;stroke-linecap:butt;stroke-linejoin:miter;stroke-miterlimit:10;stroke-opacity:1;stroke-dasharray:none"
       d="m 420,689.86218 0,-315" />
    <path
       inkscape:connector-curvature="0"
       id="path38"
       style="fill:#0000ff;fill-opacity:1;fill-rule:evenodd;stroke:none"
       d="m 245.625,644.86218 270,0" />
    <path
       inkscape:connector-curvature="0"
       id="path40"
       style="fill:none;stroke:#c2c2c2;stroke-width:0.5625;stroke-linecap:butt;stroke-linejoin:miter;stroke-miterlimit:10;stroke-opacity:1;stroke-dasharray:none"
       d="m 245.625,644.86218 270,0" />
    <path
       inkscape:connector-curvature="0"
       id="path42"
       style="fill:#0000ff;fill-opacity:1;fill-rule:evenodd;stroke:none"
       d="m 240,599.86218 270,0" />
    <path
       inkscape:connector-curvature="0"
       id="path44"
       style="fill:none;stroke:#c2c2c2;stroke-width:0.5625;stroke-linecap:butt;stroke-linejoin:miter;stroke-miterlimit:10;stroke-opacity:1;stroke-dasharray:none"
       d="m 240,599.86218 270,0" />
    <path
       inkscape:connector-curvature="0"
       id="path46"
       style="fill:#0000ff;fill-opacity:1;fill-rule:evenodd;stroke:none"
       d="m 245.625,509.86218 270,0" />
    <path
       inkscape:connector-curvature="0"
       id="path48"
       style="fill:none;stroke:#c2c2c2;stroke-width:0.5625;stroke-linecap:butt;stroke-linejoin:miter;stroke-miterlimit:10;stroke-opacity:1;stroke-dasharray:none"
       d="m 245.625,509.86218 270,0" />
    <path
       inkscape:connector-curvature="0"
       id="path50"
       style="fill:#0000ff;fill-opacity:1;fill-rule:evenodd;stroke:none"
       d="m 245.625,464.86218 270,0" />
    <path
       inkscape:connector-curvature="0"
       id="path52"
       style="fill:none;stroke:#c2c2c2;stroke-width:0.5625;stroke-linecap:butt;stroke-linejoin:miter;stroke-miterlimit:10;stroke-opacity:1;stroke-dasharray:none"
       d="m 245.625,464.86218 270,0" />
    <path
       inkscape:connector-curvature="0"
       id="path54"
       style="fill:#0000ff;fill-opacity:1;fill-rule:evenodd;stroke:none"
       d="m 240,374.86218 270,0" />
    <path
       inkscape:connector-curvature="0"
       id="path56"
       style="fill:none;stroke:#c2c2c2;stroke-width:0.5625;stroke-linecap:butt;stroke-linejoin:miter;stroke-miterlimit:10;stroke-opacity:1;stroke-dasharray:none"
       d="m 240,374.86218 270,0" />
    <path
       inkscape:connector-curvature="0"
       id="path58"
       style="fill:#0000ff;fill-opacity:1;fill-rule:evenodd;stroke:none"
       d="m 240,684.23718 0,-309.375" />
    <path
       inkscape:connector-curvature="0"
       id="path60"
       style="fill:none;stroke:#c2c2c2;stroke-width:0.5625;stroke-linecap:butt;stroke-linejoin:miter;stroke-miterlimit:10;stroke-opacity:1;stroke-dasharray:none"
       d="m 240,684.23718 0,-309.375" />
    <path
       inkscape:connector-curvature="0"
       id="path62"
       style="fill:#0000ff;fill-opacity:1;fill-rule:evenodd;stroke:none"
       d="m 240,689.86218 270,0" />
    <path
       inkscape:connector-curvature="0"
       id="path64"
       style="fill:none;stroke:#c2c2c2;stroke-width:0.5625;stroke-linecap:butt;stroke-linejoin:miter;stroke-miterlimit:10;stroke-opacity:1;stroke-dasharray:none"
       d="m 240,689.86218 270,0" />
    <path
       inkscape:connector-curvature="0"
       id="path66"
       style="fill:#0000ff;fill-opacity:1;fill-rule:evenodd;stroke:none"
       d="m 510,684.23718 0,-309.375" />
    <path
       inkscape:connector-curvature="0"
       id="path68"
       style="fill:none;stroke:#c2c2c2;stroke-width:0.5625;stroke-linecap:butt;stroke-linejoin:miter;stroke-miterlimit:10;stroke-opacity:1;stroke-dasharray:none"
       d="m 510,684.23718 0,-309.375" />
    <path
       inkscape:connector-curvature="0"
       id="path70"
       style="fill:none;stroke:#c2c2c2;stroke-width:0.5625;stroke-linecap:butt;stroke-linejoin:miter;stroke-miterlimit:10;stroke-opacity:1;stroke-dasharray:none"
       d="m 240,554.86218 270,0" />
    <path
       inkscape:connector-curvature="0"
       id="path72"
       style="fill:none;stroke:#c2c2c2;stroke-width:0.5625;stroke-linecap:butt;stroke-linejoin:miter;stroke-miterlimit:10;stroke-opacity:1;stroke-dasharray:none"
       d="m 285,689.86218 0,-315" />
    <path
       inkscape:connector-curvature="0"
       id="path74"
       style="fill:none;stroke:#c2c2c2;stroke-width:0.5625;stroke-linecap:butt;stroke-linejoin:miter;stroke-miterlimit:10;stroke-opacity:1;stroke-dasharray:none"
       d="m 465,684.23718 0,-309.375" />
    <path
       inkscape:connector-curvature="0"
       id="path430"
       style="fill:none;stroke:#000000;stroke-width:0.5625;stroke-linecap:butt;stroke-linejoin:bevel;stroke-miterlimit:10;stroke-opacity:1;stroke-dasharray:none"
       d="m 262.5,644.86218 0.15,0.075 0.3,0.15 0.675,0.3 0.9,0.525 1.35,0.6 1.725,0.825 2.025,0.975 2.325,1.125 2.625,1.2 2.85,1.275 2.925,1.35 3,1.275 3,1.275 3,1.2 2.925,1.2 2.85,1.05 2.775,0.975 2.7,0.9 2.55,0.825 2.625,0.675 2.475,0.6 2.475,0.6 2.475,0.45 2.475,0.375 2.55,0.375 2.55,0.225 2.7,0.225 2.025,0.15 2.175,0.075 2.175,0.075 6.975,0 2.475,-0.075 2.55,-0.15 2.55,-0.15 2.625,-0.15 2.775,-0.225 2.7,-0.3 2.85,-0.3 2.85,-0.375 2.925,-0.375 2.925,-0.45 3,-0.525 3,-0.525 3,-0.525 3,-0.6 3,-0.675 2.925,-0.675 3,-0.75 2.925,-0.75 2.925,-0.75 2.85,-0.825 2.85,-0.9 2.775,-0.9 2.775,-0.9 2.7,-0.9 2.625,-0.975 2.625,-1.05 2.55,-0.975 2.475,-1.05 2.475,-1.125 2.475,-1.125 2.55,-1.2 2.55,-1.35 2.55,-1.275 2.55,-1.425 2.475,-1.425 2.55,-1.575 2.55,-1.575 2.475,-1.575 2.475,-1.725 2.55,-1.8 2.475,-1.8 2.4,-1.875 2.475,-1.95 2.325,-2.025 2.4,-2.1 2.25,-2.1 2.25,-2.1 2.25,-2.175 2.1,-2.175 2.025,-2.25 1.95,-2.25 1.875,-2.25 1.8,-2.25 1.725,-2.25 1.575,-2.25 1.575,-2.175 1.35,-2.25 1.35,-2.25 1.275,-2.175 1.125,-2.25 1.05,-2.175 0.975,-2.175 0.825,-2.175 0.825,-2.175 0.75,-2.25 0.6,-2.25 0.6,-2.25 0.45,-2.25 0.45,-2.325 0.3,-2.325 0.3,-2.325 0.15,-2.4 0.075,-2.4 0,-2.4 -0.075,-2.4 -0.15,-2.4 -0.225,-2.475 -0.375,-2.4 -0.375,-2.325 -0.525,-2.4 -0.6,-2.325 -0.675,-2.25 -0.825,-2.25 -0.825,-2.1 -0.9,-2.1 -1.05,-2.025 -1.05,-1.95 -1.125,-1.8 -1.2,-1.8 -1.275,-1.65 -1.275,-1.575 -1.425,-1.425 -1.425,-1.35 -1.5,-1.275 -1.5,-1.2 -1.65,-1.05 -1.65,-0.975 -1.65,-0.825 -1.95,-0.9 -1.95,-0.675 -2.025,-0.675 -2.175,-0.525 -2.175,-0.45 -2.325,-0.375 -2.4,-0.3 -2.475,-0.15 -2.55,-0.15 -2.625,0 -2.7,0.075 -2.775,0.225 -2.775,0.225 -2.775,0.375 -2.85,0.375 -2.85,0.525 -2.925,0.525 -2.85,0.675 -2.775,0.675 -2.775,0.75 -2.775,0.825 -2.7,0.825 -2.625,0.9 -2.55,0.975 -2.475,0.975 -2.4,0.975 -2.325,1.05 -2.175,1.05 -2.175,1.05 -2.025,1.05 -1.95,1.125 -1.875,1.125 -2.25,1.425 -2.175,1.425 -2.025,1.5 -2.025,1.5 -1.875,1.5 -1.875,1.65 -1.875,1.575 -1.8,1.65 -1.725,1.65 -1.725,1.725 -1.65,1.65 -1.575,1.65 -1.575,1.65 -1.575,1.575 -1.5,1.575 -1.5,1.5 -1.425,1.425 -1.35,1.35 -1.425,1.275 -1.275,1.125 -1.35,1.125 -1.35,1.05 -1.275,0.9 -1.35,0.825 -1.35,0.675 -1.35,0.675 -1.425,0.525 -1.425,0.525 -1.575,0.375 -1.575,0.225 -1.65,0.225 -1.65,0.075 -1.8,0 -1.8,-0.075 -1.875,-0.225 -1.95,-0.3 -1.95,-0.375 -1.95,-0.525 -2.025,-0.6 -1.95,-0.75 -2.025,-0.825 -1.95,-0.9 -1.95,-0.975 -1.95,-1.125 -1.875,-1.125 -1.8,-1.275 -1.725,-1.275 -1.725,-1.35 -1.65,-1.5 -1.65,-1.5 -1.5,-1.575 -1.5,-1.575 -1.2,-1.425 -1.2,-1.5 -1.125,-1.5 -1.125,-1.575 -1.125,-1.65 -1.05,-1.8 -1.05,-1.8 -0.975,-1.875 -0.975,-2.025 -0.9,-2.025 -0.825,-2.175 -0.75,-2.175 -0.675,-2.325 -0.675,-2.325 -0.525,-2.4 -0.45,-2.475 -0.375,-2.475 -0.225,-2.55 -0.225,-2.55 0,-5.175 0.15,-2.625 0.3,-2.625 0.375,-2.625 0.45,-2.55 0.6,-2.625 0.75,-2.55 0.825,-2.55 0.9,-2.55 1.05,-2.625 1.2,-2.55 1.35,-2.55 1.05,-1.95 1.125,-2.025 1.275,-2.025 1.35,-2.025 1.5,-2.025 1.575,-2.175 1.65,-2.175 1.875,-2.175 1.95,-2.325 2.1,-2.4 2.25,-2.475 2.4,-2.55 2.55,-2.625 2.7,-2.775 2.85,-2.925 3.075,-2.925 3.225,-3.075 3.375,-3.225 3.525,-3.3 3.675,-3.375 3.75,-3.45 3.9,-3.525 3.9,-3.6 3.975,-3.525 3.975,-3.525 3.975,-3.45 3.825,-3.375 3.675,-3.225 3.525,-3.075 3.3,-2.85 3,-2.625 2.7,-2.325 2.4,-2.025 1.95,-1.725 1.725,-1.425 1.275,-1.125 0.975,-0.825 0.75,-0.6 0.45,-0.375 0.225,-0.225 0.075,-0.075" />
    <path
       inkscape:connector-curvature="0"
       id="path432"
       style="fill:none;stroke:#000000;stroke-width:0.5625;stroke-linecap:butt;stroke-linejoin:bevel;stroke-miterlimit:10;stroke-opacity:1;stroke-dasharray:none"
       d="m 335.625,464.86218 c 0,3.10625 -2.51875,5.625 -5.625,5.625 -3.10625,0 -5.625,-2.51875 -5.625,-5.625 0,-3.10625 2.51875,-5.625 5.625,-5.625 3.10625,0 5.625,2.51875 5.625,5.625 z" />
    <path
       inkscape:connector-curvature="0"
       id="path434"
       style="fill:none;stroke:#000000;stroke-width:0.5625;stroke-linecap:butt;stroke-linejoin:bevel;stroke-miterlimit:10;stroke-opacity:1;stroke-dasharray:none"
       d="m 470.625,464.86218 c 0,3.10625 -2.51875,5.625 -5.625,5.625 -3.10625,0 -5.625,-2.51875 -5.625,-5.625 0,-3.10625 2.51875,-5.625 5.625,-5.625 3.10625,0 5.625,2.51875 5.625,5.625 z" />
    <path
       inkscape:connector-curvature="0"
       id="path436"
       style="fill:none;stroke:#000000;stroke-width:0.5625;stroke-linecap:butt;stroke-linejoin:bevel;stroke-miterlimit:10;stroke-opacity:1;stroke-dasharray:none"
       d="m 245.625,599.86218 c 0,3.10625 -2.51875,5.625 -5.625,5.625 -3.10625,0 -5.625,-2.51875 -5.625,-5.625 0,-3.10625 2.51875,-5.625 5.625,-5.625 3.10625,0 5.625,2.51875 5.625,5.625 z" />
    <path
       inkscape:connector-curvature="0"
       id="path438"
       style="fill:none;stroke:#000000;stroke-width:0.5625;stroke-linecap:butt;stroke-linejoin:bevel;stroke-miterlimit:10;stroke-opacity:1;stroke-dasharray:none"
       d="m 515.625,509.86218 c 0,3.10625 -2.51875,5.625 -5.625,5.625 -3.10625,0 -5.625,-2.51875 -5.625,-5.625 0,-3.10625 2.51875,-5.625 5.625,-5.625 3.10625,0 5.625,2.51875 5.625,5.625 z" />
    <path
       inkscape:connector-curvature="0"
       id="path440"
       style="fill:none;stroke:#000000;stroke-width:0.5625;stroke-linecap:butt;stroke-linejoin:bevel;stroke-miterlimit:10;stroke-opacity:1;stroke-dasharray:none"
       d="m 515.625,464.86218 c 0,3.10625 -2.51875,5.625 -5.625,5.625 -3.10625,0 -5.625,-2.51875 -5.625,-5.625 0,-3.10625 2.51875,-5.625 5.625,-5.625 3.10625,0 5.625,2.51875 5.625,5.625 z" />
    <path
       inkscape:connector-curvature="0"
       id="path442"
       style="fill:none;stroke:#000000;stroke-width:0.5625;stroke-linecap:butt;stroke-linejoin:bevel;stroke-miterlimit:10;stroke-opacity:1;stroke-dasharray:none"
       d="m 245.625,374.86218 c 0,3.10625 -2.51875,5.625 -5.625,5.625 -3.10625,0 -5.625,-2.51875 -5.625,-5.625 0,-3.10625 2.51875,-5.625 5.625,-5.625 3.10625,0 5.625,2.51875 5.625,5.625 z" />
    <path
       inkscape:connector-curvature="0"
       id="path444"
       style="fill:none;stroke:#000000;stroke-width:0.5625;stroke-linecap:butt;stroke-linejoin:bevel;stroke-miterlimit:10;stroke-opacity:1;stroke-dasharray:none"
       d="m 335.625,374.86218 c 0,3.10625 -2.51875,5.625 -5.625,5.625 -3.10625,0 -5.625,-2.51875 -5.625,-5.625 0,-3.10625 2.51875,-5.625 5.625,-5.625 3.10625,0 5.625,2.51875 5.625,5.625 z" />
    <path
       inkscape:connector-curvature="0"
       id="path446"
       style="fill:none;stroke:#000000;stroke-width:0.5625;stroke-linecap:butt;stroke-linejoin:bevel;stroke-miterlimit:10;stroke-opacity:1;stroke-dasharray:none"
       d="m 425.625,374.86218 c 0,3.10625 -2.51875,5.625 -5.625,5.625 -3.10625,0 -5.625,-2.51875 -5.625,-5.625 0,-3.10625 2.51875,-5.625 5.625,-5.625 3.10625,0 5.625,2.51875 5.625,5.625 z" />
    <path
       inkscape:connector-curvature="0"
       id="path448"
       style="fill:none;stroke:#000000;stroke-width:0.5625;stroke-linecap:butt;stroke-linejoin:bevel;stroke-miterlimit:10;stroke-opacity:1;stroke-dasharray:none"
       d="m 470.625,374.86218 c 0,3.10625 -2.51875,5.625 -5.625,5.625 -3.10625,0 -5.625,-2.51875 -5.625,-5.625 0,-3.10625 2.51875,-5.625 5.625,-5.625 3.10625,0 5.625,2.51875 5.625,5.625 z" />
    <path
       inkscape:connector-curvature="0"
       id="path450"
       style="fill:none;stroke:#000000;stroke-width:0.5625;stroke-linecap:butt;stroke-linejoin:bevel;stroke-miterlimit:10;stroke-opacity:1;stroke-dasharray:none"
       d="m 515.625,374.86218 c 0,3.10625 -2.51875,5.625 -5.625,5.625 -3.10625,0 -5.625,-2.51875 -5.625,-5.625 0,-3.10625 2.51875,-5.625 5.625,-5.625 3.10625,0 5.625,2.51875 5.625,5.625 z" />
    <path
       inkscape:connector-curvature="0"
       id="path452"
       style="fill:none;stroke:#000000;stroke-width:0.5625;stroke-linecap:butt;stroke-linejoin:bevel;stroke-miterlimit:10;stroke-opacity:1;stroke-dasharray:none"
       d="m 515.625,419.86218 c 0,3.10625 -2.51875,5.625 -5.625,5.625 -3.10625,0 -5.625,-2.51875 -5.625,-5.625 0,-3.10625 2.51875,-5.625 5.625,-5.625 3.10625,0 5.625,2.51875 5.625,5.625 z" />
    <path
       inkscape:connector-curvature="0"
       id="path454"
       style="fill:none;stroke:#000000;stroke-width:0.5625;stroke-linecap:butt;stroke-linejoin:bevel;stroke-miterlimit:10;stroke-opacity:1;stroke-dasharray:none"
       d="m 470.625,419.86218 c 0,3.10625 -2.51875,5.625 -5.625,5.625 -3.10625,0 -5.625,-2.51875 -5.625,-5.625 0,-3.10625 2.51875,-5.625 5.625,-5.625 3.10625,0 5.625,2.51875 5.625,5.625 z" />
    <path
       inkscape:connector-curvature="0"
       id="path456"
       style="fill:none;stroke:#000000;stroke-width:0.5625;stroke-linecap:butt;stroke-linejoin:bevel;stroke-miterlimit:10;stroke-opacity:1;stroke-dasharray:none"
       d="m 290.625,419.86218 c 0,3.10625 -2.51875,5.625 -5.625,5.625 -3.10625,0 -5.625,-2.51875 -5.625,-5.625 0,-3.10625 2.51875,-5.625 5.625,-5.625 3.10625,0 5.625,2.51875 5.625,5.625 z" />
    <path
       inkscape:connector-curvature="0"
       id="path458"
       style="fill:none;stroke:#000000;stroke-width:0.5625;stroke-linecap:butt;stroke-linejoin:bevel;stroke-miterlimit:10;stroke-opacity:1;stroke-dasharray:none"
       d="m 245.625,419.86218 c 0,3.10625 -2.51875,5.625 -5.625,5.625 -3.10625,0 -5.625,-2.51875 -5.625,-5.625 0,-3.10625 2.51875,-5.625 5.625,-5.625 3.10625,0 5.625,2.51875 5.625,5.625 z" />
    <path
       inkscape:connector-curvature="0"
       id="path460"
       style="fill:none;stroke:#000000;stroke-width:0.5625;stroke-linecap:butt;stroke-linejoin:bevel;stroke-miterlimit:10;stroke-opacity:1;stroke-dasharray:none"
       d="m 245.625,464.86218 c 0,3.10625 -2.51875,5.625 -5.625,5.625 -3.10625,0 -5.625,-2.51875 -5.625,-5.625 0,-3.10625 2.51875,-5.625 5.625,-5.625 3.10625,0 5.625,2.51875 5.625,5.625 z" />
    <path
       inkscape:connector-curvature="0"
       id="path462"
       style="fill:none;stroke:#000000;stroke-width:0.5625;stroke-linecap:butt;stroke-linejoin:bevel;stroke-miterlimit:10;stroke-opacity:1;stroke-dasharray:none"
       d="m 245.625,509.86218 c 0,3.10625 -2.51875,5.625 -5.625,5.625 -3.10625,0 -5.625,-2.51875 -5.625,-5.625 0,-3.10625 2.51875,-5.625 5.625,-5.625 3.10625,0 5.625,2.51875 5.625,5.625 z" />
    <path
       inkscape:connector-curvature="0"
       id="path464"
       style="fill:none;stroke:#000000;stroke-width:0.5625;stroke-linecap:butt;stroke-linejoin:bevel;stroke-miterlimit:10;stroke-opacity:1;stroke-dasharray:none"
       d="m 245.625,554.86218 c 0,3.10625 -2.51875,5.625 -5.625,5.625 -3.10625,0 -5.625,-2.51875 -5.625,-5.625 0,-3.10625 2.51875,-5.625 5.625,-5.625 3.10625,0 5.625,2.51875 5.625,5.625 z" />
    <path
       inkscape:connector-curvature="0"
       id="path466"
       style="fill:none;stroke:#000000;stroke-width:0.5625;stroke-linecap:butt;stroke-linejoin:bevel;stroke-miterlimit:10;stroke-opacity:1;stroke-dasharray:none"
       d="m 515.625,599.86218 c 0,3.10625 -2.51875,5.625 -5.625,5.625 -3.10625,0 -5.625,-2.51875 -5.625,-5.625 0,-3.10625 2.51875,-5.625 5.625,-5.625 3.10625,0 5.625,2.51875 5.625,5.625 z" />
    <path
       inkscape:connector-curvature="0"
       id="path468"
       style="fill:none;stroke:#000000;stroke-width:0.5625;stroke-linecap:butt;stroke-linejoin:bevel;stroke-miterlimit:10;stroke-opacity:1;stroke-dasharray:none"
       d="m 245.625,644.86218 c 0,3.10625 -2.51875,5.625 -5.625,5.625 -3.10625,0 -5.625,-2.51875 -5.625,-5.625 0,-3.10625 2.51875,-5.625 5.625,-5.625 3.10625,0 5.625,2.51875 5.625,5.625 z" />
    <path
       inkscape:connector-curvature="0"
       id="path470"
       style="fill:none;stroke:#000000;stroke-width:0.5625;stroke-linecap:butt;stroke-linejoin:bevel;stroke-miterlimit:10;stroke-opacity:1;stroke-dasharray:none"
       d="m 515.625,689.86218 c 0,3.10625 -2.51875,5.625 -5.625,5.625 -3.10625,0 -5.625,-2.51875 -5.625,-5.625 0,-3.10625 2.51875,-5.625 5.625,-5.625 3.10625,0 5.625,2.51875 5.625,5.625 z" />
    <path
       inkscape:connector-curvature="0"
       id="path472"
       style="fill:none;stroke:#000000;stroke-width:0.5625;stroke-linecap:butt;stroke-linejoin:bevel;stroke-miterlimit:10;stroke-opacity:1;stroke-dasharray:none"
       d="m 515.625,644.86218 c 0,3.10625 -2.51875,5.625 -5.625,5.625 -3.10625,0 -5.625,-2.51875 -5.625,-5.625 0,-3.10625 2.51875,-5.625 5.625,-5.625 3.10625,0 5.625,2.51875 5.625,5.625 z" />
    <path
       inkscape:connector-curvature="0"
       id="path474"
       style="fill:none;stroke:#000000;stroke-width:0.5625;stroke-linecap:butt;stroke-linejoin:bevel;stroke-miterlimit:10;stroke-opacity:1;stroke-dasharray:none"
       d="m 245.625,689.86218 c 0,3.10625 -2.51875,5.625 -5.625,5.625 -3.10625,0 -5.625,-2.51875 -5.625,-5.625 0,-3.10625 2.51875,-5.625 5.625,-5.625 3.10625,0 5.625,2.51875 5.625,5.625 z" />
    <path
       inkscape:connector-curvature="0"
       id="path476"
       style="fill:none;stroke:#000000;stroke-width:0.5625;stroke-linecap:butt;stroke-linejoin:bevel;stroke-miterlimit:10;stroke-opacity:1;stroke-dasharray:none"
       d="m 335.625,689.86218 c 0,3.10625 -2.51875,5.625 -5.625,5.625 -3.10625,0 -5.625,-2.51875 -5.625,-5.625 0,-3.10625 2.51875,-5.625 5.625,-5.625 3.10625,0 5.625,2.51875 5.625,5.625 z" />
    <path
       inkscape:connector-curvature="0"
       id="path478"
       style="fill:none;stroke:#000000;stroke-width:0.5625;stroke-linecap:butt;stroke-linejoin:bevel;stroke-miterlimit:10;stroke-opacity:1;stroke-dasharray:none"
       d="m 380.625,689.86218 c 0,3.10625 -2.51875,5.625 -5.625,5.625 -3.10625,0 -5.625,-2.51875 -5.625,-5.625 0,-3.10625 2.51875,-5.625 5.625,-5.625 3.10625,0 5.625,2.51875 5.625,5.625 z" />
    <path
       inkscape:connector-curvature="0"
       id="path480"
       style="fill:none;stroke:#000000;stroke-width:0.5625;stroke-linecap:butt;stroke-linejoin:bevel;stroke-miterlimit:10;stroke-opacity:1;stroke-dasharray:none"
       d="m 425.625,689.86218 c 0,3.10625 -2.51875,5.625 -5.625,5.625 -3.10625,0 -5.625,-2.51875 -5.625,-5.625 0,-3.10625 2.51875,-5.625 5.625,-5.625 3.10625,0 5.625,2.51875 5.625,5.625 z" />
    <path
       inkscape:connector-curvature="0"
       id="path482"
       style="fill:none;stroke:#000000;stroke-width:0.5625;stroke-linecap:butt;stroke-linejoin:bevel;stroke-miterlimit:10;stroke-opacity:1;stroke-dasharray:none"
       d="m 470.625,689.86218 c 0,3.10625 -2.51875,5.625 -5.625,5.625 -3.10625,0 -5.625,-2.51875 -5.625,-5.625 0,-3.10625 2.51875,-5.625 5.625,-5.625 3.10625,0 5.625,2.51875 5.625,5.625 z" />
    <path
       inkscape:connector-curvature="0"
       id="path484"
       style="fill:none;stroke:#000000;stroke-width:0.5625;stroke-linecap:butt;stroke-linejoin:bevel;stroke-miterlimit:10;stroke-opacity:1;stroke-dasharray:none"
       d="m 290.625,689.86218 c 0,3.10625 -2.51875,5.625 -5.625,5.625 -3.10625,0 -5.625,-2.51875 -5.625,-5.625 0,-3.10625 2.51875,-5.625 5.625,-5.625 3.10625,0 5.625,2.51875 5.625,5.625 z" />
    <path
       inkscape:connector-curvature="0"
       id="path486"
       style="fill:none;stroke:#000000;stroke-width:0.5625;stroke-linecap:butt;stroke-linejoin:bevel;stroke-miterlimit:10;stroke-opacity:1;stroke-dasharray:none"
       d="m 290.625,374.86218 c 0,3.10625 -2.51875,5.625 -5.625,5.625 -3.10625,0 -5.625,-2.51875 -5.625,-5.625 0,-3.10625 2.51875,-5.625 5.625,-5.625 3.10625,0 5.625,2.51875 5.625,5.625 z" />
    <path
       inkscape:connector-curvature="0"
       id="path488"
       style="fill:none;stroke:#000000;stroke-width:0.5625;stroke-linecap:butt;stroke-linejoin:bevel;stroke-miterlimit:10;stroke-opacity:1;stroke-dasharray:none"
       d="m 425.625,554.86218 c 0,3.10625 -2.51875,5.625 -5.625,5.625 -3.10625,0 -5.625,-2.51875 -5.625,-5.625 0,-3.10625 2.51875,-5.625 5.625,-5.625 3.10625,0 5.625,2.51875 5.625,5.625 z" />
    <path
       inkscape:connector-curvature="0"
       id="path490"
       style="fill:none;stroke:#000000;stroke-width:0.5625;stroke-linecap:butt;stroke-linejoin:bevel;stroke-miterlimit:10;stroke-opacity:1;stroke-dasharray:none"
       d="m 290.625,554.86218 c 0,3.10625 -2.51875,5.625 -5.625,5.625 -3.10625,0 -5.625,-2.51875 -5.625,-5.625 0,-3.10625 2.51875,-5.625 5.625,-5.625 3.10625,0 5.625,2.51875 5.625,5.625 z" />
    <path
       inkscape:connector-curvature="0"
       id="path492"
       style="fill:none;stroke:#000000;stroke-width:0.5625;stroke-linecap:butt;stroke-linejoin:bevel;stroke-miterlimit:10;stroke-opacity:1;stroke-dasharray:none"
       d="m 290.625,599.86218 c 0,3.10625 -2.51875,5.625 -5.625,5.625 -3.10625,0 -5.625,-2.51875 -5.625,-5.625 0,-3.10625 2.51875,-5.625 5.625,-5.625 3.10625,0 5.625,2.51875 5.625,5.625 z" />
    <path
       inkscape:connector-curvature="0"
       id="path494"
       style="fill:none;stroke:#000000;stroke-width:0.5625;stroke-linecap:butt;stroke-linejoin:bevel;stroke-miterlimit:10;stroke-opacity:1;stroke-dasharray:none"
       d="m 335.625,599.86218 c 0,3.10625 -2.51875,5.625 -5.625,5.625 -3.10625,0 -5.625,-2.51875 -5.625,-5.625 0,-3.10625 2.51875,-5.625 5.625,-5.625 3.10625,0 5.625,2.51875 5.625,5.625 z" />
    <path
       inkscape:connector-curvature="0"
       id="path496"
       style="fill:none;stroke:#000000;stroke-width:0.5625;stroke-linecap:butt;stroke-linejoin:bevel;stroke-miterlimit:10;stroke-opacity:1;stroke-dasharray:none"
       d="m 380.625,599.86218 c 0,3.10625 -2.51875,5.625 -5.625,5.625 -3.10625,0 -5.625,-2.51875 -5.625,-5.625 0,-3.10625 2.51875,-5.625 5.625,-5.625 3.10625,0 5.625,2.51875 5.625,5.625 z" />
    <path
       inkscape:connector-curvature="0"
       id="path498"
       style="fill:none;stroke:#000000;stroke-width:0.5625;stroke-linecap:butt;stroke-linejoin:bevel;stroke-miterlimit:10;stroke-opacity:1;stroke-dasharray:none"
       d="m 425.625,599.86218 c 0,3.10625 -2.51875,5.625 -5.625,5.625 -3.10625,0 -5.625,-2.51875 -5.625,-5.625 0,-3.10625 2.51875,-5.625 5.625,-5.625 3.10625,0 5.625,2.51875 5.625,5.625 z" />
    <path
       inkscape:connector-curvature="0"
       id="path500"
       style="fill:none;stroke:#000000;stroke-width:0.5625;stroke-linecap:butt;stroke-linejoin:bevel;stroke-miterlimit:10;stroke-opacity:1;stroke-dasharray:none"
       d="m 470.625,644.86218 c 0,3.10625 -2.51875,5.625 -5.625,5.625 -3.10625,0 -5.625,-2.51875 -5.625,-5.625 0,-3.10625 2.51875,-5.625 5.625,-5.625 3.10625,0 5.625,2.51875 5.625,5.625 z" />
    <path
       inkscape:connector-curvature="0"
       id="path502"
       style="fill:none;stroke:#000000;stroke-width:0.5625;stroke-linecap:butt;stroke-linejoin:bevel;stroke-miterlimit:10;stroke-opacity:1;stroke-dasharray:none"
       d="m 470.625,554.86218 c 0,3.10625 -2.51875,5.625 -5.625,5.625 -3.10625,0 -5.625,-2.51875 -5.625,-5.625 0,-3.10625 2.51875,-5.625 5.625,-5.625 3.10625,0 5.625,2.51875 5.625,5.625 z" />
    <path
       inkscape:connector-curvature="0"
       id="path504"
       style="fill:none;stroke:#000000;stroke-width:0.5625;stroke-linecap:butt;stroke-linejoin:bevel;stroke-miterlimit:10;stroke-opacity:1;stroke-dasharray:none"
       d="m 380.625,509.86218 c 0,3.10625 -2.51875,5.625 -5.625,5.625 -3.10625,0 -5.625,-2.51875 -5.625,-5.625 0,-3.10625 2.51875,-5.625 5.625,-5.625 3.10625,0 5.625,2.51875 5.625,5.625 z" />
    <path
       inkscape:connector-curvature="0"
       id="path506"
       style="fill:none;stroke:#000000;stroke-width:0.5625;stroke-linecap:butt;stroke-linejoin:bevel;stroke-miterlimit:10;stroke-opacity:1;stroke-dasharray:none"
       d="m 335.625,509.86218 c 0,3.10625 -2.51875,5.625 -5.625,5.625 -3.10625,0 -5.625,-2.51875 -5.625,-5.625 0,-3.10625 2.51875,-5.625 5.625,-5.625 3.10625,0 5.625,2.51875 5.625,5.625 z" />
    <path
       inkscape:connector-curvature="0"
       id="path508"
       style="fill:none;stroke:#000000;stroke-width:0.5625;stroke-linecap:butt;stroke-linejoin:bevel;stroke-miterlimit:10;stroke-opacity:1;stroke-dasharray:none"
       d="m 380.625,464.86218 c 0,3.10625 -2.51875,5.625 -5.625,5.625 -3.10625,0 -5.625,-2.51875 -5.625,-5.625 0,-3.10625 2.51875,-5.625 5.625,-5.625 3.10625,0 5.625,2.51875 5.625,5.625 z" />
    <path
       inkscape:connector-curvature="0"
       id="path510"
       style="fill:none;stroke:#000000;stroke-width:0.5625;stroke-linecap:butt;stroke-linejoin:bevel;stroke-miterlimit:10;stroke-opacity:1;stroke-dasharray:none"
       d="m 425.625,464.86218 c 0,3.10625 -2.51875,5.625 -5.625,5.625 -3.10625,0 -5.625,-2.51875 -5.625,-5.625 0,-3.10625 2.51875,-5.625 5.625,-5.625 3.10625,0 5.625,2.51875 5.625,5.625 z" />
    <path
       inkscape:connector-curvature="0"
       id="path512"
       style="fill:none;stroke:#000000;stroke-width:0.5625;stroke-linecap:butt;stroke-linejoin:bevel;stroke-miterlimit:10;stroke-opacity:1;stroke-dasharray:none"
       d="m 425.625,419.86218 c 0,3.10625 -2.51875,5.625 -5.625,5.625 -3.10625,0 -5.625,-2.51875 -5.625,-5.625 0,-3.10625 2.51875,-5.625 5.625,-5.625 3.10625,0 5.625,2.51875 5.625,5.625 z" />
    <path
       inkscape:connector-curvature="0"
       id="path514"
       style="fill:none;stroke:#000000;stroke-width:0.5625;stroke-linecap:butt;stroke-linejoin:bevel;stroke-miterlimit:10;stroke-opacity:1;stroke-dasharray:none"
       d="m 380.625,419.86218 c 0,3.10625 -2.51875,5.625 -5.625,5.625 -3.10625,0 -5.625,-2.51875 -5.625,-5.625 0,-3.10625 2.51875,-5.625 5.625,-5.625 3.10625,0 5.625,2.51875 5.625,5.625 z" />
    <path
       inkscape:connector-curvature="0"
       id="path516"
       style="fill:#7f7f7f;fill-opacity:1;fill-rule:evenodd;stroke:none"
       d="m 290.625,644.86218 c 0,3.10625 -2.51875,5.625 -5.625,5.625 -3.10625,0 -5.625,-2.51875 -5.625,-5.625 0,-3.10625 2.51875,-5.625 5.625,-5.625 3.10625,0 5.625,2.51875 5.625,5.625" />
    <path
       inkscape:connector-curvature="0"
       id="path518"
       style="fill:none;stroke:#000000;stroke-width:0.5625;stroke-linecap:butt;stroke-linejoin:bevel;stroke-miterlimit:10;stroke-opacity:1;stroke-dasharray:none"
       d="m 290.625,644.86218 c 0,3.10625 -2.51875,5.625 -5.625,5.625 -3.10625,0 -5.625,-2.51875 -5.625,-5.625 0,-3.10625 2.51875,-5.625 5.625,-5.625 3.10625,0 5.625,2.51875 5.625,5.625 z" />
    <path
       inkscape:connector-curvature="0"
       id="path520"
       style="fill:#7f7f7f;fill-opacity:1;fill-rule:evenodd;stroke:none"
       d="m 335.625,644.86218 c 0,3.10625 -2.51875,5.625 -5.625,5.625 -3.10625,0 -5.625,-2.51875 -5.625,-5.625 0,-3.10625 2.51875,-5.625 5.625,-5.625 3.10625,0 5.625,2.51875 5.625,5.625" />
    <path
       inkscape:connector-curvature="0"
       id="path522"
       style="fill:none;stroke:#000000;stroke-width:0.5625;stroke-linecap:butt;stroke-linejoin:bevel;stroke-miterlimit:10;stroke-opacity:1;stroke-dasharray:none"
       d="m 335.625,644.86218 c 0,3.10625 -2.51875,5.625 -5.625,5.625 -3.10625,0 -5.625,-2.51875 -5.625,-5.625 0,-3.10625 2.51875,-5.625 5.625,-5.625 3.10625,0 5.625,2.51875 5.625,5.625 z" />
    <path
       inkscape:connector-curvature="0"
       id="path524"
       style="fill:#7f7f7f;fill-opacity:1;fill-rule:evenodd;stroke:none"
       d="m 380.625,644.86218 c 0,3.10625 -2.51875,5.625 -5.625,5.625 -3.10625,0 -5.625,-2.51875 -5.625,-5.625 0,-3.10625 2.51875,-5.625 5.625,-5.625 3.10625,0 5.625,2.51875 5.625,5.625" />
    <path
       inkscape:connector-curvature="0"
       id="path526"
       style="fill:none;stroke:#000000;stroke-width:0.5625;stroke-linecap:butt;stroke-linejoin:bevel;stroke-miterlimit:10;stroke-opacity:1;stroke-dasharray:none"
       d="m 380.625,644.86218 c 0,3.10625 -2.51875,5.625 -5.625,5.625 -3.10625,0 -5.625,-2.51875 -5.625,-5.625 0,-3.10625 2.51875,-5.625 5.625,-5.625 3.10625,0 5.625,2.51875 5.625,5.625 z" />
    <path
       inkscape:connector-curvature="0"
       id="path528"
       style="fill:#7f7f7f;fill-opacity:1;fill-rule:evenodd;stroke:none"
       d="m 425.625,644.86218 c 0,3.10625 -2.51875,5.625 -5.625,5.625 -3.10625,0 -5.625,-2.51875 -5.625,-5.625 0,-3.10625 2.51875,-5.625 5.625,-5.625 3.10625,0 5.625,2.51875 5.625,5.625" />
    <path
       inkscape:connector-curvature="0"
       id="path530"
       style="fill:none;stroke:#000000;stroke-width:0.5625;stroke-linecap:butt;stroke-linejoin:bevel;stroke-miterlimit:10;stroke-opacity:1;stroke-dasharray:none"
       d="m 425.625,644.86218 c 0,3.10625 -2.51875,5.625 -5.625,5.625 -3.10625,0 -5.625,-2.51875 -5.625,-5.625 0,-3.10625 2.51875,-5.625 5.625,-5.625 3.10625,0 5.625,2.51875 5.625,5.625 z" />
    <path
       inkscape:connector-curvature="0"
       id="path532"
       style="fill:#7f7f7f;fill-opacity:1;fill-rule:evenodd;stroke:none"
       d="m 470.625,599.86218 c 0,3.10625 -2.51875,5.625 -5.625,5.625 -3.10625,0 -5.625,-2.51875 -5.625,-5.625 0,-3.10625 2.51875,-5.625 5.625,-5.625 3.10625,0 5.625,2.51875 5.625,5.625" />
    <path
       inkscape:connector-curvature="0"
       id="path534"
       style="fill:none;stroke:#000000;stroke-width:0.5625;stroke-linecap:butt;stroke-linejoin:bevel;stroke-miterlimit:10;stroke-opacity:1;stroke-dasharray:none"
       d="m 470.625,599.86218 c 0,3.10625 -2.51875,5.625 -5.625,5.625 -3.10625,0 -5.625,-2.51875 -5.625,-5.625 0,-3.10625 2.51875,-5.625 5.625,-5.625 3.10625,0 5.625,2.51875 5.625,5.625 z" />
    <path
       inkscape:connector-curvature="0"
       id="path536"
       style="fill:#7f7f7f;fill-opacity:1;fill-rule:evenodd;stroke:none"
       d="m 515.625,554.86218 c 0,3.10625 -2.51875,5.625 -5.625,5.625 -3.10625,0 -5.625,-2.51875 -5.625,-5.625 0,-3.10625 2.51875,-5.625 5.625,-5.625 3.10625,0 5.625,2.51875 5.625,5.625" />
    <path
       inkscape:connector-curvature="0"
       id="path538"
       style="fill:none;stroke:#000000;stroke-width:0.5625;stroke-linecap:butt;stroke-linejoin:bevel;stroke-miterlimit:10;stroke-opacity:1;stroke-dasharray:none"
       d="m 515.625,554.86218 c 0,3.10625 -2.51875,5.625 -5.625,5.625 -3.10625,0 -5.625,-2.51875 -5.625,-5.625 0,-3.10625 2.51875,-5.625 5.625,-5.625 3.10625,0 5.625,2.51875 5.625,5.625 z" />
    <path
       inkscape:connector-curvature="0"
       id="path540"
       style="fill:#7f7f7f;fill-opacity:1;fill-rule:evenodd;stroke:none"
       d="m 470.625,509.86218 c 0,3.10625 -2.51875,5.625 -5.625,5.625 -3.10625,0 -5.625,-2.51875 -5.625,-5.625 0,-3.10625 2.51875,-5.625 5.625,-5.625 3.10625,0 5.625,2.51875 5.625,5.625" />
    <path
       inkscape:connector-curvature="0"
       id="path542"
       style="fill:none;stroke:#000000;stroke-width:0.5625;stroke-linecap:butt;stroke-linejoin:bevel;stroke-miterlimit:10;stroke-opacity:1;stroke-dasharray:none"
       d="m 470.625,509.86218 c 0,3.10625 -2.51875,5.625 -5.625,5.625 -3.10625,0 -5.625,-2.51875 -5.625,-5.625 0,-3.10625 2.51875,-5.625 5.625,-5.625 3.10625,0 5.625,2.51875 5.625,5.625 z" />
    <path
       inkscape:connector-curvature="0"
       id="path544"
       style="fill:#7f7f7f;fill-opacity:1;fill-rule:evenodd;stroke:none"
       d="m 425.625,509.86218 c 0,3.10625 -2.51875,5.625 -5.625,5.625 -3.10625,0 -5.625,-2.51875 -5.625,-5.625 0,-3.10625 2.51875,-5.625 5.625,-5.625 3.10625,0 5.625,2.51875 5.625,5.625" />
    <path
       inkscape:connector-curvature="0"
       id="path546"
       style="fill:none;stroke:#000000;stroke-width:0.5625;stroke-linecap:butt;stroke-linejoin:bevel;stroke-miterlimit:10;stroke-opacity:1;stroke-dasharray:none"
       d="m 425.625,509.86218 c 0,3.10625 -2.51875,5.625 -5.625,5.625 -3.10625,0 -5.625,-2.51875 -5.625,-5.625 0,-3.10625 2.51875,-5.625 5.625,-5.625 3.10625,0 5.625,2.51875 5.625,5.625 z" />
    <path
       inkscape:connector-curvature="0"
       id="path548"
       style="fill:#7f7f7f;fill-opacity:1;fill-rule:evenodd;stroke:none"
       d="m 380.625,554.86218 c 0,3.10625 -2.51875,5.625 -5.625,5.625 -3.10625,0 -5.625,-2.51875 -5.625,-5.625 0,-3.10625 2.51875,-5.625 5.625,-5.625 3.10625,0 5.625,2.51875 5.625,5.625" />
    <path
       inkscape:connector-curvature="0"
       id="path550"
       style="fill:none;stroke:#000000;stroke-width:0.5625;stroke-linecap:butt;stroke-linejoin:bevel;stroke-miterlimit:10;stroke-opacity:1;stroke-dasharray:none"
       d="m 380.625,554.86218 c 0,3.10625 -2.51875,5.625 -5.625,5.625 -3.10625,0 -5.625,-2.51875 -5.625,-5.625 0,-3.10625 2.51875,-5.625 5.625,-5.625 3.10625,0 5.625,2.51875 5.625,5.625 z" />
    <path
       inkscape:connector-curvature="0"
       id="path552"
       style="fill:#7f7f7f;fill-opacity:1;fill-rule:evenodd;stroke:none"
       d="m 335.625,554.86218 c 0,3.10625 -2.51875,5.625 -5.625,5.625 -3.10625,0 -5.625,-2.51875 -5.625,-5.625 0,-3.10625 2.51875,-5.625 5.625,-5.625 3.10625,0 5.625,2.51875 5.625,5.625" />
    <path
       inkscape:connector-curvature="0"
       id="path554"
       style="fill:none;stroke:#000000;stroke-width:0.5625;stroke-linecap:butt;stroke-linejoin:bevel;stroke-miterlimit:10;stroke-opacity:1;stroke-dasharray:none"
       d="m 335.625,554.86218 c 0,3.10625 -2.51875,5.625 -5.625,5.625 -3.10625,0 -5.625,-2.51875 -5.625,-5.625 0,-3.10625 2.51875,-5.625 5.625,-5.625 3.10625,0 5.625,2.51875 5.625,5.625 z" />
    <path
       inkscape:connector-curvature="0"
       id="path556"
       style="fill:#7f7f7f;fill-opacity:1;fill-rule:evenodd;stroke:none"
       d="m 290.625,509.86218 c 0,3.10625 -2.51875,5.625 -5.625,5.625 -3.10625,0 -5.625,-2.51875 -5.625,-5.625 0,-3.10625 2.51875,-5.625 5.625,-5.625 3.10625,0 5.625,2.51875 5.625,5.625" />
    <path
       inkscape:connector-curvature="0"
       id="path558"
       style="fill:none;stroke:#000000;stroke-width:0.5625;stroke-linecap:butt;stroke-linejoin:bevel;stroke-miterlimit:10;stroke-opacity:1;stroke-dasharray:none"
       d="m 290.625,509.86218 c 0,3.10625 -2.51875,5.625 -5.625,5.625 -3.10625,0 -5.625,-2.51875 -5.625,-5.625 0,-3.10625 2.51875,-5.625 5.625,-5.625 3.10625,0 5.625,2.51875 5.625,5.625 z" />
    <path
       inkscape:connector-curvature="0"
       id="path560"
       style="fill:#7f7f7f;fill-opacity:1;fill-rule:evenodd;stroke:none"
       d="m 290.625,464.86218 c 0,3.10625 -2.51875,5.625 -5.625,5.625 -3.10625,0 -5.625,-2.51875 -5.625,-5.625 0,-3.10625 2.51875,-5.625 5.625,-5.625 3.10625,0 5.625,2.51875 5.625,5.625" />
    <path
       inkscape:connector-curvature="0"
       id="path562"
       style="fill:none;stroke:#000000;stroke-width:0.5625;stroke-linecap:butt;stroke-linejoin:bevel;stroke-miterlimit:10;stroke-opacity:1;stroke-dasharray:none"
       d="m 290.625,464.86218 c 0,3.10625 -2.51875,5.625 -5.625,5.625 -3.10625,0 -5.625,-2.51875 -5.625,-5.625 0,-3.10625 2.51875,-5.625 5.625,-5.625 3.10625,0 5.625,2.51875 5.625,5.625 z" />
    <path
       inkscape:connector-curvature="0"
       id="path564"
       style="fill:#7f7f7f;fill-opacity:1;fill-rule:evenodd;stroke:none"
       d="m 335.625,419.86218 c 0,3.10625 -2.51875,5.625 -5.625,5.625 -3.10625,0 -5.625,-2.51875 -5.625,-5.625 0,-3.10625 2.51875,-5.625 5.625,-5.625 3.10625,0 5.625,2.51875 5.625,5.625" />
    <path
       inkscape:connector-curvature="0"
       id="path566"
       style="fill:none;stroke:#000000;stroke-width:0.5625;stroke-linecap:butt;stroke-linejoin:bevel;stroke-miterlimit:10;stroke-opacity:1;stroke-dasharray:none"
       d="m 335.625,419.86218 c 0,3.10625 -2.51875,5.625 -5.625,5.625 -3.10625,0 -5.625,-2.51875 -5.625,-5.625 0,-3.10625 2.51875,-5.625 5.625,-5.625 3.10625,0 5.625,2.51875 5.625,5.625 z" />
    <path
       inkscape:connector-curvature="0"
       id="path568"
       style="fill:#7f7f7f;fill-opacity:1;fill-rule:evenodd;stroke:none"
       d="m 380.625,374.86218 c 0,3.10625 -2.51875,5.625 -5.625,5.625 -3.10625,0 -5.625,-2.51875 -5.625,-5.625 0,-3.10625 2.51875,-5.625 5.625,-5.625 3.10625,0 5.625,2.51875 5.625,5.625" />
    <path
       inkscape:connector-curvature="0"
       id="path570"
       style="fill:none;stroke:#000000;stroke-width:0.5625;stroke-linecap:butt;stroke-linejoin:bevel;stroke-miterlimit:10;stroke-opacity:1;stroke-dasharray:none"
       d="m 380.625,374.86218 c 0,3.10625 -2.51875,5.625 -5.625,5.625 -3.10625,0 -5.625,-2.51875 -5.625,-5.625 0,-3.10625 2.51875,-5.625 5.625,-5.625 3.10625,0 5.625,2.51875 5.625,5.625 z" />
  </g>
</svg>
