<?xml version="1.0" encoding="ISO-8859-1" standalone="no"?>
<!DOCTYPE svg PUBLIC "-//W3C//DTD SVG 1.1//EN"
 "http://www.w3.org/Graphics/SVG/1.1/DTD/svg11.dtd">
<svg width="130mm" height="120mm" 
     viewBox="0 0 368.504 340.158" 
     xmlns="http://www.w3.org/2000/svg" version="1.1" xmlns:xlink="http://www.w3.org/1999/xlink" >
<desc>output.svg, created with the Board library (Copyleft) 2007 Sebastien Fourey</desc>
<rect x="198.43" y="311.81" width="28.35" height="28.35" fill="rgb(220,220,220)" stroke="rgb(160,160,160)" stroke-width="0.353mm" style="stroke-linecap:butt;stroke-linejoin:miter" />
<rect x="198.43" y="283.46" width="28.35" height="28.35" fill="rgb(220,220,220)" stroke="rgb(160,160,160)" stroke-width="0.353mm" style="stroke-linecap:butt;stroke-linejoin:miter" />
<rect x="198.43" y="255.12" width="28.35" height="28.35" fill="rgb(220,220,220)" stroke="rgb(160,160,160)" stroke-width="0.353mm" style="stroke-linecap:butt;stroke-linejoin:miter" />
<rect x="226.77" y="255.12" width="28.35" height="28.35" fill="rgb(220,220,220)" stroke="rgb(160,160,160)" stroke-width="0.353mm" style="stroke-linecap:butt;stroke-linejoin:miter" />
<rect x="255.12" y="255.12" width="28.35" height="28.35" fill="rgb(220,220,220)" stroke="rgb(160,160,160)" stroke-width="0.353mm" style="stroke-linecap:butt;stroke-linejoin:miter" />
<rect x="255.12" y="283.46" width="28.35" height="28.35" fill="rgb(220,220,220)" stroke="rgb(160,160,160)" stroke-width="0.353mm" style="stroke-linecap:butt;stroke-linejoin:miter" />
<rect x="283.46" y="283.46" width="28.35" height="28.35" fill="rgb(220,220,220)" stroke="rgb(160,160,160)" stroke-width="0.353mm" style="stroke-linecap:butt;stroke-linejoin:miter" />
<rect x="311.81" y="283.46" width="28.35" height="28.35" fill="rgb(220,220,220)" stroke="rgb(160,160,160)" stroke-width="0.353mm" style="stroke-linecap:butt;stroke-linejoin:miter" />
<rect x="311.81" y="255.12" width="28.35" height="28.35" fill="rgb(220,220,220)" stroke="rgb(160,160,160)" stroke-width="0.353mm" style="stroke-linecap:butt;stroke-linejoin:miter" />
<rect x="340.16" y="255.12" width="28.35" height="28.35" fill="rgb(220,220,220)" stroke="rgb(160,160,160)" stroke-width="0.353mm" style="stroke-linecap:butt;stroke-linejoin:miter" />
<rect x="340.16" y="226.77" width="28.35" height="28.35" fill="rgb(220,220,220)" stroke="rgb(160,160,160)" stroke-width="0.353mm" style="stroke-linecap:butt;stroke-linejoin:miter" />
<rect x="311.81" y="226.77" width="28.35" height="28.35" fill="rgb(220,220,220)" stroke="rgb(160,160,160)" stroke-width="0.353mm" style="stroke-linecap:butt;stroke-linejoin:miter" />
<rect x="311.81" y="198.43" width="28.35" height="28.35" fill="rgb(220,220,220)" stroke="rgb(160,160,160)" stroke-width="0.353mm" style="stroke-linecap:butt;stroke-linejoin:miter" />
<rect x="311.81" y="170.08" width="28.35" height="28.35" fill="rgb(220,220,220)" stroke="rgb(160,160,160)" stroke-width="0.353mm" style="stroke-linecap:butt;stroke-linejoin:miter" />
<rect x="311.81" y="141.73" width="28.35" height="28.35" fill="rgb(220,220,220)" stroke="rgb(160,160,160)" stroke-width="0.353mm" style="stroke-linecap:butt;stroke-linejoin:miter" />
<rect x="311.81" y="113.39" width="28.35" height="28.35" fill="rgb(220,220,220)" stroke="rgb(160,160,160)" stroke-width="0.353mm" style="stroke-linecap:butt;stroke-linejoin:miter" />
<rect x="311.81" y="85.04" width="28.35" height="28.35" fill="rgb(220,220,220)" stroke="rgb(160,160,160)" stroke-width="0.353mm" style="stroke-linecap:butt;stroke-linejoin:miter" />
<rect x="340.16" y="85.04" width="28.35" height="28.35" fill="rgb(220,220,220)" stroke="rgb(160,160,160)" stroke-width="0.353mm" style="stroke-linecap:butt;stroke-linejoin:miter" />
<rect x="340.16" y="56.69" width="28.35" height="28.35" fill="rgb(220,220,220)" stroke="rgb(160,160,160)" stroke-width="0.353mm" style="stroke-linecap:butt;stroke-linejoin:miter" />
<rect x="311.81" y="56.69" width="28.35" height="28.35" fill="rgb(220,220,220)" stroke="rgb(160,160,160)" stroke-width="0.353mm" style="stroke-linecap:butt;stroke-linejoin:miter" />
<rect x="311.81" y="28.35" width="28.35" height="28.35" fill="rgb(220,220,220)" stroke="rgb(160,160,160)" stroke-width="0.353mm" style="stroke-linecap:butt;stroke-linejoin:miter" />
<rect x="283.46" y="28.35" width="28.35" height="28.35" fill="rgb(220,220,220)" stroke="rgb(160,160,160)" stroke-width="0.353mm" style="stroke-linecap:butt;stroke-linejoin:miter" />
<rect x="255.12" y="28.35" width="28.35" height="28.35" fill="rgb(220,220,220)" stroke="rgb(160,160,160)" stroke-width="0.353mm" style="stroke-linecap:butt;stroke-linejoin:miter" />
<rect x="255.12" y="56.69" width="28.35" height="28.35" fill="rgb(220,220,220)" stroke="rgb(160,160,160)" stroke-width="0.353mm" style="stroke-linecap:butt;stroke-linejoin:miter" />
<rect x="226.77" y="56.69" width="28.35" height="28.35" fill="rgb(220,220,220)" stroke="rgb(160,160,160)" stroke-width="0.353mm" style="stroke-linecap:butt;stroke-linejoin:miter" />
<rect x="198.43" y="56.69" width="28.35" height="28.35" fill="rgb(220,220,220)" stroke="rgb(160,160,160)" stroke-width="0.353mm" style="stroke-linecap:butt;stroke-linejoin:miter" />
<rect x="198.43" y="28.35" width="28.35" height="28.35" fill="rgb(220,220,220)" stroke="rgb(160,160,160)" stroke-width="0.353mm" style="stroke-linecap:butt;stroke-linejoin:miter" />
<rect x="170.08" y="28.35" width="28.35" height="28.35" fill="rgb(220,220,220)" stroke="rgb(160,160,160)" stroke-width="0.353mm" style="stroke-linecap:butt;stroke-linejoin:miter" />
<rect x="170.08" y="0" width="28.35" height="28.35" fill="rgb(220,220,220)" stroke="rgb(160,160,160)" stroke-width="0.353mm" style="stroke-linecap:butt;stroke-linejoin:miter" />
<rect x="141.73" y="0" width="28.35" height="28.35" fill="rgb(220,220,220)" stroke="rgb(160,160,160)" stroke-width="0.353mm" style="stroke-linecap:butt;stroke-linejoin:miter" />
<rect x="113.39" y="0" width="28.35" height="28.35" fill="rgb(220,220,220)" stroke="rgb(160,160,160)" stroke-width="0.353mm" style="stroke-linecap:butt;stroke-linejoin:miter" />
<rect x="113.39" y="28.35" width="28.35" height="28.35" fill="rgb(220,220,220)" stroke="rgb(160,160,160)" stroke-width="0.353mm" style="stroke-linecap:butt;stroke-linejoin:miter" />
<rect x="113.39" y="56.69" width="28.35" height="28.35" fill="rgb(220,220,220)" stroke="rgb(160,160,160)" stroke-width="0.353mm" style="stroke-linecap:butt;stroke-linejoin:miter" />
<rect x="85.04" y="56.69" width="28.35" height="28.35" fill="rgb(220,220,220)" stroke="rgb(160,160,160)" stroke-width="0.353mm" style="stroke-linecap:butt;stroke-linejoin:miter" />
<rect x="85.04" y="85.04" width="28.35" height="28.35" fill="rgb(220,220,220)" stroke="rgb(160,160,160)" stroke-width="0.353mm" style="stroke-linecap:butt;stroke-linejoin:miter" />
<rect x="85.04" y="113.39" width="28.35" height="28.35" fill="rgb(220,220,220)" stroke="rgb(160,160,160)" stroke-width="0.353mm" style="stroke-linecap:butt;stroke-linejoin:miter" />
<rect x="56.69" y="113.39" width="28.35" height="28.35" fill="rgb(220,220,220)" stroke="rgb(160,160,160)" stroke-width="0.353mm" style="stroke-linecap:butt;stroke-linejoin:miter" />
<rect x="28.35" y="113.39" width="28.35" height="28.35" fill="rgb(220,220,220)" stroke="rgb(160,160,160)" stroke-width="0.353mm" style="stroke-linecap:butt;stroke-linejoin:miter" />
<rect x="28.35" y="141.73" width="28.35" height="28.35" fill="rgb(220,220,220)" stroke="rgb(160,160,160)" stroke-width="0.353mm" style="stroke-linecap:butt;stroke-linejoin:miter" />
<rect x="0" y="141.73" width="28.35" height="28.35" fill="rgb(220,220,220)" stroke="rgb(160,160,160)" stroke-width="0.353mm" style="stroke-linecap:butt;stroke-linejoin:miter" />
<rect x="0" y="170.08" width="28.35" height="28.35" fill="rgb(220,220,220)" stroke="rgb(160,160,160)" stroke-width="0.353mm" style="stroke-linecap:butt;stroke-linejoin:miter" />
<rect x="28.35" y="170.08" width="28.35" height="28.35" fill="rgb(220,220,220)" stroke="rgb(160,160,160)" stroke-width="0.353mm" style="stroke-linecap:butt;stroke-linejoin:miter" />
<rect x="28.35" y="198.43" width="28.35" height="28.35" fill="rgb(220,220,220)" stroke="rgb(160,160,160)" stroke-width="0.353mm" style="stroke-linecap:butt;stroke-linejoin:miter" />
<rect x="56.69" y="198.43" width="28.35" height="28.35" fill="rgb(220,220,220)" stroke="rgb(160,160,160)" stroke-width="0.353mm" style="stroke-linecap:butt;stroke-linejoin:miter" />
<rect x="85.04" y="198.43" width="28.35" height="28.35" fill="rgb(220,220,220)" stroke="rgb(160,160,160)" stroke-width="0.353mm" style="stroke-linecap:butt;stroke-linejoin:miter" />
<rect x="85.04" y="226.77" width="28.35" height="28.35" fill="rgb(220,220,220)" stroke="rgb(160,160,160)" stroke-width="0.353mm" style="stroke-linecap:butt;stroke-linejoin:miter" />
<rect x="85.04" y="255.12" width="28.35" height="28.35" fill="rgb(220,220,220)" stroke="rgb(160,160,160)" stroke-width="0.353mm" style="stroke-linecap:butt;stroke-linejoin:miter" />
<rect x="113.39" y="255.12" width="28.35" height="28.35" fill="rgb(220,220,220)" stroke="rgb(160,160,160)" stroke-width="0.353mm" style="stroke-linecap:butt;stroke-linejoin:miter" />
<rect x="113.39" y="283.46" width="28.35" height="28.35" fill="rgb(220,220,220)" stroke="rgb(160,160,160)" stroke-width="0.353mm" style="stroke-linecap:butt;stroke-linejoin:miter" />
<rect x="113.39" y="311.81" width="28.35" height="28.35" fill="rgb(220,220,220)" stroke="rgb(160,160,160)" stroke-width="0.353mm" style="stroke-linecap:butt;stroke-linejoin:miter" />
<rect x="141.73" y="311.81" width="28.35" height="28.35" fill="rgb(220,220,220)" stroke="rgb(160,160,160)" stroke-width="0.353mm" style="stroke-linecap:butt;stroke-linejoin:miter" />
<rect x="170.08" y="311.81" width="28.35" height="28.35" fill="rgb(220,220,220)" stroke="rgb(160,160,160)" stroke-width="0.353mm" style="stroke-linecap:butt;stroke-linejoin:miter" />
<polygon fill="rgb(255,255,255)" stroke="rgb(255,0,0)" stroke-width="0.353mm" style="stroke-linecap:butt;stroke-linejoin:miter"  fill-opacity="0.000000"
          points="212.6,269.29 212.6,297.64 240.94,269.29" />
<polygon fill="rgb(255,255,255)" stroke="rgb(255,0,0)" stroke-width="0.353mm" style="stroke-linecap:butt;stroke-linejoin:miter"  fill-opacity="0.000000"
          points="212.6,297.64 212.6,325.98 269.29,297.64" />
<polygon fill="rgb(255,255,255)" stroke="rgb(255,0,0)" stroke-width="0.353mm" style="stroke-linecap:butt;stroke-linejoin:miter"  fill-opacity="0.000000"
          points="269.29,269.29 325.98,240.94 325.98,212.6" />
<polygon fill="rgb(255,255,255)" stroke="rgb(255,0,0)" stroke-width="0.353mm" style="stroke-linecap:butt;stroke-linejoin:miter"  fill-opacity="0.000000"
          points="269.29,269.29 325.98,269.29 325.98,240.94" />
<polygon fill="rgb(255,255,255)" stroke="rgb(255,0,0)" stroke-width="0.353mm" style="stroke-linecap:butt;stroke-linejoin:miter"  fill-opacity="0.000000"
          points="155.91,14.17 127.56,14.17 127.56,42.52" />
<polygon fill="rgb(255,255,255)" stroke="rgb(255,0,0)" stroke-width="0.353mm" style="stroke-linecap:butt;stroke-linejoin:miter"  fill-opacity="0.000000"
          points="184.25,42.52 155.91,14.17 127.56,42.52" />
<polygon fill="rgb(255,255,255)" stroke="rgb(255,0,0)" stroke-width="0.353mm" style="stroke-linecap:butt;stroke-linejoin:miter"  fill-opacity="0.000000"
          points="325.98,269.29 354.33,269.29 325.98,240.94" />
<polygon fill="rgb(255,255,255)" stroke="rgb(255,0,0)" stroke-width="0.353mm" style="stroke-linecap:butt;stroke-linejoin:miter"  fill-opacity="0.000000"
          points="212.6,297.64 269.29,297.64 240.94,269.29" />
<polygon fill="rgb(255,255,255)" stroke="rgb(255,0,0)" stroke-width="0.353mm" style="stroke-linecap:butt;stroke-linejoin:miter"  fill-opacity="0.000000"
          points="240.94,269.29 269.29,297.64 269.29,269.29" />
<polygon fill="rgb(255,255,255)" stroke="rgb(255,0,0)" stroke-width="0.353mm" style="stroke-linecap:butt;stroke-linejoin:miter"  fill-opacity="0.000000"
          points="269.29,297.64 297.64,297.64 269.29,269.29" />
<polygon fill="rgb(255,255,255)" stroke="rgb(255,0,0)" stroke-width="0.353mm" style="stroke-linecap:butt;stroke-linejoin:miter"  fill-opacity="0.000000"
          points="269.29,297.64 212.6,325.98 297.64,297.64" />
<polygon fill="rgb(255,255,255)" stroke="rgb(255,0,0)" stroke-width="0.353mm" style="stroke-linecap:butt;stroke-linejoin:miter"  fill-opacity="0.000000"
          points="297.64,297.64 325.98,297.64 325.98,269.29" />
<polygon fill="rgb(255,255,255)" stroke="rgb(255,0,0)" stroke-width="0.353mm" style="stroke-linecap:butt;stroke-linejoin:miter"  fill-opacity="0.000000"
          points="297.64,297.64 212.6,325.98 325.98,297.64" />
<polygon fill="rgb(255,255,255)" stroke="rgb(255,0,0)" stroke-width="0.353mm" style="stroke-linecap:butt;stroke-linejoin:miter"  fill-opacity="0.000000"
          points="297.64,297.64 325.98,269.29 269.29,269.29" />
<polygon fill="rgb(255,255,255)" stroke="rgb(255,0,0)" stroke-width="0.353mm" style="stroke-linecap:butt;stroke-linejoin:miter"  fill-opacity="0.000000"
          points="269.29,70.87 325.98,70.87 297.64,42.52" />
<polygon fill="rgb(255,255,255)" stroke="rgb(255,0,0)" stroke-width="0.353mm" style="stroke-linecap:butt;stroke-linejoin:miter"  fill-opacity="0.000000"
          points="325.98,297.64 354.33,269.29 325.98,269.29" />
<polygon fill="rgb(255,255,255)" stroke="rgb(255,0,0)" stroke-width="0.353mm" style="stroke-linecap:butt;stroke-linejoin:miter"  fill-opacity="0.000000"
          points="354.33,269.29 354.33,240.94 325.98,240.94" />
<polygon fill="rgb(255,255,255)" stroke="rgb(255,0,0)" stroke-width="0.353mm" style="stroke-linecap:butt;stroke-linejoin:miter"  fill-opacity="0.000000"
          points="240.94,269.29 269.29,269.29 325.98,212.6" />
<polygon fill="rgb(255,255,255)" stroke="rgb(255,0,0)" stroke-width="0.353mm" style="stroke-linecap:butt;stroke-linejoin:miter"  fill-opacity="0.000000"
          points="127.56,70.87 184.25,42.52 127.56,42.52" />
<polygon fill="rgb(255,255,255)" stroke="rgb(255,0,0)" stroke-width="0.353mm" style="stroke-linecap:butt;stroke-linejoin:miter"  fill-opacity="0.000000"
          points="240.94,269.29 325.98,212.6 325.98,184.25" />
<polygon fill="rgb(255,255,255)" stroke="rgb(255,0,0)" stroke-width="0.353mm" style="stroke-linecap:butt;stroke-linejoin:miter"  fill-opacity="0.000000"
          points="325.98,240.94 354.33,240.94 325.98,212.6" />
<polygon fill="rgb(255,255,255)" stroke="rgb(255,0,0)" stroke-width="0.353mm" style="stroke-linecap:butt;stroke-linejoin:miter"  fill-opacity="0.000000"
          points="240.94,269.29 325.98,184.25 240.94,70.87" />
<polygon fill="rgb(255,255,255)" stroke="rgb(255,0,0)" stroke-width="0.353mm" style="stroke-linecap:butt;stroke-linejoin:miter"  fill-opacity="0.000000"
          points="325.98,212.6 354.33,240.94 325.98,184.25" />
<polygon fill="rgb(255,255,255)" stroke="rgb(255,0,0)" stroke-width="0.353mm" style="stroke-linecap:butt;stroke-linejoin:miter"  fill-opacity="0.000000"
          points="325.98,184.25 325.98,155.91 240.94,70.87" />
<polygon fill="rgb(255,255,255)" stroke="rgb(255,0,0)" stroke-width="0.353mm" style="stroke-linecap:butt;stroke-linejoin:miter"  fill-opacity="0.000000"
          points="325.98,184.25 354.33,240.94 325.98,155.91" />
<polygon fill="rgb(255,255,255)" stroke="rgb(255,0,0)" stroke-width="0.353mm" style="stroke-linecap:butt;stroke-linejoin:miter"  fill-opacity="0.000000"
          points="269.29,70.87 325.98,127.56 325.98,99.21" />
<polygon fill="rgb(255,255,255)" stroke="rgb(255,0,0)" stroke-width="0.353mm" style="stroke-linecap:butt;stroke-linejoin:miter"  fill-opacity="0.000000"
          points="325.98,155.91 354.33,240.94 354.33,99.21" />
<polygon fill="rgb(255,255,255)" stroke="rgb(255,0,0)" stroke-width="0.353mm" style="stroke-linecap:butt;stroke-linejoin:miter"  fill-opacity="0.000000"
          points="269.29,42.52 269.29,70.87 297.64,42.52" />
<polygon fill="rgb(255,255,255)" stroke="rgb(255,0,0)" stroke-width="0.353mm" style="stroke-linecap:butt;stroke-linejoin:miter"  fill-opacity="0.000000"
          points="325.98,127.56 325.98,155.91 354.33,99.21" />
<polygon fill="rgb(255,255,255)" stroke="rgb(255,0,0)" stroke-width="0.353mm" style="stroke-linecap:butt;stroke-linejoin:miter"  fill-opacity="0.000000"
          points="325.98,127.56 354.33,99.21 325.98,99.21" />
<polygon fill="rgb(255,255,255)" stroke="rgb(255,0,0)" stroke-width="0.353mm" style="stroke-linecap:butt;stroke-linejoin:miter"  fill-opacity="0.000000"
          points="354.33,99.21 354.33,70.87 325.98,70.87" />
<polygon fill="rgb(255,255,255)" stroke="rgb(255,0,0)" stroke-width="0.353mm" style="stroke-linecap:butt;stroke-linejoin:miter"  fill-opacity="0.000000"
          points="354.33,99.21 325.98,70.87 325.98,99.21" />
<polygon fill="rgb(255,255,255)" stroke="rgb(255,0,0)" stroke-width="0.353mm" style="stroke-linecap:butt;stroke-linejoin:miter"  fill-opacity="0.000000"
          points="325.98,70.87 325.98,42.52 297.64,42.52" />
<polygon fill="rgb(255,255,255)" stroke="rgb(255,0,0)" stroke-width="0.353mm" style="stroke-linecap:butt;stroke-linejoin:miter"  fill-opacity="0.000000"
          points="325.98,70.87 354.33,70.87 325.98,42.52" />
<polygon fill="rgb(255,255,255)" stroke="rgb(255,0,0)" stroke-width="0.353mm" style="stroke-linecap:butt;stroke-linejoin:miter"  fill-opacity="0.000000"
          points="269.29,70.87 325.98,99.21 325.98,70.87" />
<polygon fill="rgb(255,255,255)" stroke="rgb(255,0,0)" stroke-width="0.353mm" style="stroke-linecap:butt;stroke-linejoin:miter"  fill-opacity="0.000000"
          points="269.29,70.87 269.29,42.52 240.94,70.87" />
<polygon fill="rgb(255,255,255)" stroke="rgb(255,0,0)" stroke-width="0.353mm" style="stroke-linecap:butt;stroke-linejoin:miter"  fill-opacity="0.000000"
          points="297.64,42.52 325.98,42.52 184.25,14.17" />
<polygon fill="rgb(255,255,255)" stroke="rgb(255,0,0)" stroke-width="0.353mm" style="stroke-linecap:butt;stroke-linejoin:miter"  fill-opacity="0.000000"
          points="325.98,155.91 269.29,70.87 240.94,70.87" />
<polygon fill="rgb(255,255,255)" stroke="rgb(255,0,0)" stroke-width="0.353mm" style="stroke-linecap:butt;stroke-linejoin:miter"  fill-opacity="0.000000"
          points="325.98,155.91 325.98,127.56 269.29,70.87" />
<polygon fill="rgb(255,255,255)" stroke="rgb(255,0,0)" stroke-width="0.353mm" style="stroke-linecap:butt;stroke-linejoin:miter"  fill-opacity="0.000000"
          points="240.94,269.29 240.94,70.87 212.6,70.87" />
<polygon fill="rgb(255,255,255)" stroke="rgb(255,0,0)" stroke-width="0.353mm" style="stroke-linecap:butt;stroke-linejoin:miter"  fill-opacity="0.000000"
          points="184.25,42.52 127.56,70.87 212.6,70.87" />
<polygon fill="rgb(255,255,255)" stroke="rgb(255,0,0)" stroke-width="0.353mm" style="stroke-linecap:butt;stroke-linejoin:miter"  fill-opacity="0.000000"
          points="240.94,269.29 212.6,70.87 212.6,269.29" />
<polygon fill="rgb(255,255,255)" stroke="rgb(255,0,0)" stroke-width="0.353mm" style="stroke-linecap:butt;stroke-linejoin:miter"  fill-opacity="0.000000"
          points="240.94,70.87 269.29,42.52 212.6,42.52" />
<polygon fill="rgb(255,255,255)" stroke="rgb(255,0,0)" stroke-width="0.353mm" style="stroke-linecap:butt;stroke-linejoin:miter"  fill-opacity="0.000000"
          points="240.94,70.87 212.6,42.52 212.6,70.87" />
<polygon fill="rgb(255,255,255)" stroke="rgb(255,0,0)" stroke-width="0.353mm" style="stroke-linecap:butt;stroke-linejoin:miter"  fill-opacity="0.000000"
          points="269.29,42.52 297.64,42.52 184.25,14.17" />
<polygon fill="rgb(255,255,255)" stroke="rgb(255,0,0)" stroke-width="0.353mm" style="stroke-linecap:butt;stroke-linejoin:miter"  fill-opacity="0.000000"
          points="212.6,42.52 184.25,42.52 212.6,70.87" />
<polygon fill="rgb(255,255,255)" stroke="rgb(255,0,0)" stroke-width="0.353mm" style="stroke-linecap:butt;stroke-linejoin:miter"  fill-opacity="0.000000"
          points="212.6,42.52 184.25,14.17 184.25,42.52" />
<polygon fill="rgb(255,255,255)" stroke="rgb(255,0,0)" stroke-width="0.353mm" style="stroke-linecap:butt;stroke-linejoin:miter"  fill-opacity="0.000000"
          points="212.6,42.52 269.29,42.52 184.25,14.17" />
<polygon fill="rgb(255,255,255)" stroke="rgb(255,0,0)" stroke-width="0.353mm" style="stroke-linecap:butt;stroke-linejoin:miter"  fill-opacity="0.000000"
          points="184.25,14.17 155.91,14.17 184.25,42.52" />
<polygon fill="rgb(255,255,255)" stroke="rgb(255,0,0)" stroke-width="0.353mm" style="stroke-linecap:butt;stroke-linejoin:miter"  fill-opacity="0.000000"
          points="127.56,70.87 99.21,99.21 99.21,127.56" />
<polygon fill="rgb(255,255,255)" stroke="rgb(255,0,0)" stroke-width="0.353mm" style="stroke-linecap:butt;stroke-linejoin:miter"  fill-opacity="0.000000"
          points="99.21,70.87 99.21,99.21 127.56,70.87" />
<polygon fill="rgb(255,255,255)" stroke="rgb(255,0,0)" stroke-width="0.353mm" style="stroke-linecap:butt;stroke-linejoin:miter"  fill-opacity="0.000000"
          points="127.56,70.87 99.21,127.56 212.6,70.87" />
<polygon fill="rgb(255,255,255)" stroke="rgb(255,0,0)" stroke-width="0.353mm" style="stroke-linecap:butt;stroke-linejoin:miter"  fill-opacity="0.000000"
          points="127.56,42.52 127.56,14.17 99.21,70.87" />
<polygon fill="rgb(255,255,255)" stroke="rgb(255,0,0)" stroke-width="0.353mm" style="stroke-linecap:butt;stroke-linejoin:miter"  fill-opacity="0.000000"
          points="99.21,127.56 212.6,269.29 212.6,70.87" />
<polygon fill="rgb(255,255,255)" stroke="rgb(255,0,0)" stroke-width="0.353mm" style="stroke-linecap:butt;stroke-linejoin:miter"  fill-opacity="0.000000"
          points="127.56,70.87 127.56,42.52 99.21,70.87" />
<polygon fill="rgb(255,255,255)" stroke="rgb(255,0,0)" stroke-width="0.353mm" style="stroke-linecap:butt;stroke-linejoin:miter"  fill-opacity="0.000000"
          points="70.87,212.6 42.52,155.91 42.52,184.25" />
<polygon fill="rgb(255,255,255)" stroke="rgb(255,0,0)" stroke-width="0.353mm" style="stroke-linecap:butt;stroke-linejoin:miter"  fill-opacity="0.000000"
          points="99.21,70.87 127.56,14.17 42.52,127.56" />
<polygon fill="rgb(255,255,255)" stroke="rgb(255,0,0)" stroke-width="0.353mm" style="stroke-linecap:butt;stroke-linejoin:miter"  fill-opacity="0.000000"
          points="70.87,127.56 42.52,155.91 70.87,212.6" />
<polygon fill="rgb(255,255,255)" stroke="rgb(255,0,0)" stroke-width="0.353mm" style="stroke-linecap:butt;stroke-linejoin:miter"  fill-opacity="0.000000"
          points="99.21,99.21 99.21,70.87 42.52,127.56" />
<polygon fill="rgb(255,255,255)" stroke="rgb(255,0,0)" stroke-width="0.353mm" style="stroke-linecap:butt;stroke-linejoin:miter"  fill-opacity="0.000000"
          points="42.52,155.91 70.87,127.56 42.52,127.56" />
<polygon fill="rgb(255,255,255)" stroke="rgb(255,0,0)" stroke-width="0.353mm" style="stroke-linecap:butt;stroke-linejoin:miter"  fill-opacity="0.000000"
          points="99.21,127.56 99.21,99.21 70.87,127.56" />
<polygon fill="rgb(255,255,255)" stroke="rgb(255,0,0)" stroke-width="0.353mm" style="stroke-linecap:butt;stroke-linejoin:miter"  fill-opacity="0.000000"
          points="42.52,184.25 42.52,212.6 70.87,212.6" />
<polygon fill="rgb(255,255,255)" stroke="rgb(255,0,0)" stroke-width="0.353mm" style="stroke-linecap:butt;stroke-linejoin:miter"  fill-opacity="0.000000"
          points="70.87,127.56 99.21,99.21 42.52,127.56" />
<polygon fill="rgb(255,255,255)" stroke="rgb(255,0,0)" stroke-width="0.353mm" style="stroke-linecap:butt;stroke-linejoin:miter"  fill-opacity="0.000000"
          points="99.21,212.6 212.6,269.29 99.21,127.56" />
<polygon fill="rgb(255,255,255)" stroke="rgb(255,0,0)" stroke-width="0.353mm" style="stroke-linecap:butt;stroke-linejoin:miter"  fill-opacity="0.000000"
          points="42.52,127.56 127.56,14.17 14.17,155.91" />
<polygon fill="rgb(255,255,255)" stroke="rgb(255,0,0)" stroke-width="0.353mm" style="stroke-linecap:butt;stroke-linejoin:miter"  fill-opacity="0.000000"
          points="42.52,184.25 14.17,155.91 14.17,184.25" />
<polygon fill="rgb(255,255,255)" stroke="rgb(255,0,0)" stroke-width="0.353mm" style="stroke-linecap:butt;stroke-linejoin:miter"  fill-opacity="0.000000"
          points="42.52,155.91 42.52,127.56 14.17,155.91" />
<polygon fill="rgb(255,255,255)" stroke="rgb(255,0,0)" stroke-width="0.353mm" style="stroke-linecap:butt;stroke-linejoin:miter"  fill-opacity="0.000000"
          points="99.21,240.94 127.56,269.29 99.21,212.6" />
<polygon fill="rgb(255,255,255)" stroke="rgb(255,0,0)" stroke-width="0.353mm" style="stroke-linecap:butt;stroke-linejoin:miter"  fill-opacity="0.000000"
          points="14.17,155.91 42.52,184.25 42.52,155.91" />
<polygon fill="rgb(255,255,255)" stroke="rgb(255,0,0)" stroke-width="0.353mm" style="stroke-linecap:butt;stroke-linejoin:miter"  fill-opacity="0.000000"
          points="14.17,184.25 42.52,212.6 42.52,184.25" />
<polygon fill="rgb(255,255,255)" stroke="rgb(255,0,0)" stroke-width="0.353mm" style="stroke-linecap:butt;stroke-linejoin:miter"  fill-opacity="0.000000"
          points="99.21,269.29 127.56,269.29 99.21,240.94" />
<polygon fill="rgb(255,255,255)" stroke="rgb(255,0,0)" stroke-width="0.353mm" style="stroke-linecap:butt;stroke-linejoin:miter"  fill-opacity="0.000000"
          points="70.87,127.56 70.87,212.6 99.21,212.6" />
<polygon fill="rgb(255,255,255)" stroke="rgb(255,0,0)" stroke-width="0.353mm" style="stroke-linecap:butt;stroke-linejoin:miter"  fill-opacity="0.000000"
          points="127.56,269.29 99.21,269.29 127.56,297.64" />
<polygon fill="rgb(255,255,255)" stroke="rgb(255,0,0)" stroke-width="0.353mm" style="stroke-linecap:butt;stroke-linejoin:miter"  fill-opacity="0.000000"
          points="70.87,127.56 99.21,212.6 99.21,127.56" />
<polygon fill="rgb(255,255,255)" stroke="rgb(255,0,0)" stroke-width="0.353mm" style="stroke-linecap:butt;stroke-linejoin:miter"  fill-opacity="0.000000"
          points="70.87,212.6 99.21,240.94 99.21,212.6" />
<polygon fill="rgb(255,255,255)" stroke="rgb(255,0,0)" stroke-width="0.353mm" style="stroke-linecap:butt;stroke-linejoin:miter"  fill-opacity="0.000000"
          points="42.52,212.6 99.21,269.29 70.87,212.6" />
<polygon fill="rgb(255,255,255)" stroke="rgb(255,0,0)" stroke-width="0.353mm" style="stroke-linecap:butt;stroke-linejoin:miter"  fill-opacity="0.000000"
          points="70.87,212.6 99.21,269.29 99.21,240.94" />
<polygon fill="rgb(255,255,255)" stroke="rgb(255,0,0)" stroke-width="0.353mm" style="stroke-linecap:butt;stroke-linejoin:miter"  fill-opacity="0.000000"
          points="155.91,325.98 127.56,269.29 127.56,297.64" />
<polygon fill="rgb(255,255,255)" stroke="rgb(255,0,0)" stroke-width="0.353mm" style="stroke-linecap:butt;stroke-linejoin:miter"  fill-opacity="0.000000"
          points="42.52,212.6 14.17,184.25 127.56,325.98" />
<polygon fill="rgb(255,255,255)" stroke="rgb(255,0,0)" stroke-width="0.353mm" style="stroke-linecap:butt;stroke-linejoin:miter"  fill-opacity="0.000000"
          points="212.6,269.29 127.56,269.29 212.6,297.64" />
<polygon fill="rgb(255,255,255)" stroke="rgb(255,0,0)" stroke-width="0.353mm" style="stroke-linecap:butt;stroke-linejoin:miter"  fill-opacity="0.000000"
          points="212.6,269.29 99.21,212.6 127.56,269.29" />
<polygon fill="rgb(255,255,255)" stroke="rgb(255,0,0)" stroke-width="0.353mm" style="stroke-linecap:butt;stroke-linejoin:miter"  fill-opacity="0.000000"
          points="184.25,325.98 127.56,269.29 155.91,325.98" />
<polygon fill="rgb(255,255,255)" stroke="rgb(255,0,0)" stroke-width="0.353mm" style="stroke-linecap:butt;stroke-linejoin:miter"  fill-opacity="0.000000"
          points="99.21,269.29 42.52,212.6 127.56,325.98" />
<polygon fill="rgb(255,255,255)" stroke="rgb(255,0,0)" stroke-width="0.353mm" style="stroke-linecap:butt;stroke-linejoin:miter"  fill-opacity="0.000000"
          points="127.56,297.64 99.21,269.29 127.56,325.98" />
<polygon fill="rgb(255,255,255)" stroke="rgb(255,0,0)" stroke-width="0.353mm" style="stroke-linecap:butt;stroke-linejoin:miter"  fill-opacity="0.000000"
          points="127.56,297.64 127.56,325.98 155.91,325.98" />
<polygon fill="rgb(255,255,255)" stroke="rgb(255,0,0)" stroke-width="0.353mm" style="stroke-linecap:butt;stroke-linejoin:miter"  fill-opacity="0.000000"
          points="212.6,297.64 184.25,325.98 212.6,325.98" />
<polygon fill="rgb(255,255,255)" stroke="rgb(255,0,0)" stroke-width="0.353mm" style="stroke-linecap:butt;stroke-linejoin:miter"  fill-opacity="0.000000"
          points="212.6,297.64 127.56,269.29 184.25,325.98" />
</svg>
