<?xml version="1.0" encoding="UTF-8" standalone="no"?>
<!-- Created with Inkscape (http://www.inkscape.org/) -->

<svg
   xmlns:dc="http://purl.org/dc/elements/1.1/"
   xmlns:cc="http://creativecommons.org/ns#"
   xmlns:rdf="http://www.w3.org/1999/02/22-rdf-syntax-ns#"
   xmlns:svg="http://www.w3.org/2000/svg"
   xmlns="http://www.w3.org/2000/svg"
   xmlns:sodipodi="http://sodipodi.sourceforge.net/DTD/sodipodi-0.dtd"
   xmlns:inkscape="http://www.inkscape.org/namespaces/inkscape"
   width="281.83594"
   height="326.83594"
   id="svg4291"
   version="1.1"
   inkscape:version="0.48.2 r9819"
   sodipodi:docname="New document 3">
  <defs
     id="defs4293" />
  <sodipodi:namedview
     id="base"
     pagecolor="#ffffff"
     bordercolor="#666666"
     borderopacity="1.0"
     inkscape:pageopacity="0.0"
     inkscape:pageshadow="2"
     inkscape:zoom="0.35"
     inkscape:cx="13.057172"
     inkscape:cy="129.12838"
     inkscape:document-units="px"
     inkscape:current-layer="layer1"
     showgrid="false"
     fit-margin-top="0"
     fit-margin-left="0"
     fit-margin-right="0"
     fit-margin-bottom="0"
     inkscape:window-width="514"
     inkscape:window-height="456"
     inkscape:window-x="20"
     inkscape:window-y="20"
     inkscape:window-maximized="0" />
  <metadata
     id="metadata4296">
    <rdf:RDF>
      <cc:Work
         rdf:about="">
        <dc:format>image/svg+xml</dc:format>
        <dc:type
           rdf:resource="http://purl.org/dc/dcmitype/StillImage" />
        <dc:title></dc:title>
      </cc:Work>
    </rdf:RDF>
  </metadata>
  <g
     inkscape:label="Layer 1"
     inkscape:groupmode="layer"
     id="layer1"
     transform="translate(-361.94283,-334.65462)">
    <g
       transform="matrix(1.25,0,0,-1.25,344.48189,1083.9515)"
       id="g4060">
      <path
         d="m 54.1602,392.26 -1.4399,2.7 -1.4402,2.76 -1.3199,2.82 -1.32,2.64 -1.2,2.64 -1.1402,2.4 -1.0797,2.28 -0.9601,2.1 -0.9602,1.98 -0.8398,1.74 -0.7801,1.62 -0.7801,1.5 -0.7199,1.38 -0.6598,1.32 -0.6601,1.2 -0.6,1.14 -0.6,1.14 -0.6,1.14 -0.5399,1.2 -0.5402,1.2 -0.6,1.32 -0.5399,1.38 -0.48,1.5 -0.5399,1.62 -0.4801,1.8 -0.48,1.98 -0.4801,2.16 -0.3598,2.34 -0.3601,2.46 -0.2399,2.7 -0.1801,2.76 0,2.88 0.12,2.88 0.3,2.82 0.6601,3.48 0.9598,3.18 1.0199,2.7 1.2,2.22 1.1402,1.8 1.2,1.38 1.0801,0.96 1.0797,0.6 1.0203,0.3 0.9598,0.12 0.9601,-0.12 0.9,-0.24 0.9598,-0.24 0.9602,-0.3 0.9601,-0.24 1.0797,-0.18 1.2,-0.06 1.3203,0.18 1.5,0.36 1.6797,0.72 1.8602,0.96 2.1,1.26 2.28,1.62 2.52,1.98 2.6398,2.16 2.7602,2.4 2.58,2.28 2.4598,2.16 2.2801,2.04 2.0402,1.8 1.8598,1.62 1.6199,1.32 1.3203,1.08 1.1399,0.84 0.9601,0.66 0.7797,0.42 0.6602,0.36 0.5398,0.18 0.4801,0.12 0.4199,0.12 0.4203,0.12 0.4199,0.18 0.5399,0.3 0.6,0.42 0.7199,0.6 0.8402,0.84 1.0801,1.14 1.2,1.38 1.4399,1.8 1.6199,2.16 1.8,2.52 1.9801,2.88 2.0998,3.24 2.1,3.42 1.8,3.12 1.68,3.18 1.5,3.12 1.38,3 1.14,2.94 0.96,2.76 0.72,2.64 0.6,2.46 0.36,2.28 0.24,2.16 0.12,2.04 0,1.98 -0.12,1.8 -0.18,1.8 -0.24,1.68 -0.18,1.68 -0.24,1.62 -0.24,1.62 -0.12,1.62 -0.06,1.68 0.06,1.68 0.18,1.68 0.3,1.68 0.54,1.74 0.66,1.74 0.96,1.74 1.2,1.68 1.44,1.56 1.68,1.44 1.92,1.26 2.1,1.02 2.34,0.6 2.16,0.24 2.22,-0.12 2.16,-0.3 2.1,-0.48 2.04,-0.6 1.92,-0.72 1.8,-0.78 1.68,-0.84 1.56,-0.84 1.38,-0.84 1.26,-0.78 1.2,-0.84 1.08,-0.78 0.96,-0.78 0.96,-0.78 0.84,-0.78 0.84,-0.78 0.84,-0.84 0.84,-0.84 0.84,-0.9 0.84,-0.96 0.96,-1.02 0.96,-1.2 1.08,-1.26 1.2,-1.44 1.26,-1.62 1.38,-1.8 1.56,-1.98 1.68,-2.22 1.8,-2.46 1.92,-2.76 2.04,-3 2.1,-3.24 2.16,-3.48 2.22,-3.78 2.16,-3.9 1.86,-3.66 1.8,-3.66 1.62,-3.6 1.5,-3.54 1.38,-3.3 1.2,-3.18 1.08,-2.94 0.96,-2.7 0.78,-2.52 0.66,-2.28 0.54,-2.04 0.48,-1.8 0.36,-1.68 0.24,-1.44 0.24,-1.38 0.12,-1.2 0.12,-1.08 0.06,-1.02 0,-5.04 0.06,-1.14 0.06,-1.26 0.06,-1.38 0.12,-1.56 0.18,-1.74 0.3,-1.98 0.3,-2.16 0.36,-2.46 0.42,-2.7 0.54,-2.94 0.6,-3.24 0.66,-3.54 0.66,-3.72 0.78,-3.96 0.78,-4.14 0.84,-4.26 0.78,-4.26 0.9,-4.98 0.84,-4.8 0.84,-4.56 0.78,-4.26 0.78,-3.84 0.78,-3.54 0.72,-3.18 0.72,-2.76 0.66,-2.46 0.72,-2.16 0.72,-1.86 0.66,-1.62 0.66,-1.38 0.66,-1.26 0.66,-1.14 0.66,-1.02 0.6,-0.96 0.6,-0.9 0.6,-0.96 0.48,-0.96 0.48,-1.08 0.42,-1.2 0.36,-1.26 0.24,-1.5 0.18,-1.62 0.06,-1.8 -0.12,-1.98 -0.3,-2.22 -0.48,-2.34 -0.66,-2.52 -0.9,-2.64 -1.2,-2.64 -1.38,-2.64 -1.74,-2.46 -1.98,-2.28 -2.16,-1.98 -2.28,-1.68 -2.28,-1.44 -2.22,-1.2 -2.22,-0.9 -2.1,-0.72 -1.98,-0.48 -1.8,-0.3 -1.74,-0.18 -1.62,0 -1.5,0.12 -1.38,0.18 -1.38,0.3 -1.26,0.36 -1.26,0.36 -1.2,0.48 -1.26,0.42 -1.32,0.48 -1.38,0.48 -1.44,0.48 -1.62,0.42 -1.74,0.42 -1.86,0.36 -2.16,0.36 -2.34,0.3 -2.52,0.24 -2.82,0.18 -3.06,0.18 -3.3,0.12 -3.48,0.12 -3.72,0.12 -3.78,0.06 -3.84,0.12 -4.32,0.18 -4.08,0.18 -3.84,0.24 -3.48,0.24 -3.12,0.24 -2.7,0.24 -2.34,0.18 -1.98,0.12 -1.62,0.18 -1.38,0.06 -1.14,0.12 -0.96,0.06 -0.78,0.06 -0.66,0.06 -0.6,0.12 -0.6,0.06 -0.6,0.06 -0.72,0.12 -0.84,0.18 -0.96,0.18 -1.14,0.24 -1.38,0.3 -1.62,0.36 -1.8598,0.48 -2.1601,0.54 -2.4,0.66 -2.6399,0.72 -2.7601,0.84 -2.9399,0.96 -2.88,1.02 -3.1801,1.26 -2.8801,1.2 -2.5199,1.08 -2.1598,1.02 -1.7402,0.78 -1.3801,0.6 -1.0199,0.42 -0.7199,0.3 -0.5399,0.06 -0.2402,0 -0.1199,-0.06 -0.0602,-0.12 0.0602,-0.18 0.0601,-0.12 0,-0.06 0,0.06 -0.1801,0.24 -0.3,0.42 -0.48,0.66 -0.72,0.96 -0.9,1.32 -1.2,1.74 -1.4402,2.1 -1.6199,2.58 -1.8,2.94"
         style="fill:#d6d6d6;fill-opacity:1;fill-rule:evenodd;stroke:none"
         id="path18"
         inkscape:connector-curvature="0" />
      <path
         d="m 54.1602,392.26 -1.4399,2.7 -1.4402,2.76 -1.3199,2.82 -1.32,2.64 -1.2,2.64 -1.1402,2.4 -1.0797,2.28 -0.9601,2.1 -0.9602,1.98 -0.8398,1.74 -0.7801,1.62 -0.7801,1.5 -0.7199,1.38 -0.6598,1.32 -0.6601,1.2 -0.6,1.14 -0.6,1.14 -0.6,1.14 -0.5399,1.2 -0.5402,1.2 -0.6,1.32 -0.5399,1.38 -0.48,1.5 -0.5399,1.62 -0.4801,1.8 -0.48,1.98 -0.4801,2.16 -0.3598,2.34 -0.3601,2.46 -0.2399,2.7 -0.1801,2.76 0,2.88 0.12,2.88 0.3,2.82 0.6601,3.48 0.9598,3.18 1.0199,2.7 1.2,2.22 1.1402,1.8 1.2,1.38 1.0801,0.96 1.0797,0.6 1.0203,0.3 0.9598,0.12 0.9601,-0.12 0.9,-0.24 0.9598,-0.24 0.9602,-0.3 0.9601,-0.24 1.0797,-0.18 1.2,-0.06 1.3203,0.18 1.5,0.36 1.6797,0.72 1.8602,0.96 2.1,1.26 2.28,1.62 2.52,1.98 2.6398,2.16 2.7602,2.4 2.58,2.28 2.4598,2.16 2.2801,2.04 2.0402,1.8 1.8598,1.62 1.6199,1.32 1.3203,1.08 1.1399,0.84 0.9601,0.66 0.7797,0.42 0.6602,0.36 0.5398,0.18 0.4801,0.12 0.4199,0.12 0.4203,0.12 0.4199,0.18 0.5399,0.3 0.6,0.42 0.7199,0.6 0.8402,0.84 1.0801,1.14 1.2,1.38 1.4399,1.8 1.6199,2.16 1.8,2.52 1.9801,2.88 2.0998,3.24 2.1,3.42 1.8,3.12 1.68,3.18 1.5,3.12 1.38,3 1.14,2.94 0.96,2.76 0.72,2.64 0.6,2.46 0.36,2.28 0.24,2.16 0.12,2.04 0,1.98 -0.12,1.8 -0.18,1.8 -0.24,1.68 -0.18,1.68 -0.24,1.62 -0.24,1.62 -0.12,1.62 -0.06,1.68 0.06,1.68 0.18,1.68 0.3,1.68 0.54,1.74 0.66,1.74 0.96,1.74 1.2,1.68 1.44,1.56 1.68,1.44 1.92,1.26 2.1,1.02 2.34,0.6 2.16,0.24 2.22,-0.12 2.16,-0.3 2.1,-0.48 2.04,-0.6 1.92,-0.72 1.8,-0.78 1.68,-0.84 1.56,-0.84 1.38,-0.84 1.26,-0.78 1.2,-0.84 1.08,-0.78 0.96,-0.78 0.96,-0.78 0.84,-0.78 0.84,-0.78 0.84,-0.84 0.84,-0.84 0.84,-0.9 0.84,-0.96 0.96,-1.02 0.96,-1.2 1.08,-1.26 1.2,-1.44 1.26,-1.62 1.38,-1.8 1.56,-1.98 1.68,-2.22 1.8,-2.46 1.92,-2.76 2.04,-3 2.1,-3.24 2.16,-3.48 2.22,-3.78 2.16,-3.9 1.86,-3.66 1.8,-3.66 1.62,-3.6 1.5,-3.54 1.38,-3.3 1.2,-3.18 1.08,-2.94 0.96,-2.7 0.78,-2.52 0.66,-2.28 0.54,-2.04 0.48,-1.8 0.36,-1.68 0.24,-1.44 0.24,-1.38 0.12,-1.2 0.12,-1.08 0.06,-1.02 0,-5.04 0.06,-1.14 0.06,-1.26 0.06,-1.38 0.12,-1.56 0.18,-1.74 0.3,-1.98 0.3,-2.16 0.36,-2.46 0.42,-2.7 0.54,-2.94 0.6,-3.24 0.66,-3.54 0.66,-3.72 0.78,-3.96 0.78,-4.14 0.84,-4.26 0.78,-4.26 0.9,-4.98 0.84,-4.8 0.84,-4.56 0.78,-4.26 0.78,-3.84 0.78,-3.54 0.72,-3.18 0.72,-2.76 0.66,-2.46 0.72,-2.16 0.72,-1.86 0.66,-1.62 0.66,-1.38 0.66,-1.26 0.66,-1.14 0.66,-1.02 0.6,-0.96 0.6,-0.9 0.6,-0.96 0.48,-0.96 0.48,-1.08 0.42,-1.2 0.36,-1.26 0.24,-1.5 0.18,-1.62 0.06,-1.8 -0.12,-1.98 -0.3,-2.22 -0.48,-2.34 -0.66,-2.52 -0.9,-2.64 -1.2,-2.64 -1.38,-2.64 -1.74,-2.46 -1.98,-2.28 -2.16,-1.98 -2.28,-1.68 -2.28,-1.44 -2.22,-1.2 -2.22,-0.9 -2.1,-0.72 -1.98,-0.48 -1.8,-0.3 -1.74,-0.18 -1.62,0 -1.5,0.12 -1.38,0.18 -1.38,0.3 -1.26,0.36 -1.26,0.36 -1.2,0.48 -1.26,0.42 -1.32,0.48 -1.38,0.48 -1.44,0.48 -1.62,0.42 -1.74,0.42 -1.86,0.36 -2.16,0.36 -2.34,0.3 -2.52,0.24 -2.82,0.18 -3.06,0.18 -3.3,0.12 -3.48,0.12 -3.72,0.12 -3.78,0.06 -3.84,0.12 -4.32,0.18 -4.08,0.18 -3.84,0.24 -3.48,0.24 -3.12,0.24 -2.7,0.24 -2.34,0.18 -1.98,0.12 -1.62,0.18 -1.38,0.06 -1.14,0.12 -0.96,0.06 -0.78,0.06 -0.66,0.06 -0.6,0.12 -0.6,0.06 -0.6,0.06 -0.72,0.12 -0.84,0.18 -0.96,0.18 -1.14,0.24 -1.38,0.3 -1.62,0.36 -1.8598,0.48 -2.1601,0.54 -2.4,0.66 -2.6399,0.72 -2.7601,0.84 -2.9399,0.96 -2.88,1.02 -3.1801,1.26 -2.8801,1.2 -2.5199,1.08 -2.1598,1.02 -1.7402,0.78 -1.3801,0.6 -1.0199,0.42 -0.7199,0.3 -0.5399,0.06 -0.2402,0 -0.1199,-0.06 -0.0602,-0.12 0.0602,-0.18 0.0601,-0.12 0,-0.06 0,0.06 -0.1801,0.24 -0.3,0.42 -0.48,0.66 -0.72,0.96 -0.9,1.32 -1.2,1.74 -1.4402,2.1 -1.6199,2.58 -1.8,2.94 -1.9199,3.3 z"
         style="fill:none;stroke:#000000;stroke-width:0.44999999;stroke-linecap:butt;stroke-linejoin:bevel;stroke-miterlimit:10;stroke-opacity:1;stroke-dasharray:none"
         id="path20"
         inkscape:connector-curvature="0" />
      <path
         d="m 90.7,342.7 0,252"
         style="fill:#0000ff;fill-opacity:1;fill-rule:evenodd;stroke:none"
         id="path76"
         inkscape:connector-curvature="0" />
      <path
         d="m 90.7,342.7 0,252"
         style="fill:none;stroke:#c2c2c2;stroke-width:0.44999999;stroke-linecap:butt;stroke-linejoin:miter;stroke-miterlimit:10;stroke-opacity:1;stroke-dasharray:none"
         id="path78"
         inkscape:connector-curvature="0" />
      <path
         d="m 126.7,342.7 0,252"
         style="fill:#0000ff;fill-opacity:1;fill-rule:evenodd;stroke:none"
         id="path80"
         inkscape:connector-curvature="0" />
      <path
         d="m 126.7,342.7 0,252"
         style="fill:none;stroke:#c2c2c2;stroke-width:0.44999999;stroke-linecap:butt;stroke-linejoin:miter;stroke-miterlimit:10;stroke-opacity:1;stroke-dasharray:none"
         id="path82"
         inkscape:connector-curvature="0" />
      <path
         d="m 18.7,558.7 216,0"
         style="fill:#0000ff;fill-opacity:1;fill-rule:evenodd;stroke:none"
         id="path84"
         inkscape:connector-curvature="0" />
      <path
         d="m 18.7,558.7 216,0"
         style="fill:none;stroke:#c2c2c2;stroke-width:0.44999999;stroke-linecap:butt;stroke-linejoin:miter;stroke-miterlimit:10;stroke-opacity:1;stroke-dasharray:none"
         id="path86"
         inkscape:connector-curvature="0" />
      <path
         d="m 162.7,342.7 0,252"
         style="fill:#0000ff;fill-opacity:1;fill-rule:evenodd;stroke:none"
         id="path88"
         inkscape:connector-curvature="0" />
      <path
         d="m 162.7,342.7 0,252"
         style="fill:none;stroke:#c2c2c2;stroke-width:0.44999999;stroke-linecap:butt;stroke-linejoin:miter;stroke-miterlimit:10;stroke-opacity:1;stroke-dasharray:none"
         id="path90"
         inkscape:connector-curvature="0" />
      <path
         d="m 198.7,347.2 0,247.5"
         style="fill:#0000ff;fill-opacity:1;fill-rule:evenodd;stroke:none"
         id="path92"
         inkscape:connector-curvature="0" />
      <path
         d="m 198.7,347.2 0,247.5"
         style="fill:none;stroke:#c2c2c2;stroke-width:0.44999999;stroke-linecap:butt;stroke-linejoin:miter;stroke-miterlimit:10;stroke-opacity:1;stroke-dasharray:none"
         id="path94"
         inkscape:connector-curvature="0" />
      <path
         d="m 23.2,378.7 216,0"
         style="fill:#0000ff;fill-opacity:1;fill-rule:evenodd;stroke:none"
         id="path96"
         inkscape:connector-curvature="0" />
      <path
         d="m 23.2,378.7 216,0"
         style="fill:none;stroke:#c2c2c2;stroke-width:0.44999999;stroke-linecap:butt;stroke-linejoin:miter;stroke-miterlimit:10;stroke-opacity:1;stroke-dasharray:none"
         id="path98"
         inkscape:connector-curvature="0" />
      <path
         d="m 18.7,414.7 216,0"
         style="fill:#0000ff;fill-opacity:1;fill-rule:evenodd;stroke:none"
         id="path100"
         inkscape:connector-curvature="0" />
      <path
         d="m 18.7,414.7 216,0"
         style="fill:none;stroke:#c2c2c2;stroke-width:0.44999999;stroke-linecap:butt;stroke-linejoin:miter;stroke-miterlimit:10;stroke-opacity:1;stroke-dasharray:none"
         id="path102"
         inkscape:connector-curvature="0" />
      <path
         d="m 23.2,486.7 216,0"
         style="fill:#0000ff;fill-opacity:1;fill-rule:evenodd;stroke:none"
         id="path104"
         inkscape:connector-curvature="0" />
      <path
         d="m 23.2,486.7 216,0"
         style="fill:none;stroke:#c2c2c2;stroke-width:0.44999999;stroke-linecap:butt;stroke-linejoin:miter;stroke-miterlimit:10;stroke-opacity:1;stroke-dasharray:none"
         id="path106"
         inkscape:connector-curvature="0" />
      <path
         d="m 23.2,522.7 216,0"
         style="fill:#0000ff;fill-opacity:1;fill-rule:evenodd;stroke:none"
         id="path108"
         inkscape:connector-curvature="0" />
      <path
         d="m 23.2,522.7 216,0"
         style="fill:none;stroke:#c2c2c2;stroke-width:0.44999999;stroke-linecap:butt;stroke-linejoin:miter;stroke-miterlimit:10;stroke-opacity:1;stroke-dasharray:none"
         id="path110"
         inkscape:connector-curvature="0" />
      <path
         d="m 18.7,594.7 216,0"
         style="fill:#0000ff;fill-opacity:1;fill-rule:evenodd;stroke:none"
         id="path112"
         inkscape:connector-curvature="0" />
      <path
         d="m 18.7,594.7 216,0"
         style="fill:none;stroke:#c2c2c2;stroke-width:0.44999999;stroke-linecap:butt;stroke-linejoin:miter;stroke-miterlimit:10;stroke-opacity:1;stroke-dasharray:none"
         id="path114"
         inkscape:connector-curvature="0" />
      <path
         d="m 54.7,342.7 0,252"
         style="fill:#0000ff;fill-opacity:1;fill-rule:evenodd;stroke:none"
         id="path116"
         inkscape:connector-curvature="0" />
      <path
         d="m 54.7,342.7 0,252"
         style="fill:none;stroke:#c2c2c2;stroke-width:0.44999999;stroke-linecap:butt;stroke-linejoin:miter;stroke-miterlimit:10;stroke-opacity:1;stroke-dasharray:none"
         id="path118"
         inkscape:connector-curvature="0" />
      <path
         d="m 18.7,347.2 0,247.5"
         style="fill:#0000ff;fill-opacity:1;fill-rule:evenodd;stroke:none"
         id="path120"
         inkscape:connector-curvature="0" />
      <path
         d="m 18.7,347.2 0,247.5"
         style="fill:none;stroke:#c2c2c2;stroke-width:0.44999999;stroke-linecap:butt;stroke-linejoin:miter;stroke-miterlimit:10;stroke-opacity:1;stroke-dasharray:none"
         id="path122"
         inkscape:connector-curvature="0" />
      <path
         d="m 18.7,342.7 216,0"
         style="fill:#0000ff;fill-opacity:1;fill-rule:evenodd;stroke:none"
         id="path124"
         inkscape:connector-curvature="0" />
      <path
         d="m 18.7,342.7 216,0"
         style="fill:none;stroke:#c2c2c2;stroke-width:0.44999999;stroke-linecap:butt;stroke-linejoin:miter;stroke-miterlimit:10;stroke-opacity:1;stroke-dasharray:none"
         id="path126"
         inkscape:connector-curvature="0" />
      <path
         d="m 234.7,347.2 0,247.5"
         style="fill:#0000ff;fill-opacity:1;fill-rule:evenodd;stroke:none"
         id="path128"
         inkscape:connector-curvature="0" />
      <path
         d="m 234.7,347.2 0,247.5"
         style="fill:none;stroke:#c2c2c2;stroke-width:0.44999999;stroke-linecap:butt;stroke-linejoin:miter;stroke-miterlimit:10;stroke-opacity:1;stroke-dasharray:none"
         id="path130"
         inkscape:connector-curvature="0" />
      <path
         d="m 18.7,450.7 216,0"
         style="fill:#0000ff;fill-opacity:1;fill-rule:evenodd;stroke:none"
         id="path132"
         inkscape:connector-curvature="0" />
      <path
         d="m 18.7,450.7 216,0"
         style="fill:none;stroke:#c2c2c2;stroke-width:0.44999999;stroke-linecap:butt;stroke-linejoin:miter;stroke-miterlimit:10;stroke-opacity:1;stroke-dasharray:none"
         id="path134"
         inkscape:connector-curvature="0" />
      <path
         d="m 95.1996,522.7 c 0,-2.485 -2.0144,-4.5 -4.4996,-4.5 -2.4852,0 -4.4996,2.015 -4.4996,4.5 0,2.485 2.0144,4.5 4.4996,4.5 2.4852,0 4.4996,-2.015 4.4996,-4.5 z"
         style="fill:none;stroke:#000000;stroke-width:0.44999999;stroke-linecap:butt;stroke-linejoin:bevel;stroke-miterlimit:10;stroke-opacity:1;stroke-dasharray:none"
         id="path572"
         inkscape:connector-curvature="0" />
      <path
         d="m 203.2,486.7 c 0,-2.485 -2.015,-4.5 -4.5,-4.5 -2.485,0 -4.5,2.015 -4.5,4.5 0,2.485 2.015,4.5 4.5,4.5 2.485,0 4.5,-2.015 4.5,-4.5 z"
         style="fill:none;stroke:#000000;stroke-width:0.44999999;stroke-linecap:butt;stroke-linejoin:bevel;stroke-miterlimit:10;stroke-opacity:1;stroke-dasharray:none"
         id="path574"
         inkscape:connector-curvature="0" />
      <path
         d="m 203.2,522.7 c 0,-2.485 -2.015,-4.5 -4.5,-4.5 -2.485,0 -4.5,2.015 -4.5,4.5 0,2.485 2.015,4.5 4.5,4.5 2.485,0 4.5,-2.015 4.5,-4.5 z"
         style="fill:none;stroke:#000000;stroke-width:0.44999999;stroke-linecap:butt;stroke-linejoin:bevel;stroke-miterlimit:10;stroke-opacity:1;stroke-dasharray:none"
         id="path576"
         inkscape:connector-curvature="0" />
      <path
         d="m 59.1996,486.7 c 0,-2.485 -2.0144,-4.5 -4.4996,-4.5 -2.4852,0 -4.4996,2.015 -4.4996,4.5 0,2.485 2.0144,4.5 4.4996,4.5 2.4852,0 4.4996,-2.015 4.4996,-4.5 z"
         style="fill:none;stroke:#000000;stroke-width:0.44999999;stroke-linecap:butt;stroke-linejoin:bevel;stroke-miterlimit:10;stroke-opacity:1;stroke-dasharray:none"
         id="path578"
         inkscape:connector-curvature="0" />
      <path
         d="m 59.1996,522.7 c 0,-2.485 -2.0144,-4.5 -4.4996,-4.5 -2.4852,0 -4.4996,2.015 -4.4996,4.5 0,2.485 2.0144,4.5 4.4996,4.5 2.4852,0 4.4996,-2.015 4.4996,-4.5 z"
         style="fill:none;stroke:#000000;stroke-width:0.44999999;stroke-linecap:butt;stroke-linejoin:bevel;stroke-miterlimit:10;stroke-opacity:1;stroke-dasharray:none"
         id="path580"
         inkscape:connector-curvature="0" />
      <path
         d="m 23.1996,414.7 c 0,-2.485 -2.0144,-4.5 -4.4996,-4.5 -2.4852,0 -4.4996,2.015 -4.4996,4.5 0,2.485 2.0144,4.5 4.4996,4.5 2.4852,0 4.4996,-2.015 4.4996,-4.5 z"
         style="fill:none;stroke:#000000;stroke-width:0.44999999;stroke-linecap:butt;stroke-linejoin:bevel;stroke-miterlimit:10;stroke-opacity:1;stroke-dasharray:none"
         id="path582"
         inkscape:connector-curvature="0" />
      <path
         d="m 239.2,450.7 c 0,-2.485 -2.015,-4.5 -4.5,-4.5 -2.485,0 -4.5,2.015 -4.5,4.5 0,2.485 2.015,4.5 4.5,4.5 2.485,0 4.5,-2.015 4.5,-4.5 z"
         style="fill:none;stroke:#000000;stroke-width:0.44999999;stroke-linecap:butt;stroke-linejoin:bevel;stroke-miterlimit:10;stroke-opacity:1;stroke-dasharray:none"
         id="path584"
         inkscape:connector-curvature="0" />
      <path
         d="m 239.2,486.7 c 0,-2.485 -2.015,-4.5 -4.5,-4.5 -2.485,0 -4.5,2.015 -4.5,4.5 0,2.485 2.015,4.5 4.5,4.5 2.485,0 4.5,-2.015 4.5,-4.5 z"
         style="fill:none;stroke:#000000;stroke-width:0.44999999;stroke-linecap:butt;stroke-linejoin:bevel;stroke-miterlimit:10;stroke-opacity:1;stroke-dasharray:none"
         id="path586"
         inkscape:connector-curvature="0" />
      <path
         d="m 239.2,522.7 c 0,-2.485 -2.015,-4.5 -4.5,-4.5 -2.485,0 -4.5,2.015 -4.5,4.5 0,2.485 2.015,4.5 4.5,4.5 2.485,0 4.5,-2.015 4.5,-4.5 z"
         style="fill:none;stroke:#000000;stroke-width:0.44999999;stroke-linecap:butt;stroke-linejoin:bevel;stroke-miterlimit:10;stroke-opacity:1;stroke-dasharray:none"
         id="path588"
         inkscape:connector-curvature="0" />
      <path
         d="m 23.1996,594.7 c 0,-2.485 -2.0144,-4.5 -4.4996,-4.5 -2.4852,0 -4.4996,2.015 -4.4996,4.5 0,2.485 2.0144,4.5 4.4996,4.5 2.4852,0 4.4996,-2.015 4.4996,-4.5 z"
         style="fill:none;stroke:#000000;stroke-width:0.44999999;stroke-linecap:butt;stroke-linejoin:bevel;stroke-miterlimit:10;stroke-opacity:1;stroke-dasharray:none"
         id="path590"
         inkscape:connector-curvature="0" />
      <path
         d="m 95.1996,594.7 c 0,-2.485 -2.0144,-4.5 -4.4996,-4.5 -2.4852,0 -4.4996,2.015 -4.4996,4.5 0,2.485 2.0144,4.5 4.4996,4.5 2.4852,0 4.4996,-2.015 4.4996,-4.5 z"
         style="fill:none;stroke:#000000;stroke-width:0.44999999;stroke-linecap:butt;stroke-linejoin:bevel;stroke-miterlimit:10;stroke-opacity:1;stroke-dasharray:none"
         id="path592"
         inkscape:connector-curvature="0" />
      <path
         d="m 131.2,594.7 c 0,-2.485 -2.015,-4.5 -4.5,-4.5 -2.485,0 -4.5,2.015 -4.5,4.5 0,2.485 2.015,4.5 4.5,4.5 2.485,0 4.5,-2.015 4.5,-4.5 z"
         style="fill:none;stroke:#000000;stroke-width:0.44999999;stroke-linecap:butt;stroke-linejoin:bevel;stroke-miterlimit:10;stroke-opacity:1;stroke-dasharray:none"
         id="path594"
         inkscape:connector-curvature="0" />
      <path
         d="m 167.2,594.7 c 0,-2.485 -2.015,-4.5 -4.5,-4.5 -2.485,0 -4.5,2.015 -4.5,4.5 0,2.485 2.015,4.5 4.5,4.5 2.485,0 4.5,-2.015 4.5,-4.5 z"
         style="fill:none;stroke:#000000;stroke-width:0.44999999;stroke-linecap:butt;stroke-linejoin:bevel;stroke-miterlimit:10;stroke-opacity:1;stroke-dasharray:none"
         id="path596"
         inkscape:connector-curvature="0" />
      <path
         d="m 203.2,594.7 c 0,-2.485 -2.015,-4.5 -4.5,-4.5 -2.485,0 -4.5,2.015 -4.5,4.5 0,2.485 2.015,4.5 4.5,4.5 2.485,0 4.5,-2.015 4.5,-4.5 z"
         style="fill:none;stroke:#000000;stroke-width:0.44999999;stroke-linecap:butt;stroke-linejoin:bevel;stroke-miterlimit:10;stroke-opacity:1;stroke-dasharray:none"
         id="path598"
         inkscape:connector-curvature="0" />
      <path
         d="m 239.2,594.7 c 0,-2.485 -2.015,-4.5 -4.5,-4.5 -2.485,0 -4.5,2.015 -4.5,4.5 0,2.485 2.015,4.5 4.5,4.5 2.485,0 4.5,-2.015 4.5,-4.5 z"
         style="fill:none;stroke:#000000;stroke-width:0.44999999;stroke-linecap:butt;stroke-linejoin:bevel;stroke-miterlimit:10;stroke-opacity:1;stroke-dasharray:none"
         id="path600"
         inkscape:connector-curvature="0" />
      <path
         d="m 239.2,558.7 c 0,-2.485 -2.015,-4.5 -4.5,-4.5 -2.485,0 -4.5,2.015 -4.5,4.5 0,2.485 2.015,4.5 4.5,4.5 2.485,0 4.5,-2.015 4.5,-4.5 z"
         style="fill:none;stroke:#000000;stroke-width:0.44999999;stroke-linecap:butt;stroke-linejoin:bevel;stroke-miterlimit:10;stroke-opacity:1;stroke-dasharray:none"
         id="path602"
         inkscape:connector-curvature="0" />
      <path
         d="m 203.2,558.7 c 0,-2.485 -2.015,-4.5 -4.5,-4.5 -2.485,0 -4.5,2.015 -4.5,4.5 0,2.485 2.015,4.5 4.5,4.5 2.485,0 4.5,-2.015 4.5,-4.5 z"
         style="fill:none;stroke:#000000;stroke-width:0.44999999;stroke-linecap:butt;stroke-linejoin:bevel;stroke-miterlimit:10;stroke-opacity:1;stroke-dasharray:none"
         id="path604"
         inkscape:connector-curvature="0" />
      <path
         d="m 95.1996,558.7 c 0,-2.485 -2.0144,-4.5 -4.4996,-4.5 -2.4852,0 -4.4996,2.015 -4.4996,4.5 0,2.485 2.0144,4.5 4.4996,4.5 2.4852,0 4.4996,-2.015 4.4996,-4.5 z"
         style="fill:none;stroke:#000000;stroke-width:0.44999999;stroke-linecap:butt;stroke-linejoin:bevel;stroke-miterlimit:10;stroke-opacity:1;stroke-dasharray:none"
         id="path606"
         inkscape:connector-curvature="0" />
      <path
         d="m 59.1996,558.7 c 0,-2.485 -2.0144,-4.5 -4.4996,-4.5 -2.4852,0 -4.4996,2.015 -4.4996,4.5 0,2.485 2.0144,4.5 4.4996,4.5 2.4852,0 4.4996,-2.015 4.4996,-4.5 z"
         style="fill:none;stroke:#000000;stroke-width:0.44999999;stroke-linecap:butt;stroke-linejoin:bevel;stroke-miterlimit:10;stroke-opacity:1;stroke-dasharray:none"
         id="path608"
         inkscape:connector-curvature="0" />
      <path
         d="m 23.1996,558.7 c 0,-2.485 -2.0144,-4.5 -4.4996,-4.5 -2.4852,0 -4.4996,2.015 -4.4996,4.5 0,2.485 2.0144,4.5 4.4996,4.5 2.4852,0 4.4996,-2.015 4.4996,-4.5 z"
         style="fill:none;stroke:#000000;stroke-width:0.44999999;stroke-linecap:butt;stroke-linejoin:bevel;stroke-miterlimit:10;stroke-opacity:1;stroke-dasharray:none"
         id="path610"
         inkscape:connector-curvature="0" />
      <path
         d="m 23.1996,522.7 c 0,-2.485 -2.0144,-4.5 -4.4996,-4.5 -2.4852,0 -4.4996,2.015 -4.4996,4.5 0,2.485 2.0144,4.5 4.4996,4.5 2.4852,0 4.4996,-2.015 4.4996,-4.5 z"
         style="fill:none;stroke:#000000;stroke-width:0.44999999;stroke-linecap:butt;stroke-linejoin:bevel;stroke-miterlimit:10;stroke-opacity:1;stroke-dasharray:none"
         id="path612"
         inkscape:connector-curvature="0" />
      <path
         d="m 23.1996,486.7 c 0,-2.485 -2.0144,-4.5 -4.4996,-4.5 -2.4852,0 -4.4996,2.015 -4.4996,4.5 0,2.485 2.0144,4.5 4.4996,4.5 2.4852,0 4.4996,-2.015 4.4996,-4.5 z"
         style="fill:none;stroke:#000000;stroke-width:0.44999999;stroke-linecap:butt;stroke-linejoin:bevel;stroke-miterlimit:10;stroke-opacity:1;stroke-dasharray:none"
         id="path614"
         inkscape:connector-curvature="0" />
      <path
         d="m 23.1996,450.7 c 0,-2.485 -2.0144,-4.5 -4.4996,-4.5 -2.4852,0 -4.4996,2.015 -4.4996,4.5 0,2.485 2.0144,4.5 4.4996,4.5 2.4852,0 4.4996,-2.015 4.4996,-4.5 z"
         style="fill:none;stroke:#000000;stroke-width:0.44999999;stroke-linecap:butt;stroke-linejoin:bevel;stroke-miterlimit:10;stroke-opacity:1;stroke-dasharray:none"
         id="path616"
         inkscape:connector-curvature="0" />
      <path
         d="m 239.2,414.7 c 0,-2.485 -2.015,-4.5 -4.5,-4.5 -2.485,0 -4.5,2.015 -4.5,4.5 0,2.485 2.015,4.5 4.5,4.5 2.485,0 4.5,-2.015 4.5,-4.5 z"
         style="fill:none;stroke:#000000;stroke-width:0.44999999;stroke-linecap:butt;stroke-linejoin:bevel;stroke-miterlimit:10;stroke-opacity:1;stroke-dasharray:none"
         id="path618"
         inkscape:connector-curvature="0" />
      <path
         d="m 59.1996,378.7 c 0,-2.485 -2.0144,-4.5 -4.4996,-4.5 -2.4852,0 -4.4996,2.015 -4.4996,4.5 0,2.485 2.0144,4.5 4.4996,4.5 2.4852,0 4.4996,-2.015 4.4996,-4.5 z"
         style="fill:none;stroke:#000000;stroke-width:0.44999999;stroke-linecap:butt;stroke-linejoin:bevel;stroke-miterlimit:10;stroke-opacity:1;stroke-dasharray:none"
         id="path620"
         inkscape:connector-curvature="0" />
      <path
         d="m 23.1996,378.7 c 0,-2.485 -2.0144,-4.5 -4.4996,-4.5 -2.4852,0 -4.4996,2.015 -4.4996,4.5 0,2.485 2.0144,4.5 4.4996,4.5 2.4852,0 4.4996,-2.015 4.4996,-4.5 z"
         style="fill:none;stroke:#000000;stroke-width:0.44999999;stroke-linecap:butt;stroke-linejoin:bevel;stroke-miterlimit:10;stroke-opacity:1;stroke-dasharray:none"
         id="path622"
         inkscape:connector-curvature="0" />
      <path
         d="m 239.2,342.7 c 0,-2.485 -2.015,-4.5 -4.5,-4.5 -2.485,0 -4.5,2.015 -4.5,4.5 0,2.485 2.015,4.5 4.5,4.5 2.485,0 4.5,-2.015 4.5,-4.5 z"
         style="fill:none;stroke:#000000;stroke-width:0.44999999;stroke-linecap:butt;stroke-linejoin:bevel;stroke-miterlimit:10;stroke-opacity:1;stroke-dasharray:none"
         id="path624"
         inkscape:connector-curvature="0" />
      <path
         d="m 239.2,378.7 c 0,-2.485 -2.015,-4.5 -4.5,-4.5 -2.485,0 -4.5,2.015 -4.5,4.5 0,2.485 2.015,4.5 4.5,4.5 2.485,0 4.5,-2.015 4.5,-4.5 z"
         style="fill:none;stroke:#000000;stroke-width:0.44999999;stroke-linecap:butt;stroke-linejoin:bevel;stroke-miterlimit:10;stroke-opacity:1;stroke-dasharray:none"
         id="path626"
         inkscape:connector-curvature="0" />
      <path
         d="m 23.1996,342.7 c 0,-2.485 -2.0144,-4.5 -4.4996,-4.5 -2.4852,0 -4.4996,2.015 -4.4996,4.5 0,2.485 2.0144,4.5 4.4996,4.5 2.4852,0 4.4996,-2.015 4.4996,-4.5 z"
         style="fill:none;stroke:#000000;stroke-width:0.44999999;stroke-linecap:butt;stroke-linejoin:bevel;stroke-miterlimit:10;stroke-opacity:1;stroke-dasharray:none"
         id="path628"
         inkscape:connector-curvature="0" />
      <path
         d="m 95.1996,342.7 c 0,-2.485 -2.0144,-4.5 -4.4996,-4.5 -2.4852,0 -4.4996,2.015 -4.4996,4.5 0,2.485 2.0144,4.5 4.4996,4.5 2.4852,0 4.4996,-2.015 4.4996,-4.5 z"
         style="fill:none;stroke:#000000;stroke-width:0.44999999;stroke-linecap:butt;stroke-linejoin:bevel;stroke-miterlimit:10;stroke-opacity:1;stroke-dasharray:none"
         id="path630"
         inkscape:connector-curvature="0" />
      <path
         d="m 131.2,342.7 c 0,-2.485 -2.015,-4.5 -4.5,-4.5 -2.485,0 -4.5,2.015 -4.5,4.5 0,2.485 2.015,4.5 4.5,4.5 2.485,0 4.5,-2.015 4.5,-4.5 z"
         style="fill:none;stroke:#000000;stroke-width:0.44999999;stroke-linecap:butt;stroke-linejoin:bevel;stroke-miterlimit:10;stroke-opacity:1;stroke-dasharray:none"
         id="path632"
         inkscape:connector-curvature="0" />
      <path
         d="m 167.2,342.7 c 0,-2.485 -2.015,-4.5 -4.5,-4.5 -2.485,0 -4.5,2.015 -4.5,4.5 0,2.485 2.015,4.5 4.5,4.5 2.485,0 4.5,-2.015 4.5,-4.5 z"
         style="fill:none;stroke:#000000;stroke-width:0.44999999;stroke-linecap:butt;stroke-linejoin:bevel;stroke-miterlimit:10;stroke-opacity:1;stroke-dasharray:none"
         id="path634"
         inkscape:connector-curvature="0" />
      <path
         d="m 203.2,342.7 c 0,-2.485 -2.015,-4.5 -4.5,-4.5 -2.485,0 -4.5,2.015 -4.5,4.5 0,2.485 2.015,4.5 4.5,4.5 2.485,0 4.5,-2.015 4.5,-4.5 z"
         style="fill:none;stroke:#000000;stroke-width:0.44999999;stroke-linecap:butt;stroke-linejoin:bevel;stroke-miterlimit:10;stroke-opacity:1;stroke-dasharray:none"
         id="path636"
         inkscape:connector-curvature="0" />
      <path
         d="m 59.1996,342.7 c 0,-2.485 -2.0144,-4.5 -4.4996,-4.5 -2.4852,0 -4.4996,2.015 -4.4996,4.5 0,2.485 2.0144,4.5 4.4996,4.5 2.4852,0 4.4996,-2.015 4.4996,-4.5 z"
         style="fill:none;stroke:#000000;stroke-width:0.44999999;stroke-linecap:butt;stroke-linejoin:bevel;stroke-miterlimit:10;stroke-opacity:1;stroke-dasharray:none"
         id="path638"
         inkscape:connector-curvature="0" />
      <path
         d="m 59.1996,594.7 c 0,-2.485 -2.0144,-4.5 -4.4996,-4.5 -2.4852,0 -4.4996,2.015 -4.4996,4.5 0,2.485 2.0144,4.5 4.4996,4.5 2.4852,0 4.4996,-2.015 4.4996,-4.5 z"
         style="fill:none;stroke:#000000;stroke-width:0.44999999;stroke-linecap:butt;stroke-linejoin:bevel;stroke-miterlimit:10;stroke-opacity:1;stroke-dasharray:none"
         id="path640"
         inkscape:connector-curvature="0" />
      <path
         d="m 131.2,558.7 c 0,-2.485 -2.015,-4.5 -4.5,-4.5 -2.485,0 -4.5,2.015 -4.5,4.5 0,2.485 2.015,4.5 4.5,4.5 2.485,0 4.5,-2.015 4.5,-4.5"
         style="fill:#7f7f7f;fill-opacity:1;fill-rule:evenodd;stroke:none"
         id="path642"
         inkscape:connector-curvature="0" />
      <path
         d="m 131.2,558.7 c 0,-2.485 -2.015,-4.5 -4.5,-4.5 -2.485,0 -4.5,2.015 -4.5,4.5 0,2.485 2.015,4.5 4.5,4.5 2.485,0 4.5,-2.015 4.5,-4.5 z"
         style="fill:none;stroke:#000000;stroke-width:0.44999999;stroke-linecap:butt;stroke-linejoin:bevel;stroke-miterlimit:10;stroke-opacity:1;stroke-dasharray:none"
         id="path644"
         inkscape:connector-curvature="0" />
      <path
         d="m 167.2,558.7 c 0,-2.485 -2.015,-4.5 -4.5,-4.5 -2.485,0 -4.5,2.015 -4.5,4.5 0,2.485 2.015,4.5 4.5,4.5 2.485,0 4.5,-2.015 4.5,-4.5"
         style="fill:#7f7f7f;fill-opacity:1;fill-rule:evenodd;stroke:none"
         id="path646"
         inkscape:connector-curvature="0" />
      <path
         d="m 167.2,558.7 c 0,-2.485 -2.015,-4.5 -4.5,-4.5 -2.485,0 -4.5,2.015 -4.5,4.5 0,2.485 2.015,4.5 4.5,4.5 2.485,0 4.5,-2.015 4.5,-4.5 z"
         style="fill:none;stroke:#000000;stroke-width:0.44999999;stroke-linecap:butt;stroke-linejoin:bevel;stroke-miterlimit:10;stroke-opacity:1;stroke-dasharray:none"
         id="path648"
         inkscape:connector-curvature="0" />
      <path
         d="m 167.2,522.7 c 0,-2.485 -2.015,-4.5 -4.5,-4.5 -2.485,0 -4.5,2.015 -4.5,4.5 0,2.485 2.015,4.5 4.5,4.5 2.485,0 4.5,-2.015 4.5,-4.5"
         style="fill:#7f7f7f;fill-opacity:1;fill-rule:evenodd;stroke:none"
         id="path650"
         inkscape:connector-curvature="0" />
      <path
         d="m 167.2,522.7 c 0,-2.485 -2.015,-4.5 -4.5,-4.5 -2.485,0 -4.5,2.015 -4.5,4.5 0,2.485 2.015,4.5 4.5,4.5 2.485,0 4.5,-2.015 4.5,-4.5 z"
         style="fill:none;stroke:#000000;stroke-width:0.44999999;stroke-linecap:butt;stroke-linejoin:bevel;stroke-miterlimit:10;stroke-opacity:1;stroke-dasharray:none"
         id="path652"
         inkscape:connector-curvature="0" />
      <path
         d="m 167.2,486.7 c 0,-2.485 -2.015,-4.5 -4.5,-4.5 -2.485,0 -4.5,2.015 -4.5,4.5 0,2.485 2.015,4.5 4.5,4.5 2.485,0 4.5,-2.015 4.5,-4.5"
         style="fill:#7f7f7f;fill-opacity:1;fill-rule:evenodd;stroke:none"
         id="path654"
         inkscape:connector-curvature="0" />
      <path
         d="m 167.2,486.7 c 0,-2.485 -2.015,-4.5 -4.5,-4.5 -2.485,0 -4.5,2.015 -4.5,4.5 0,2.485 2.015,4.5 4.5,4.5 2.485,0 4.5,-2.015 4.5,-4.5 z"
         style="fill:none;stroke:#000000;stroke-width:0.44999999;stroke-linecap:butt;stroke-linejoin:bevel;stroke-miterlimit:10;stroke-opacity:1;stroke-dasharray:none"
         id="path656"
         inkscape:connector-curvature="0" />
      <path
         d="m 167.2,450.7 c 0,-2.485 -2.015,-4.5 -4.5,-4.5 -2.485,0 -4.5,2.015 -4.5,4.5 0,2.485 2.015,4.5 4.5,4.5 2.485,0 4.5,-2.015 4.5,-4.5"
         style="fill:#7f7f7f;fill-opacity:1;fill-rule:evenodd;stroke:none"
         id="path658"
         inkscape:connector-curvature="0" />
      <path
         d="m 167.2,450.7 c 0,-2.485 -2.015,-4.5 -4.5,-4.5 -2.485,0 -4.5,2.015 -4.5,4.5 0,2.485 2.015,4.5 4.5,4.5 2.485,0 4.5,-2.015 4.5,-4.5 z"
         style="fill:none;stroke:#000000;stroke-width:0.44999999;stroke-linecap:butt;stroke-linejoin:bevel;stroke-miterlimit:10;stroke-opacity:1;stroke-dasharray:none"
         id="path660"
         inkscape:connector-curvature="0" />
      <path
         d="m 167.2,414.7 c 0,-2.485 -2.015,-4.5 -4.5,-4.5 -2.485,0 -4.5,2.015 -4.5,4.5 0,2.485 2.015,4.5 4.5,4.5 2.485,0 4.5,-2.015 4.5,-4.5"
         style="fill:#7f7f7f;fill-opacity:1;fill-rule:evenodd;stroke:none"
         id="path662"
         inkscape:connector-curvature="0" />
      <path
         d="m 167.2,414.7 c 0,-2.485 -2.015,-4.5 -4.5,-4.5 -2.485,0 -4.5,2.015 -4.5,4.5 0,2.485 2.015,4.5 4.5,4.5 2.485,0 4.5,-2.015 4.5,-4.5 z"
         style="fill:none;stroke:#000000;stroke-width:0.44999999;stroke-linecap:butt;stroke-linejoin:bevel;stroke-miterlimit:10;stroke-opacity:1;stroke-dasharray:none"
         id="path664"
         inkscape:connector-curvature="0" />
      <path
         d="m 167.2,378.7 c 0,-2.485 -2.015,-4.5 -4.5,-4.5 -2.485,0 -4.5,2.015 -4.5,4.5 0,2.485 2.015,4.5 4.5,4.5 2.485,0 4.5,-2.015 4.5,-4.5"
         style="fill:#7f7f7f;fill-opacity:1;fill-rule:evenodd;stroke:none"
         id="path666"
         inkscape:connector-curvature="0" />
      <path
         d="m 167.2,378.7 c 0,-2.485 -2.015,-4.5 -4.5,-4.5 -2.485,0 -4.5,2.015 -4.5,4.5 0,2.485 2.015,4.5 4.5,4.5 2.485,0 4.5,-2.015 4.5,-4.5 z"
         style="fill:none;stroke:#000000;stroke-width:0.44999999;stroke-linecap:butt;stroke-linejoin:bevel;stroke-miterlimit:10;stroke-opacity:1;stroke-dasharray:none"
         id="path668"
         inkscape:connector-curvature="0" />
      <path
         d="m 203.2,378.7 c 0,-2.485 -2.015,-4.5 -4.5,-4.5 -2.485,0 -4.5,2.015 -4.5,4.5 0,2.485 2.015,4.5 4.5,4.5 2.485,0 4.5,-2.015 4.5,-4.5"
         style="fill:#7f7f7f;fill-opacity:1;fill-rule:evenodd;stroke:none"
         id="path670"
         inkscape:connector-curvature="0" />
      <path
         d="m 203.2,378.7 c 0,-2.485 -2.015,-4.5 -4.5,-4.5 -2.485,0 -4.5,2.015 -4.5,4.5 0,2.485 2.015,4.5 4.5,4.5 2.485,0 4.5,-2.015 4.5,-4.5 z"
         style="fill:none;stroke:#000000;stroke-width:0.44999999;stroke-linecap:butt;stroke-linejoin:bevel;stroke-miterlimit:10;stroke-opacity:1;stroke-dasharray:none"
         id="path672"
         inkscape:connector-curvature="0" />
      <path
         d="m 203.2,450.7 c 0,-2.485 -2.015,-4.5 -4.5,-4.5 -2.485,0 -4.5,2.015 -4.5,4.5 0,2.485 2.015,4.5 4.5,4.5 2.485,0 4.5,-2.015 4.5,-4.5"
         style="fill:#7f7f7f;fill-opacity:1;fill-rule:evenodd;stroke:none"
         id="path674"
         inkscape:connector-curvature="0" />
      <path
         d="m 203.2,450.7 c 0,-2.485 -2.015,-4.5 -4.5,-4.5 -2.485,0 -4.5,2.015 -4.5,4.5 0,2.485 2.015,4.5 4.5,4.5 2.485,0 4.5,-2.015 4.5,-4.5 z"
         style="fill:none;stroke:#000000;stroke-width:0.44999999;stroke-linecap:butt;stroke-linejoin:bevel;stroke-miterlimit:10;stroke-opacity:1;stroke-dasharray:none"
         id="path676"
         inkscape:connector-curvature="0" />
      <path
         d="m 203.2,414.7 c 0,-2.485 -2.015,-4.5 -4.5,-4.5 -2.485,0 -4.5,2.015 -4.5,4.5 0,2.485 2.015,4.5 4.5,4.5 2.485,0 4.5,-2.015 4.5,-4.5"
         style="fill:#7f7f7f;fill-opacity:1;fill-rule:evenodd;stroke:none"
         id="path678"
         inkscape:connector-curvature="0" />
      <path
         d="m 203.2,414.7 c 0,-2.485 -2.015,-4.5 -4.5,-4.5 -2.485,0 -4.5,2.015 -4.5,4.5 0,2.485 2.015,4.5 4.5,4.5 2.485,0 4.5,-2.015 4.5,-4.5 z"
         style="fill:none;stroke:#000000;stroke-width:0.44999999;stroke-linecap:butt;stroke-linejoin:bevel;stroke-miterlimit:10;stroke-opacity:1;stroke-dasharray:none"
         id="path680"
         inkscape:connector-curvature="0" />
      <path
         d="m 131.2,414.7 c 0,-2.485 -2.015,-4.5 -4.5,-4.5 -2.485,0 -4.5,2.015 -4.5,4.5 0,2.485 2.015,4.5 4.5,4.5 2.485,0 4.5,-2.015 4.5,-4.5"
         style="fill:#7f7f7f;fill-opacity:1;fill-rule:evenodd;stroke:none"
         id="path682"
         inkscape:connector-curvature="0" />
      <path
         d="m 131.2,414.7 c 0,-2.485 -2.015,-4.5 -4.5,-4.5 -2.485,0 -4.5,2.015 -4.5,4.5 0,2.485 2.015,4.5 4.5,4.5 2.485,0 4.5,-2.015 4.5,-4.5 z"
         style="fill:none;stroke:#000000;stroke-width:0.44999999;stroke-linecap:butt;stroke-linejoin:bevel;stroke-miterlimit:10;stroke-opacity:1;stroke-dasharray:none"
         id="path684"
         inkscape:connector-curvature="0" />
      <path
         d="m 131.2,486.7 c 0,-2.485 -2.015,-4.5 -4.5,-4.5 -2.485,0 -4.5,2.015 -4.5,4.5 0,2.485 2.015,4.5 4.5,4.5 2.485,0 4.5,-2.015 4.5,-4.5"
         style="fill:#7f7f7f;fill-opacity:1;fill-rule:evenodd;stroke:none"
         id="path686"
         inkscape:connector-curvature="0" />
      <path
         d="m 131.2,486.7 c 0,-2.485 -2.015,-4.5 -4.5,-4.5 -2.485,0 -4.5,2.015 -4.5,4.5 0,2.485 2.015,4.5 4.5,4.5 2.485,0 4.5,-2.015 4.5,-4.5 z"
         style="fill:none;stroke:#000000;stroke-width:0.44999999;stroke-linecap:butt;stroke-linejoin:bevel;stroke-miterlimit:10;stroke-opacity:1;stroke-dasharray:none"
         id="path688"
         inkscape:connector-curvature="0" />
      <path
         d="m 131.2,450.7 c 0,-2.485 -2.015,-4.5 -4.5,-4.5 -2.485,0 -4.5,2.015 -4.5,4.5 0,2.485 2.015,4.5 4.5,4.5 2.485,0 4.5,-2.015 4.5,-4.5"
         style="fill:#7f7f7f;fill-opacity:1;fill-rule:evenodd;stroke:none"
         id="path690"
         inkscape:connector-curvature="0" />
      <path
         d="m 131.2,450.7 c 0,-2.485 -2.015,-4.5 -4.5,-4.5 -2.485,0 -4.5,2.015 -4.5,4.5 0,2.485 2.015,4.5 4.5,4.5 2.485,0 4.5,-2.015 4.5,-4.5 z"
         style="fill:none;stroke:#000000;stroke-width:0.44999999;stroke-linecap:butt;stroke-linejoin:bevel;stroke-miterlimit:10;stroke-opacity:1;stroke-dasharray:none"
         id="path692"
         inkscape:connector-curvature="0" />
      <path
         d="m 95.1996,450.7 c 0,-2.485 -2.0144,-4.5 -4.4996,-4.5 -2.4852,0 -4.4996,2.015 -4.4996,4.5 0,2.485 2.0144,4.5 4.4996,4.5 2.4852,0 4.4996,-2.015 4.4996,-4.5"
         style="fill:#7f7f7f;fill-opacity:1;fill-rule:evenodd;stroke:none"
         id="path694"
         inkscape:connector-curvature="0" />
      <path
         d="m 95.1996,450.7 c 0,-2.485 -2.0144,-4.5 -4.4996,-4.5 -2.4852,0 -4.4996,2.015 -4.4996,4.5 0,2.485 2.0144,4.5 4.4996,4.5 2.4852,0 4.4996,-2.015 4.4996,-4.5 z"
         style="fill:none;stroke:#000000;stroke-width:0.44999999;stroke-linecap:butt;stroke-linejoin:bevel;stroke-miterlimit:10;stroke-opacity:1;stroke-dasharray:none"
         id="path696"
         inkscape:connector-curvature="0" />
      <path
         d="m 95.1996,486.7 c 0,-2.485 -2.0144,-4.5 -4.4996,-4.5 -2.4852,0 -4.4996,2.015 -4.4996,4.5 0,2.485 2.0144,4.5 4.4996,4.5 2.4852,0 4.4996,-2.015 4.4996,-4.5"
         style="fill:#7f7f7f;fill-opacity:1;fill-rule:evenodd;stroke:none"
         id="path698"
         inkscape:connector-curvature="0" />
      <path
         d="m 95.1996,486.7 c 0,-2.485 -2.0144,-4.5 -4.4996,-4.5 -2.4852,0 -4.4996,2.015 -4.4996,4.5 0,2.485 2.0144,4.5 4.4996,4.5 2.4852,0 4.4996,-2.015 4.4996,-4.5 z"
         style="fill:none;stroke:#000000;stroke-width:0.44999999;stroke-linecap:butt;stroke-linejoin:bevel;stroke-miterlimit:10;stroke-opacity:1;stroke-dasharray:none"
         id="path700"
         inkscape:connector-curvature="0" />
      <path
         d="m 131.2,522.7 c 0,-2.485 -2.015,-4.5 -4.5,-4.5 -2.485,0 -4.5,2.015 -4.5,4.5 0,2.485 2.015,4.5 4.5,4.5 2.485,0 4.5,-2.015 4.5,-4.5"
         style="fill:#7f7f7f;fill-opacity:1;fill-rule:evenodd;stroke:none"
         id="path702"
         inkscape:connector-curvature="0" />
      <path
         d="m 131.2,522.7 c 0,-2.485 -2.015,-4.5 -4.5,-4.5 -2.485,0 -4.5,2.015 -4.5,4.5 0,2.485 2.015,4.5 4.5,4.5 2.485,0 4.5,-2.015 4.5,-4.5 z"
         style="fill:none;stroke:#000000;stroke-width:0.44999999;stroke-linecap:butt;stroke-linejoin:bevel;stroke-miterlimit:10;stroke-opacity:1;stroke-dasharray:none"
         id="path704"
         inkscape:connector-curvature="0" />
      <path
         d="m 59.1996,450.7 c 0,-2.485 -2.0144,-4.5 -4.4996,-4.5 -2.4852,0 -4.4996,2.015 -4.4996,4.5 0,2.485 2.0144,4.5 4.4996,4.5 2.4852,0 4.4996,-2.015 4.4996,-4.5"
         style="fill:#7f7f7f;fill-opacity:1;fill-rule:evenodd;stroke:none"
         id="path706"
         inkscape:connector-curvature="0" />
      <path
         d="m 59.1996,450.7 c 0,-2.485 -2.0144,-4.5 -4.4996,-4.5 -2.4852,0 -4.4996,2.015 -4.4996,4.5 0,2.485 2.0144,4.5 4.4996,4.5 2.4852,0 4.4996,-2.015 4.4996,-4.5 z"
         style="fill:none;stroke:#000000;stroke-width:0.44999999;stroke-linecap:butt;stroke-linejoin:bevel;stroke-miterlimit:10;stroke-opacity:1;stroke-dasharray:none"
         id="path708"
         inkscape:connector-curvature="0" />
      <path
         d="m 59.1996,414.7 c 0,-2.485 -2.0144,-4.5 -4.4996,-4.5 -2.4852,0 -4.4996,2.015 -4.4996,4.5 0,2.485 2.0144,4.5 4.4996,4.5 2.4852,0 4.4996,-2.015 4.4996,-4.5"
         style="fill:#7f7f7f;fill-opacity:1;fill-rule:evenodd;stroke:none"
         id="path710"
         inkscape:connector-curvature="0" />
      <path
         d="m 59.1996,414.7 c 0,-2.485 -2.0144,-4.5 -4.4996,-4.5 -2.4852,0 -4.4996,2.015 -4.4996,4.5 0,2.485 2.0144,4.5 4.4996,4.5 2.4852,0 4.4996,-2.015 4.4996,-4.5 z"
         style="fill:none;stroke:#000000;stroke-width:0.44999999;stroke-linecap:butt;stroke-linejoin:bevel;stroke-miterlimit:10;stroke-opacity:1;stroke-dasharray:none"
         id="path712"
         inkscape:connector-curvature="0" />
      <path
         d="m 95.1996,414.7 c 0,-2.485 -2.0144,-4.5 -4.4996,-4.5 -2.4852,0 -4.4996,2.015 -4.4996,4.5 0,2.485 2.0144,4.5 4.4996,4.5 2.4852,0 4.4996,-2.015 4.4996,-4.5"
         style="fill:#7f7f7f;fill-opacity:1;fill-rule:evenodd;stroke:none"
         id="path714"
         inkscape:connector-curvature="0" />
      <path
         d="m 95.1996,414.7 c 0,-2.485 -2.0144,-4.5 -4.4996,-4.5 -2.4852,0 -4.4996,2.015 -4.4996,4.5 0,2.485 2.0144,4.5 4.4996,4.5 2.4852,0 4.4996,-2.015 4.4996,-4.5 z"
         style="fill:none;stroke:#000000;stroke-width:0.44999999;stroke-linecap:butt;stroke-linejoin:bevel;stroke-miterlimit:10;stroke-opacity:1;stroke-dasharray:none"
         id="path716"
         inkscape:connector-curvature="0" />
      <path
         d="m 95.1996,378.7 c 0,-2.485 -2.0144,-4.5 -4.4996,-4.5 -2.4852,0 -4.4996,2.015 -4.4996,4.5 0,2.485 2.0144,4.5 4.4996,4.5 2.4852,0 4.4996,-2.015 4.4996,-4.5"
         style="fill:#7f7f7f;fill-opacity:1;fill-rule:evenodd;stroke:none"
         id="path718"
         inkscape:connector-curvature="0" />
      <path
         d="m 95.1996,378.7 c 0,-2.485 -2.0144,-4.5 -4.4996,-4.5 -2.4852,0 -4.4996,2.015 -4.4996,4.5 0,2.485 2.0144,4.5 4.4996,4.5 2.4852,0 4.4996,-2.015 4.4996,-4.5 z"
         style="fill:none;stroke:#000000;stroke-width:0.44999999;stroke-linecap:butt;stroke-linejoin:bevel;stroke-miterlimit:10;stroke-opacity:1;stroke-dasharray:none"
         id="path720"
         inkscape:connector-curvature="0" />
      <path
         d="m 131.2,378.7 c 0,-2.485 -2.015,-4.5 -4.5,-4.5 -2.485,0 -4.5,2.015 -4.5,4.5 0,2.485 2.015,4.5 4.5,4.5 2.485,0 4.5,-2.015 4.5,-4.5"
         style="fill:#7f7f7f;fill-opacity:1;fill-rule:evenodd;stroke:none"
         id="path722"
         inkscape:connector-curvature="0" />
      <path
         d="m 131.2,378.7 c 0,-2.485 -2.015,-4.5 -4.5,-4.5 -2.485,0 -4.5,2.015 -4.5,4.5 0,2.485 2.015,4.5 4.5,4.5 2.485,0 4.5,-2.015 4.5,-4.5 z"
         style="fill:none;stroke:#000000;stroke-width:0.44999999;stroke-linecap:butt;stroke-linejoin:bevel;stroke-miterlimit:10;stroke-opacity:1;stroke-dasharray:none"
         id="path724"
         inkscape:connector-curvature="0" />
    </g>
  </g>
</svg>
