<?xml version="1.0" encoding="UTF-8" standalone="no"?>
<!-- Created with Inkscape (http://www.inkscape.org/) -->

<svg
   xmlns:dc="http://purl.org/dc/elements/1.1/"
   xmlns:cc="http://creativecommons.org/ns#"
   xmlns:rdf="http://www.w3.org/1999/02/22-rdf-syntax-ns#"
   xmlns:svg="http://www.w3.org/2000/svg"
   xmlns="http://www.w3.org/2000/svg"
   xmlns:sodipodi="http://sodipodi.sourceforge.net/DTD/sodipodi-0.dtd"
   xmlns:inkscape="http://www.inkscape.org/namespaces/inkscape"
   id="svg2"
   version="1.1"
   inkscape:version="0.48.2 r9819"
   width="242.5"
   height="143.75"
   xml:space="preserve"
   sodipodi:docname="mojettefull.svg"><metadata
     id="metadata8"><rdf:RDF><cc:Work
         rdf:about=""><dc:format>image/svg+xml</dc:format><dc:type
           rdf:resource="http://purl.org/dc/dcmitype/StillImage" /><dc:title></dc:title></cc:Work></rdf:RDF></metadata><defs
     id="defs6"><clipPath
       clipPathUnits="userSpaceOnUse"
       id="clipPath18"><path
         d="m 0,0 1940,0 0,1150 -1940,0"
         id="path20"
         inkscape:connector-curvature="0" /></clipPath><clipPath
       clipPathUnits="userSpaceOnUse"
       id="clipPath30"><path
         d="m 218.398,460 -70,70 -69.9996,-70 69.9996,-70 70,70 z"
         id="path32"
         inkscape:connector-curvature="0" /></clipPath><clipPath
       clipPathUnits="userSpaceOnUse"
       id="clipPath40"><path
         d="m 0,0 1940,0 0,1150 -1940,0"
         id="path42"
         inkscape:connector-curvature="0" /></clipPath><clipPath
       clipPathUnits="userSpaceOnUse"
       id="clipPath96"><path
         d="m 493.402,660 100,0 0,100 -100,0 0,-100 z"
         id="path98"
         inkscape:connector-curvature="0" /></clipPath><clipPath
       clipPathUnits="userSpaceOnUse"
       id="clipPath106"><path
         d="m 0,0 1940,0 0,1150 -1940,0"
         id="path108"
         inkscape:connector-curvature="0" /></clipPath><clipPath
       clipPathUnits="userSpaceOnUse"
       id="clipPath156"><path
         d="m 998.398,995 70.002,70 -70.002,70 -70,-70 70,-70 z"
         id="path158"
         inkscape:connector-curvature="0" /></clipPath><clipPath
       clipPathUnits="userSpaceOnUse"
       id="clipPath166"><path
         d="m 0,0 1940,0 0,1150 -1940,0"
         id="path168"
         inkscape:connector-curvature="0" /></clipPath><clipPath
       clipPathUnits="userSpaceOnUse"
       id="clipPath222"><path
         d="m 1408.4,1010 90,40 -45,90 -90,-45 45,-85 z"
         id="path224"
         inkscape:connector-curvature="0" /></clipPath><clipPath
       clipPathUnits="userSpaceOnUse"
       id="clipPath232"><path
         d="m 0,0 1940,0 0,1150 -1940,0"
         id="path234"
         inkscape:connector-curvature="0" /></clipPath><clipPath
       clipPathUnits="userSpaceOnUse"
       id="clipPath340"><path
         d="m 1860,0 80,0 0,1150 -80,0"
         id="path342"
         inkscape:connector-curvature="0" /></clipPath><clipPath
       clipPathUnits="userSpaceOnUse"
       id="clipPath348"><path
         d="M 0,0 0,0 0,0 0,0 z"
         id="path350"
         inkscape:connector-curvature="0" /></clipPath><clipPath
       clipPathUnits="userSpaceOnUse"
       id="clipPath356"><path
         d="m 0,0 1940,0 0,1150 -1940,0"
         id="path358"
         inkscape:connector-curvature="0" /></clipPath></defs><sodipodi:namedview
     pagecolor="#ffffff"
     bordercolor="#666666"
     borderopacity="1"
     objecttolerance="10"
     gridtolerance="10"
     guidetolerance="10"
     inkscape:pageopacity="0"
     inkscape:pageshadow="2"
     inkscape:window-width="1160"
     inkscape:window-height="966"
     id="namedview4"
     showgrid="false"
     fit-margin-top="0"
     fit-margin-left="0"
     fit-margin-right="0"
     fit-margin-bottom="0"
     inkscape:zoom="4.2639175"
     inkscape:cx="121.25"
     inkscape:cy="71.875"
     inkscape:window-x="0"
     inkscape:window-y="0"
     inkscape:window-maximized="0"
     inkscape:current-layer="g10" /><g
     id="g10"
     inkscape:groupmode="layer"
     inkscape:label="ink_ext_XXXXXX"
     transform="matrix(1.25,0,0,-1.25,0,143.75)"><g
       id="g162"
       transform="scale(0.1,0.1)"><g
         clip-path="url(#clipPath166)"
         id="g164"><path
           inkscape:connector-curvature="0"
           id="path170"
           style="fill:none;stroke:#000000;stroke-width:0.5;stroke-linecap:butt;stroke-linejoin:miter;stroke-miterlimit:4;stroke-opacity:1;stroke-dasharray:none"
           d="M 653.398,110 1302.67,759.27" /><path
           inkscape:connector-curvature="0"
           id="path172"
           style="fill:none;stroke:#000000;stroke-width:0.5;stroke-linecap:butt;stroke-linejoin:miter;stroke-miterlimit:4;stroke-opacity:1;stroke-dasharray:none"
           d="M 803.398,110 1377.67,684.27" /><path
           inkscape:connector-curvature="0"
           id="path174"
           style="fill:none;stroke:#000000;stroke-width:0.5;stroke-linecap:butt;stroke-linejoin:miter;stroke-miterlimit:4;stroke-opacity:1;stroke-dasharray:none"
           d="M 953.398,110 1452.67,609.27" /><path
           inkscape:connector-curvature="0"
           id="path176"
           style="fill:none;stroke:#000000;stroke-width:0.5;stroke-linecap:butt;stroke-linejoin:miter;stroke-miterlimit:4;stroke-opacity:1;stroke-dasharray:none"
           d="m 1103.4,110 424.27,424.27" /><path
           inkscape:connector-curvature="0"
           id="path178"
           style="fill:none;stroke:#000000;stroke-width:0.5;stroke-linecap:butt;stroke-linejoin:miter;stroke-miterlimit:4;stroke-opacity:1;stroke-dasharray:none"
           d="M 653.398,260 1227.67,834.27" /><path
           inkscape:connector-curvature="0"
           id="path180"
           style="fill:none;stroke:#000000;stroke-width:0.5;stroke-linecap:butt;stroke-linejoin:miter;stroke-miterlimit:4;stroke-opacity:1;stroke-dasharray:none"
           d="M 803.398,260 1302.67,759.27" /><path
           inkscape:connector-curvature="0"
           id="path182"
           style="fill:none;stroke:#000000;stroke-width:0.5;stroke-linecap:butt;stroke-linejoin:miter;stroke-miterlimit:4;stroke-opacity:1;stroke-dasharray:none"
           d="M 953.398,260 1377.67,684.27" /><path
           inkscape:connector-curvature="0"
           id="path184"
           style="fill:none;stroke:#000000;stroke-width:0.5;stroke-linecap:butt;stroke-linejoin:miter;stroke-miterlimit:4;stroke-opacity:1;stroke-dasharray:none"
           d="m 1103.4,260 349.27,349.27" /><path
           inkscape:connector-curvature="0"
           id="path186"
           style="fill:none;stroke:#000000;stroke-width:0.5;stroke-linecap:butt;stroke-linejoin:miter;stroke-miterlimit:4;stroke-opacity:1;stroke-dasharray:none"
           d="M 653.398,410 1152.67,909.27" /><path
           inkscape:connector-curvature="0"
           id="path188"
           style="fill:none;stroke:#000000;stroke-width:0.5;stroke-linecap:butt;stroke-linejoin:miter;stroke-miterlimit:4;stroke-opacity:1;stroke-dasharray:none"
           d="M 803.398,410 1227.67,834.27" /><path
           inkscape:connector-curvature="0"
           id="path190"
           style="fill:none;stroke:#000000;stroke-width:0.5;stroke-linecap:butt;stroke-linejoin:miter;stroke-miterlimit:4;stroke-opacity:1;stroke-dasharray:none"
           d="M 953.398,410 1302.67,759.27" /><path
           inkscape:connector-curvature="0"
           id="path192"
           style="fill:none;stroke:#000000;stroke-width:0.5;stroke-linecap:butt;stroke-linejoin:miter;stroke-miterlimit:4;stroke-opacity:1;stroke-dasharray:none"
           d="m 1103.4,410 274.27,274.27" /><path
           inkscape:connector-curvature="0"
           id="path194"
           style="fill:none;stroke:#000000;stroke-width:0.5;stroke-linecap:butt;stroke-linejoin:miter;stroke-miterlimit:4;stroke-opacity:1;stroke-dasharray:none"
           d="M 653.398,560 1077.67,984.27" /><path
           inkscape:connector-curvature="0"
           id="path196"
           style="fill:none;stroke:#000000;stroke-width:0.5;stroke-linecap:butt;stroke-linejoin:miter;stroke-miterlimit:4;stroke-opacity:1;stroke-dasharray:none"
           d="M 803.398,560 1152.67,909.27" /><path
           inkscape:connector-curvature="0"
           id="path198"
           style="fill:none;stroke:#000000;stroke-width:0.5;stroke-linecap:butt;stroke-linejoin:miter;stroke-miterlimit:4;stroke-opacity:1;stroke-dasharray:none"
           d="M 953.398,560 1227.67,834.27" /><path
           inkscape:connector-curvature="0"
           id="path200"
           style="fill:none;stroke:#000000;stroke-width:0.5;stroke-linecap:butt;stroke-linejoin:miter;stroke-miterlimit:4;stroke-opacity:1;stroke-dasharray:none"
           d="m 1103.4,560 199.27,199.27" /><path
           inkscape:connector-curvature="0"
           id="path202"
           style="fill:#000000;fill-opacity:1;fill-rule:nonzero;stroke:none"
           d="m 1586.71,616.18 c 0,5.082 0.52,9.16 1.57,12.261 1.04,3.098 2.6,5.481 4.66,7.161 2.06,1.679 4.66,2.519 7.78,2.519 2.3,0 4.32,-0.461 6.06,-1.391 1.74,-0.929 3.17,-2.269 4.3,-4.019 1.13,-1.75 2.02,-3.871 2.67,-6.391 0.64,-2.511 0.96,-5.89 0.96,-10.148 0,-5.043 -0.52,-9.113 -1.55,-12.203 -1.04,-3.098 -2.58,-5.489 -4.64,-7.18 -2.06,-1.687 -4.66,-2.527 -7.8,-2.527 -4.14,0 -7.39,1.476 -9.76,4.449 -2.83,3.57 -4.25,9.391 -4.25,17.461 l 0,0.008 z m 5.42,0 c 0,-7.051 0.82,-11.75 2.48,-14.078 1.65,-2.34 3.69,-3.5 6.11,-3.5 2.42,0 4.46,1.168 6.11,3.519 1.65,2.34 2.48,7.027 2.48,14.059 0,7.07 -0.82,11.769 -2.48,14.09 -1.65,2.32 -3.71,3.492 -6.16,3.492 -2.43,0 -4.36,-1.032 -5.8,-3.082 -1.82,-2.621 -2.72,-7.45 -2.72,-14.5" /><path
           inkscape:connector-curvature="0"
           id="path204"
           style="fill:#000000;fill-opacity:1;fill-rule:nonzero;stroke:none"
           d="m 1539.43,675.07 0,-5.07 -28.39,0 c -0.04,1.27 0.16,2.488 0.61,3.66 0.73,1.93 1.88,3.84 3.47,5.711 1.59,1.879 3.89,4.039 6.9,6.5 4.67,3.828 7.82,6.859 9.46,9.098 1.64,2.23 2.46,4.351 2.46,6.34 0,2.089 -0.75,3.851 -2.24,5.293 -1.49,1.437 -3.44,2.16 -5.84,2.16 -2.54,0 -4.57,-0.774 -6.09,-2.293 -1.52,-1.52 -2.3,-3.629 -2.32,-6.328 l -5.42,0.558 c 0.37,4.039 1.77,7.129 4.19,9.242 2.43,2.118 5.68,3.18 9.76,3.18 4.12,0 7.38,-1.141 9.79,-3.43 2.4,-2.293 3.6,-5.121 3.6,-8.492 0,-1.719 -0.35,-3.41 -1.05,-5.07 -0.7,-1.66 -1.87,-3.41 -3.5,-5.238 -1.63,-1.84 -4.34,-4.36 -8.13,-7.563 -3.16,-2.656 -5.2,-4.457 -6.09,-5.398 -0.9,-0.95 -1.64,-1.899 -2.23,-2.86" /><path
           inkscape:connector-curvature="0"
           id="path206"
           style="fill:#000000;fill-opacity:1;fill-rule:nonzero;stroke:none"
           d="m 1464.07,777.43 -5.25,-0.41 c -0.47,2.07 -1.13,3.57 -1.99,4.511 -1.43,1.5 -3.18,2.25 -5.27,2.25 -1.68,0 -3.15,-0.472 -4.42,-1.41 -1.66,-1.211 -2.97,-2.98 -3.93,-5.301 -0.96,-2.32 -1.46,-5.629 -1.5,-9.929 1.27,1.929 2.82,3.371 4.66,4.308 1.84,0.942 3.76,1.403 5.77,1.403 3.52,0 6.51,-1.293 8.98,-3.883 2.47,-2.59 3.7,-5.93 3.7,-10.039 0,-2.7 -0.58,-5.2 -1.74,-7.52 -1.16,-2.308 -2.76,-4.09 -4.79,-5.32 -2.03,-1.231 -4.34,-1.84 -6.91,-1.84 -4.39,0 -7.98,1.609 -10.75,4.852 -2.77,3.226 -4.16,8.558 -4.16,15.976 0,8.301 1.53,14.344 4.6,18.113 2.68,3.278 6.28,4.918 10.81,4.918 3.38,0 6.15,-0.949 8.31,-2.839 2.16,-1.891 3.45,-4.508 3.88,-7.848 l 0,0.008 z m -21.53,-18.508 c 0,-1.82 0.39,-3.563 1.16,-5.211 0.77,-1.66 1.85,-2.93 3.24,-3.801 1.39,-0.871 2.84,-1.301 4.36,-1.301 2.23,0 4.14,0.903 5.75,2.7 1.6,1.793 2.4,4.242 2.4,7.32 0,2.973 -0.79,5.312 -2.37,7.019 -1.58,1.711 -3.57,2.563 -5.98,2.563 -2.38,0 -4.4,-0.859 -6.06,-2.563 -1.66,-1.707 -2.49,-3.949 -2.49,-6.718" /><path
           inkscape:connector-curvature="0"
           id="path208"
           style="fill:#000000;fill-opacity:1;fill-rule:nonzero;stroke:none"
           d="m 1362.06,857.32 0,5.071 27.8,0 0,-4.102 c -2.73,-2.91 -5.45,-6.777 -8.13,-11.598 -2.69,-4.82 -4.76,-9.793 -6.23,-14.89 -1.05,-3.59 -1.73,-7.531 -2.02,-11.801 l -5.42,0 c 0.06,3.379 0.72,7.461 1.99,12.25 1.27,4.789 3.09,9.398 5.46,13.84 2.37,4.441 4.9,8.191 7.57,11.23" /><path
           inkscape:connector-curvature="0"
           id="path210"
           style="fill:#000000;fill-opacity:1;fill-rule:nonzero;stroke:none"
           d="m 1314.43,900.07 0,-5.07 -28.39,0 c -0.04,1.27 0.16,2.488 0.61,3.66 0.73,1.93 1.88,3.84 3.47,5.711 1.59,1.879 3.89,4.039 6.9,6.5 4.67,3.828 7.82,6.859 9.46,9.098 1.64,2.23 2.46,4.351 2.46,6.34 0,2.089 -0.75,3.851 -2.24,5.293 -1.49,1.437 -3.44,2.16 -5.84,2.16 -2.54,0 -4.57,-0.774 -6.09,-2.293 -1.52,-1.52 -2.29,-3.629 -2.32,-6.328 l -5.42,0.558 c 0.37,4.039 1.77,7.129 4.19,9.242 2.42,2.118 5.67,3.18 9.75,3.18 4.12,0 7.38,-1.141 9.79,-3.43 2.4,-2.293 3.6,-5.121 3.6,-8.492 0,-1.719 -0.35,-3.41 -1.05,-5.07 -0.7,-1.66 -1.87,-3.41 -3.5,-5.238 -1.63,-1.84 -4.34,-4.36 -8.13,-7.563 -3.16,-2.656 -5.2,-4.457 -6.09,-5.398 -0.9,-0.95 -1.64,-1.899 -2.23,-2.86" /><path
           inkscape:connector-curvature="0"
           id="path212"
           style="fill:#000000;fill-opacity:1;fill-rule:nonzero;stroke:none"
           d="m 1228.61,970 0,10.289 -18.63,0 0,4.832 19.6,27.829 4.3,0 0,-27.829 5.8,0 0,-4.832 -5.8,0 0,-10.289 -5.27,0 z m 0,15.121 0,19.369 -13.45,-19.369" /><path
           inkscape:connector-curvature="0"
           id="path214"
           style="fill:#000000;fill-opacity:1;fill-rule:nonzero;stroke:none"
           d="m 1164.43,1050.07 0,-5.07 -28.39,0 c -0.04,1.27 0.16,2.49 0.61,3.66 0.73,1.93 1.88,3.84 3.47,5.71 1.59,1.88 3.89,4.04 6.9,6.5 4.67,3.83 7.82,6.86 9.46,9.1 1.64,2.23 2.46,4.35 2.46,6.34 0,2.09 -0.75,3.85 -2.24,5.29 -1.49,1.44 -3.44,2.16 -5.84,2.16 -2.54,0 -4.57,-0.77 -6.09,-2.29 -1.52,-1.52 -2.29,-3.63 -2.32,-6.33 l -5.42,0.56 c 0.37,4.04 1.77,7.13 4.19,9.24 2.42,2.12 5.67,3.18 9.75,3.18 4.12,0 7.38,-1.14 9.79,-3.43 2.4,-2.29 3.6,-5.12 3.6,-8.49 0,-1.72 -0.35,-3.41 -1.05,-5.07 -0.7,-1.66 -1.87,-3.41 -3.5,-5.24 -1.63,-1.84 -4.34,-4.36 -8.13,-7.56 -3.16,-2.66 -5.2,-4.46 -6.09,-5.4 -0.9,-0.95 -1.64,-1.9 -2.23,-2.86" /><path
           inkscape:connector-curvature="0"
           id="path216"
           style="fill:none;stroke:#000000;stroke-width:5;stroke-linecap:butt;stroke-linejoin:miter;stroke-miterlimit:4;stroke-opacity:1;stroke-dasharray:none"
           d="M 1784.85,366.871 1414.23,1108.12" /></g></g><g
       id="g36"
       transform="scale(0.1,0.1)"><g
         clip-path="url(#clipPath40)"
         id="g38"><path
           inkscape:connector-curvature="0"
           id="path44"
           style="fill:none;stroke:#000000;stroke-width:0.5;stroke-linecap:butt;stroke-linejoin:miter;stroke-miterlimit:4;stroke-opacity:1;stroke-dasharray:none"
           d="M 653.398,110 229.141,534.27" /><path
           inkscape:connector-curvature="0"
           id="path46"
           style="fill:none;stroke:#000000;stroke-width:0.5;stroke-linecap:butt;stroke-linejoin:miter;stroke-miterlimit:4;stroke-opacity:1;stroke-dasharray:none"
           d="M 803.398,110 304.141,609.27" /><path
           inkscape:connector-curvature="0"
           id="path48"
           style="fill:none;stroke:#000000;stroke-width:0.5;stroke-linecap:butt;stroke-linejoin:miter;stroke-miterlimit:4;stroke-opacity:1;stroke-dasharray:none"
           d="M 953.398,110 379.141,684.27" /><path
           inkscape:connector-curvature="0"
           id="path50"
           style="fill:none;stroke:#000000;stroke-width:0.5;stroke-linecap:butt;stroke-linejoin:miter;stroke-miterlimit:4;stroke-opacity:1;stroke-dasharray:none"
           d="M 1103.4,110 454.141,759.27" /><path
           inkscape:connector-curvature="0"
           id="path52"
           style="fill:none;stroke:#000000;stroke-width:0.5;stroke-linecap:butt;stroke-linejoin:miter;stroke-miterlimit:4;stroke-opacity:1;stroke-dasharray:none"
           d="M 653.398,260 304.141,609.27" /><path
           inkscape:connector-curvature="0"
           id="path54"
           style="fill:none;stroke:#000000;stroke-width:0.5;stroke-linecap:butt;stroke-linejoin:miter;stroke-miterlimit:4;stroke-opacity:1;stroke-dasharray:none"
           d="M 803.398,260 379.141,684.27" /><path
           inkscape:connector-curvature="0"
           id="path56"
           style="fill:none;stroke:#000000;stroke-width:0.5;stroke-linecap:butt;stroke-linejoin:miter;stroke-miterlimit:4;stroke-opacity:1;stroke-dasharray:none"
           d="M 953.398,260 454.141,759.27" /><path
           inkscape:connector-curvature="0"
           id="path58"
           style="fill:none;stroke:#000000;stroke-width:0.5;stroke-linecap:butt;stroke-linejoin:miter;stroke-miterlimit:4;stroke-opacity:1;stroke-dasharray:none"
           d="M 1103.4,260 529.141,834.27" /><path
           inkscape:connector-curvature="0"
           id="path60"
           style="fill:none;stroke:#000000;stroke-width:0.5;stroke-linecap:butt;stroke-linejoin:miter;stroke-miterlimit:4;stroke-opacity:1;stroke-dasharray:none"
           d="M 653.398,410 379.141,684.27" /><path
           inkscape:connector-curvature="0"
           id="path62"
           style="fill:none;stroke:#000000;stroke-width:0.5;stroke-linecap:butt;stroke-linejoin:miter;stroke-miterlimit:4;stroke-opacity:1;stroke-dasharray:none"
           d="M 803.398,410 454.141,759.27" /><path
           inkscape:connector-curvature="0"
           id="path64"
           style="fill:none;stroke:#000000;stroke-width:0.5;stroke-linecap:butt;stroke-linejoin:miter;stroke-miterlimit:4;stroke-opacity:1;stroke-dasharray:none"
           d="M 953.398,410 529.141,834.27" /><path
           inkscape:connector-curvature="0"
           id="path66"
           style="fill:none;stroke:#000000;stroke-width:0.5;stroke-linecap:butt;stroke-linejoin:miter;stroke-miterlimit:4;stroke-opacity:1;stroke-dasharray:none"
           d="M 1103.4,410 604.141,909.27" /><path
           inkscape:connector-curvature="0"
           id="path68"
           style="fill:none;stroke:#000000;stroke-width:0.5;stroke-linecap:butt;stroke-linejoin:miter;stroke-miterlimit:4;stroke-opacity:1;stroke-dasharray:none"
           d="M 653.398,560 454.141,759.27" /><path
           inkscape:connector-curvature="0"
           id="path70"
           style="fill:none;stroke:#000000;stroke-width:0.5;stroke-linecap:butt;stroke-linejoin:miter;stroke-miterlimit:4;stroke-opacity:1;stroke-dasharray:none"
           d="M 803.398,560 529.141,834.27" /><path
           inkscape:connector-curvature="0"
           id="path72"
           style="fill:none;stroke:#000000;stroke-width:0.5;stroke-linecap:butt;stroke-linejoin:miter;stroke-miterlimit:4;stroke-opacity:1;stroke-dasharray:none"
           d="M 953.398,560 604.141,909.27" /><path
           inkscape:connector-curvature="0"
           id="path74"
           style="fill:none;stroke:#000000;stroke-width:0.5;stroke-linecap:butt;stroke-linejoin:miter;stroke-miterlimit:4;stroke-opacity:1;stroke-dasharray:none"
           d="M 1103.4,560 679.141,984.27" /><path
           inkscape:connector-curvature="0"
           id="path76"
           style="fill:#000000;fill-opacity:1;fill-rule:nonzero;stroke:none"
           d="m 586.738,1056.34 5.274,0.7 c 0.609,-2.99 1.636,-5.14 3.09,-6.46 1.457,-1.32 3.226,-1.98 5.32,-1.98 2.476,0 4.566,0.86 6.277,2.57 1.711,1.72 2.571,3.85 2.571,6.39 0,2.42 -0.79,4.42 -2.372,5.99 -1.578,1.57 -3.589,2.36 -6.039,2.36 -1,0 -2.23,-0.2 -3.718,-0.59 l 0.589,4.63 c 0.348,-0.04 0.629,-0.06 0.848,-0.06 2.25,0 4.274,0.59 6.07,1.76 1.801,1.17 2.704,2.98 2.704,5.42 0,1.93 -0.661,3.54 -1.961,4.81 -1.313,1.27 -3,1.9 -5.071,1.9 -2.05,0 -3.761,-0.64 -5.121,-1.93 -1.371,-1.29 -2.25,-3.22 -2.64,-5.8 l -5.27,0.94 c 0.641,3.54 2.109,6.27 4.391,8.22 2.289,1.94 5.129,2.91 8.531,2.91 2.34,0 4.5,-0.5 6.469,-1.51 1.968,-1.01 3.48,-2.38 4.531,-4.12 1.039,-1.74 1.57,-3.58 1.57,-5.54 0,-1.86 -0.5,-3.54 -1.492,-5.07 -1,-1.52 -2.469,-2.73 -4.43,-3.63 2.539,-0.59 4.512,-1.8 5.922,-3.65 1.41,-1.84 2.11,-4.15 2.11,-6.93 0,-3.75 -1.371,-6.93 -4.102,-9.54 -2.73,-2.61 -6.187,-3.91 -10.367,-3.91 -3.774,0 -6.902,1.12 -9.391,3.37 -2.492,2.25 -3.91,5.16 -4.261,8.73" /><path
           inkscape:connector-curvature="0"
           id="path78"
           style="fill:#000000;fill-opacity:1;fill-rule:nonzero;stroke:none"
           d="m 511.738,981.34 5.274,0.699 c 0.609,-2.988 1.636,-5.141 3.09,-6.461 1.457,-1.316 3.226,-1.976 5.32,-1.976 2.476,0 4.566,0.859 6.277,2.57 1.711,1.719 2.571,3.848 2.571,6.387 0,2.421 -0.79,4.421 -2.372,5.992 -1.578,1.57 -3.589,2.359 -6.039,2.359 -1,0 -2.23,-0.199 -3.718,-0.59 l 0.589,4.629 c 0.348,-0.039 0.629,-0.058 0.848,-0.058 2.25,0 4.274,0.589 6.07,1.757 1.801,1.172 2.704,2.981 2.704,5.422 0,1.93 -0.661,3.54 -1.961,4.81 -1.313,1.27 -3,1.9 -5.071,1.9 -2.05,0 -3.761,-0.64 -5.121,-1.93 -1.371,-1.29 -2.25,-3.22 -2.64,-5.8 l -5.27,0.94 c 0.641,3.54 2.109,6.27 4.391,8.22 2.289,1.94 5.129,2.91 8.531,2.91 2.34,0 4.5,-0.5 6.469,-1.51 1.968,-1.01 3.48,-2.38 4.531,-4.12 1.039,-1.74 1.57,-3.58 1.57,-5.54 0,-1.86 -0.5,-3.54 -1.492,-5.071 -1,-1.52 -2.469,-2.731 -4.43,-3.629 2.539,-0.59 4.512,-1.801 5.922,-3.648 1.41,-1.84 2.11,-4.153 2.11,-6.93 0,-3.75 -1.371,-6.934 -4.102,-9.543 -2.73,-2.609 -6.187,-3.91 -10.367,-3.91 -3.774,0 -6.902,1.121 -9.391,3.371 -2.492,2.25 -3.91,5.16 -4.261,8.73" /><path
           inkscape:connector-curvature="0"
           id="path80"
           style="fill:#000000;fill-opacity:1;fill-rule:nonzero;stroke:none"
           d="m 464.07,927.43 -5.25,-0.41 c -0.468,2.07 -1.129,3.57 -1.992,4.511 -1.43,1.5 -3.18,2.25 -5.269,2.25 -1.68,0 -3.149,-0.472 -4.418,-1.41 -1.661,-1.211 -2.969,-2.98 -3.93,-5.301 -0.961,-2.32 -1.461,-5.629 -1.5,-9.929 1.269,1.929 2.82,3.371 4.66,4.308 1.84,0.942 3.758,1.403 5.77,1.403 3.519,0 6.507,-1.293 8.98,-3.883 2.469,-2.59 3.707,-5.93 3.707,-10.039 0,-2.7 -0.578,-5.2 -1.75,-7.52 -1.156,-2.308 -2.758,-4.09 -4.789,-5.32 -2.027,-1.231 -4.34,-1.84 -6.91,-1.84 -4.391,0 -7.981,1.609 -10.75,4.852 -2.77,3.226 -4.16,8.558 -4.16,15.976 0,8.301 1.531,14.344 4.601,18.113 2.68,3.278 6.282,4.918 10.809,4.918 3.383,0 6.141,-0.949 8.301,-2.839 2.16,-1.891 3.449,-4.508 3.879,-7.86 l 0.011,0.02 z m -21.531,-18.508 c 0,-1.82 0.391,-3.563 1.16,-5.211 0.77,-1.66 1.852,-2.93 3.242,-3.801 1.387,-0.871 2.84,-1.301 4.368,-1.301 2.23,0 4.14,0.903 5.742,2.7 1.597,1.793 2.398,4.242 2.398,7.32 0,2.973 -0.789,5.312 -2.371,7.019 -1.578,1.711 -3.566,2.563 -5.976,2.563 -2.383,0 -4.403,-0.859 -6.063,-2.563 -1.66,-1.707 -2.488,-3.949 -2.488,-6.718" /><path
           inkscape:connector-curvature="0"
           id="path82"
           style="fill:#000000;fill-opacity:1;fill-rule:nonzero;stroke:none"
           d="m 361.711,831.25 5.539,0.469 c 0.41,-2.699 1.359,-4.719 2.859,-6.078 1.5,-1.36 3.301,-2.039 5.411,-2.039 2.539,0 4.691,0.949 6.449,2.867 1.761,1.922 2.64,4.453 2.64,7.621 0,3.012 -0.839,5.379 -2.539,7.121 -1.691,1.738 -3.898,2.609 -6.629,2.609 -1.703,0 -3.23,-0.39 -4.601,-1.16 -1.371,-0.769 -2.442,-1.769 -3.219,-3 l -4.949,0.641 4.156,22.058 21.363,0 0,-5.039 -17.14,0 -2.321,-11.539 c 2.579,1.797 5.29,2.699 8.11,2.699 3.75,0 6.922,-1.3 9.5,-3.902 2.57,-2.59 3.871,-5.937 3.871,-10.019 0,-3.887 -1.133,-7.25 -3.402,-10.071 -2.75,-3.476 -6.508,-5.207 -11.278,-5.207 -3.91,0 -7.09,1.09 -9.57,3.278 -2.473,2.191 -3.883,5.089 -4.231,8.703" /><path
           inkscape:connector-curvature="0"
           id="path84"
           style="fill:#000000;fill-opacity:1;fill-rule:nonzero;stroke:none"
           d="m 314.43,750.07 0,-5.07 -28.391,0 c -0.039,1.27 0.16,2.488 0.621,3.66 0.719,1.93 1.879,3.84 3.469,5.711 1.59,1.879 3.891,4.039 6.902,6.5 4.668,3.828 7.821,6.859 9.457,9.098 1.641,2.23 2.461,4.351 2.461,6.34 0,2.089 -0.75,3.851 -2.238,5.293 -1.492,1.437 -3.441,2.16 -5.84,2.16 -2.543,0 -4.57,-0.774 -6.09,-2.293 -1.519,-1.52 -2.301,-3.629 -2.32,-6.328 l -5.422,0.558 c 0.371,4.039 1.77,7.129 4.191,9.242 2.418,2.118 5.68,3.18 9.758,3.18 4.121,0 7.383,-1.141 9.793,-3.43 2.399,-2.293 3.61,-5.121 3.61,-8.492 0,-1.719 -0.36,-3.41 -1.051,-5.07 -0.699,-1.66 -1.871,-3.41 -3.5,-5.238 -1.629,-1.84 -4.34,-4.36 -8.129,-7.563 -3.16,-2.656 -5.199,-4.457 -6.09,-5.398 -0.902,-0.95 -1.641,-1.899 -2.23,-2.86" /><path
           inkscape:connector-curvature="0"
           id="path86"
           style="fill:#000000;fill-opacity:1;fill-rule:nonzero;stroke:none"
           d="m 239.43,675.07 0,-5.07 -28.391,0 c -0.039,1.27 0.172,2.488 0.621,3.66 0.719,1.93 1.879,3.84 3.469,5.711 1.59,1.879 3.891,4.039 6.902,6.5 4.668,3.828 7.821,6.859 9.457,9.098 1.641,2.23 2.461,4.351 2.461,6.34 0,2.089 -0.75,3.851 -2.238,5.293 -1.492,1.437 -3.441,2.16 -5.84,2.16 -2.543,0 -4.57,-0.774 -6.09,-2.293 -1.519,-1.52 -2.301,-3.629 -2.312,-6.328 l -5.418,0.558 c 0.371,4.039 1.769,7.129 4.187,9.242 2.422,2.118 5.684,3.18 9.762,3.18 4.121,0 7.379,-1.141 9.789,-3.43 2.402,-2.293 3.609,-5.121 3.609,-8.492 0,-1.719 -0.347,-3.41 -1.046,-5.07 -0.704,-1.66 -1.872,-3.41 -3.5,-5.238 -1.633,-1.84 -4.34,-4.36 -8.133,-7.563 -3.16,-2.656 -5.199,-4.457 -6.09,-5.398 -0.899,-0.95 -1.641,-1.899 -2.231,-2.86" /><path
           inkscape:connector-curvature="0"
           id="path88"
           style="fill:#000000;fill-opacity:1;fill-rule:nonzero;stroke:none"
           d="m 164.43,600.07 0,-5.07 -28.391,0 c -0.039,1.27 0.172,2.488 0.621,3.66 0.719,1.93 1.879,3.84 3.469,5.711 1.59,1.879 3.891,4.039 6.902,6.5 4.668,3.828 7.821,6.859 9.457,9.098 1.641,2.23 2.461,4.351 2.461,6.34 0,2.089 -0.75,3.851 -2.238,5.293 -1.492,1.437 -3.441,2.16 -5.84,2.16 -2.543,0 -4.57,-0.774 -6.09,-2.293 -1.519,-1.52 -2.293,-3.629 -2.312,-6.328 l -5.418,0.558 c 0.371,4.039 1.769,7.129 4.187,9.242 2.422,2.118 5.672,3.18 9.75,3.18 4.121,0 7.383,-1.141 9.793,-3.43 2.399,-2.293 3.61,-5.121 3.61,-8.492 0,-1.719 -0.352,-3.41 -1.051,-5.07 -0.699,-1.66 -1.871,-3.41 -3.5,-5.238 -1.629,-1.84 -4.34,-4.36 -8.129,-7.563 -3.16,-2.656 -5.199,-4.457 -6.09,-5.398 -0.902,-0.95 -1.641,-1.899 -2.23,-2.86" /><path
           inkscape:connector-curvature="0"
           id="path90"
           style="fill:none;stroke:#000000;stroke-width:5;stroke-linecap:butt;stroke-linejoin:miter;stroke-miterlimit:4;stroke-opacity:1;stroke-dasharray:none"
           d="m 1178.4,710 -675.002,0" /></g></g><g
       id="g102"
       transform="scale(0.1,0.1)"><g
         clip-path="url(#clipPath106)"
         id="g104"><path
           inkscape:connector-curvature="0"
           id="path110"
           style="fill:none;stroke:#000000;stroke-width:0.5;stroke-linecap:butt;stroke-linejoin:miter;stroke-miterlimit:4;stroke-opacity:1;stroke-dasharray:none"
           d="m 653.398,110 0,600" /><path
           inkscape:connector-curvature="0"
           id="path112"
           style="fill:none;stroke:#000000;stroke-width:0.5;stroke-linecap:butt;stroke-linejoin:miter;stroke-miterlimit:4;stroke-opacity:1;stroke-dasharray:none"
           d="m 803.398,110 0,600" /><path
           inkscape:connector-curvature="0"
           id="path114"
           style="fill:none;stroke:#000000;stroke-width:0.5;stroke-linecap:butt;stroke-linejoin:miter;stroke-miterlimit:4;stroke-opacity:1;stroke-dasharray:none"
           d="m 953.398,110 0,600" /><path
           inkscape:connector-curvature="0"
           id="path116"
           style="fill:none;stroke:#000000;stroke-width:0.5;stroke-linecap:butt;stroke-linejoin:miter;stroke-miterlimit:4;stroke-opacity:1;stroke-dasharray:none"
           d="m 1103.4,110 0,600" /><path
           inkscape:connector-curvature="0"
           id="path118"
           style="fill:none;stroke:#000000;stroke-width:0.5;stroke-linecap:butt;stroke-linejoin:miter;stroke-miterlimit:4;stroke-opacity:1;stroke-dasharray:none"
           d="m 653.398,260 0,450" /><path
           inkscape:connector-curvature="0"
           id="path120"
           style="fill:none;stroke:#000000;stroke-width:0.5;stroke-linecap:butt;stroke-linejoin:miter;stroke-miterlimit:4;stroke-opacity:1;stroke-dasharray:none"
           d="m 803.398,260 0,450" /><path
           inkscape:connector-curvature="0"
           id="path122"
           style="fill:none;stroke:#000000;stroke-width:0.5;stroke-linecap:butt;stroke-linejoin:miter;stroke-miterlimit:4;stroke-opacity:1;stroke-dasharray:none"
           d="m 953.398,260 0,450" /><path
           inkscape:connector-curvature="0"
           id="path124"
           style="fill:none;stroke:#000000;stroke-width:0.5;stroke-linecap:butt;stroke-linejoin:miter;stroke-miterlimit:4;stroke-opacity:1;stroke-dasharray:none"
           d="m 1103.4,260 0,450" /><path
           inkscape:connector-curvature="0"
           id="path126"
           style="fill:none;stroke:#000000;stroke-width:0.5;stroke-linecap:butt;stroke-linejoin:miter;stroke-miterlimit:4;stroke-opacity:1;stroke-dasharray:none"
           d="m 653.398,410 0,300" /><path
           inkscape:connector-curvature="0"
           id="path128"
           style="fill:none;stroke:#000000;stroke-width:0.5;stroke-linecap:butt;stroke-linejoin:miter;stroke-miterlimit:4;stroke-opacity:1;stroke-dasharray:none"
           d="m 803.398,410 0,300" /><path
           inkscape:connector-curvature="0"
           id="path130"
           style="fill:none;stroke:#000000;stroke-width:0.5;stroke-linecap:butt;stroke-linejoin:miter;stroke-miterlimit:4;stroke-opacity:1;stroke-dasharray:none"
           d="m 953.398,410 0,300" /><path
           inkscape:connector-curvature="0"
           id="path132"
           style="fill:none;stroke:#000000;stroke-width:0.5;stroke-linecap:butt;stroke-linejoin:miter;stroke-miterlimit:4;stroke-opacity:1;stroke-dasharray:none"
           d="m 1103.4,410 0,300" /><path
           inkscape:connector-curvature="0"
           id="path134"
           style="fill:none;stroke:#000000;stroke-width:0.5;stroke-linecap:butt;stroke-linejoin:miter;stroke-miterlimit:4;stroke-opacity:1;stroke-dasharray:none"
           d="m 653.398,560 0,150" /><path
           inkscape:connector-curvature="0"
           id="path136"
           style="fill:none;stroke:#000000;stroke-width:0.5;stroke-linecap:butt;stroke-linejoin:miter;stroke-miterlimit:4;stroke-opacity:1;stroke-dasharray:none"
           d="m 803.398,560 0,150" /><path
           inkscape:connector-curvature="0"
           id="path138"
           style="fill:none;stroke:#000000;stroke-width:0.5;stroke-linecap:butt;stroke-linejoin:miter;stroke-miterlimit:4;stroke-opacity:1;stroke-dasharray:none"
           d="m 953.398,560 0,150" /><path
           inkscape:connector-curvature="0"
           id="path140"
           style="fill:none;stroke:#000000;stroke-width:0.5;stroke-linecap:butt;stroke-linejoin:miter;stroke-miterlimit:4;stroke-opacity:1;stroke-dasharray:none"
           d="m 1103.4,560 0,150" /><path
           inkscape:connector-curvature="0"
           id="path142"
           style="fill:#000000;fill-opacity:1;fill-rule:nonzero;stroke:none"
           d="m 1114.07,837.43 -5.25,-0.41 c -0.47,2.07 -1.13,3.57 -1.99,4.511 -1.43,1.5 -3.18,2.25 -5.27,2.25 -1.68,0 -3.15,-0.472 -4.42,-1.41 -1.66,-1.211 -2.97,-2.98 -3.93,-5.301 -0.96,-2.32 -1.46,-5.629 -1.5,-9.929 1.27,1.929 2.82,3.371 4.66,4.308 1.84,0.942 3.76,1.403 5.77,1.403 3.52,0 6.51,-1.293 8.98,-3.883 2.47,-2.59 3.7,-5.93 3.7,-10.039 0,-2.7 -0.58,-5.2 -1.74,-7.52 -1.16,-2.308 -2.76,-4.09 -4.79,-5.32 -2.03,-1.231 -4.34,-1.84 -6.91,-1.84 -4.39,0 -7.98,1.609 -10.75,4.852 -2.77,3.226 -4.16,8.558 -4.16,15.976 0,8.301 1.53,14.344 4.6,18.113 2.68,3.278 6.28,4.918 10.81,4.918 3.38,0 6.15,-0.949 8.31,-2.839 2.16,-1.891 3.45,-4.508 3.88,-7.848 l 0,0.008 z m -21.53,-18.508 c 0,-1.82 0.39,-3.563 1.16,-5.211 0.77,-1.66 1.85,-2.93 3.24,-3.801 1.39,-0.871 2.84,-1.301 4.36,-1.301 2.23,0 4.14,0.903 5.75,2.7 1.6,1.793 2.4,4.242 2.4,7.32 0,2.973 -0.79,5.312 -2.37,7.019 -1.58,1.711 -3.57,2.563 -5.98,2.563 -2.38,0 -4.4,-0.859 -6.06,-2.563 -1.66,-1.707 -2.49,-3.949 -2.49,-6.718" /><path
           inkscape:connector-curvature="0"
           id="path144"
           style="fill:#000000;fill-opacity:1;fill-rule:nonzero;stroke:none"
           d="m 937.059,842.32 0,5.071 27.8,0 0,-4.102 c -2.73,-2.91 -5.449,-6.777 -8.129,-11.598 -2.691,-4.82 -4.761,-9.793 -6.23,-14.89 -1.051,-3.59 -1.73,-7.531 -2.02,-11.801 l -5.421,0 c 0.062,3.379 0.722,7.461 1.992,12.25 1.269,4.789 3.09,9.398 5.461,13.84 2.367,4.441 4.898,8.191 7.566,11.23" /><path
           inkscape:connector-curvature="0"
           id="path146"
           style="fill:#000000;fill-opacity:1;fill-rule:nonzero;stroke:none"
           d="m 803.609,805 0,10.289 -18.629,0 0,4.832 19.598,27.828 4.301,0 0,-27.828 5.801,0 0,-4.832 -5.801,0 0,-10.289 -5.27,0 z m 0,15.121 0,19.367 -13.449,-19.367" /><path
           inkscape:connector-curvature="0"
           id="path148"
           style="fill:#000000;fill-opacity:1;fill-rule:nonzero;stroke:none"
           d="m 664.07,837.43 -5.25,-0.41 c -0.468,2.07 -1.129,3.57 -1.992,4.511 -1.43,1.5 -3.18,2.25 -5.269,2.25 -1.68,0 -3.149,-0.472 -4.418,-1.41 -1.661,-1.211 -2.969,-2.98 -3.93,-5.301 -0.961,-2.32 -1.461,-5.629 -1.5,-9.929 1.269,1.929 2.82,3.371 4.66,4.308 1.84,0.942 3.758,1.403 5.77,1.403 3.519,0 6.507,-1.293 8.98,-3.883 2.469,-2.59 3.707,-5.93 3.707,-10.039 0,-2.7 -0.578,-5.2 -1.75,-7.52 -1.156,-2.308 -2.758,-4.09 -4.789,-5.32 -2.027,-1.231 -4.34,-1.84 -6.91,-1.84 -4.391,0 -7.981,1.609 -10.75,4.852 -2.777,3.226 -4.16,8.558 -4.16,15.976 0,8.301 1.531,14.344 4.601,18.113 2.68,3.278 6.282,4.918 10.809,4.918 3.383,0 6.141,-0.949 8.301,-2.839 2.16,-1.891 3.449,-4.508 3.879,-7.848 l 0.011,0.008 z m -21.531,-18.508 c 0,-1.82 0.391,-3.563 1.16,-5.211 0.77,-1.66 1.852,-2.93 3.242,-3.801 1.387,-0.871 2.84,-1.301 4.36,-1.301 2.23,0 4.14,0.903 5.75,2.7 1.597,1.793 2.398,4.242 2.398,7.32 0,2.973 -0.789,5.312 -2.371,7.019 -1.578,1.711 -3.566,2.563 -5.976,2.563 -2.383,0 -4.403,-0.859 -6.063,-2.563 -1.66,-1.707 -2.488,-3.949 -2.488,-6.718" /><path
           inkscape:connector-curvature="0"
           id="path150"
           style="fill:none;stroke:#000000;stroke-width:5;stroke-linecap:butt;stroke-linejoin:miter;stroke-miterlimit:4;stroke-opacity:1;stroke-dasharray:none"
           d="m 1580.7,481.23 -609.098,609.1" /></g></g><path
       inkscape:connector-curvature="0"
       id="path236"
       style="fill:none;stroke:#000000;stroke-width:0.05;stroke-linecap:butt;stroke-linejoin:miter;stroke-miterlimit:4;stroke-opacity:1;stroke-dasharray:none"
       d="M 65.3398,11 166.13,61.3949" /><path
       inkscape:connector-curvature="0"
       id="path238"
       style="fill:none;stroke:#000000;stroke-width:0.05;stroke-linecap:butt;stroke-linejoin:miter;stroke-miterlimit:4;stroke-opacity:1;stroke-dasharray:none"
       d="M 80.3398,11 169.13,55.3949" /><path
       inkscape:connector-curvature="0"
       id="path240"
       style="fill:none;stroke:#000000;stroke-width:0.05;stroke-linecap:butt;stroke-linejoin:miter;stroke-miterlimit:4;stroke-opacity:1;stroke-dasharray:none"
       d="M 95.3398,11 172.13,49.3949" /><path
       inkscape:connector-curvature="0"
       id="path242"
       style="fill:none;stroke:#000000;stroke-width:0.05;stroke-linecap:butt;stroke-linejoin:miter;stroke-miterlimit:4;stroke-opacity:1;stroke-dasharray:none"
       d="m 110.34,11 64.79,32.3949" /><path
       inkscape:connector-curvature="0"
       id="path244"
       style="fill:none;stroke:#000000;stroke-width:0.05;stroke-linecap:butt;stroke-linejoin:miter;stroke-miterlimit:4;stroke-opacity:1;stroke-dasharray:none"
       d="M 65.3398,26 160.13,73.3949" /><path
       inkscape:connector-curvature="0"
       id="path246"
       style="fill:none;stroke:#000000;stroke-width:0.05;stroke-linecap:butt;stroke-linejoin:miter;stroke-miterlimit:4;stroke-opacity:1;stroke-dasharray:none"
       d="M 80.3398,26 163.13,67.3949" /><path
       inkscape:connector-curvature="0"
       id="path248"
       style="fill:none;stroke:#000000;stroke-width:0.05;stroke-linecap:butt;stroke-linejoin:miter;stroke-miterlimit:4;stroke-opacity:1;stroke-dasharray:none"
       d="M 95.3398,26 166.13,61.3949" /><path
       inkscape:connector-curvature="0"
       id="path250"
       style="fill:none;stroke:#000000;stroke-width:0.05;stroke-linecap:butt;stroke-linejoin:miter;stroke-miterlimit:4;stroke-opacity:1;stroke-dasharray:none"
       d="m 110.34,26 58.79,29.3949" /><path
       inkscape:connector-curvature="0"
       id="path252"
       style="fill:none;stroke:#000000;stroke-width:0.05;stroke-linecap:butt;stroke-linejoin:miter;stroke-miterlimit:4;stroke-opacity:1;stroke-dasharray:none"
       d="M 65.3398,41 154.13,85.3949" /><path
       inkscape:connector-curvature="0"
       id="path254"
       style="fill:none;stroke:#000000;stroke-width:0.05;stroke-linecap:butt;stroke-linejoin:miter;stroke-miterlimit:4;stroke-opacity:1;stroke-dasharray:none"
       d="M 80.3398,41 157.13,79.3949" /><path
       inkscape:connector-curvature="0"
       id="path256"
       style="fill:none;stroke:#000000;stroke-width:0.05;stroke-linecap:butt;stroke-linejoin:miter;stroke-miterlimit:4;stroke-opacity:1;stroke-dasharray:none"
       d="M 95.3398,41 160.13,73.3949" /><path
       inkscape:connector-curvature="0"
       id="path258"
       style="fill:none;stroke:#000000;stroke-width:0.05;stroke-linecap:butt;stroke-linejoin:miter;stroke-miterlimit:4;stroke-opacity:1;stroke-dasharray:none"
       d="m 110.34,41 52.79,26.3949" /><path
       inkscape:connector-curvature="0"
       id="path260"
       style="fill:none;stroke:#000000;stroke-width:0.05;stroke-linecap:butt;stroke-linejoin:miter;stroke-miterlimit:4;stroke-opacity:1;stroke-dasharray:none"
       d="M 65.3398,56 148.13,97.3949" /><path
       inkscape:connector-curvature="0"
       id="path262"
       style="fill:none;stroke:#000000;stroke-width:0.05;stroke-linecap:butt;stroke-linejoin:miter;stroke-miterlimit:4;stroke-opacity:1;stroke-dasharray:none"
       d="M 80.3398,56 151.13,91.3949" /><path
       inkscape:connector-curvature="0"
       id="path264"
       style="fill:none;stroke:#000000;stroke-width:0.05;stroke-linecap:butt;stroke-linejoin:miter;stroke-miterlimit:4;stroke-opacity:1;stroke-dasharray:none"
       d="M 95.3398,56 154.13,85.3949" /><path
       inkscape:connector-curvature="0"
       id="path266"
       style="fill:none;stroke:#000000;stroke-width:0.05;stroke-linecap:butt;stroke-linejoin:miter;stroke-miterlimit:4;stroke-opacity:1;stroke-dasharray:none"
       d="m 110.34,56 46.79,23.3949" /><path
       inkscape:connector-curvature="0"
       id="path268"
       style="fill:#000000;fill-opacity:1;fill-rule:nonzero;stroke:none"
       d="m 183.171,48.618 c 0,0.5082 0.052,0.916 0.157,1.2261 0.104,0.3098 0.26,0.5481 0.466,0.7161 0.206,0.1679 0.466,0.2519 0.778,0.2519 0.23,0 0.432,-0.0461 0.606,-0.1391 0.174,-0.0929 0.317,-0.2269 0.43,-0.4019 0.113,-0.175 0.202,-0.3871 0.267,-0.6391 0.064,-0.2511 0.096,-0.589 0.096,-1.0148 0,-0.5043 -0.052,-0.9113 -0.155,-1.2203 -0.104,-0.3098 -0.258,-0.5489 -0.464,-0.718 -0.206,-0.1687 -0.466,-0.2527 -0.78,-0.2527 -0.414,0 -0.739,0.1476 -0.976,0.4449 -0.283,0.357 -0.425,0.9391 -0.425,1.7461 l 0,8e-4 z m 0.542,0 c 0,-0.7051 0.082,-1.175 0.248,-1.4078 0.165,-0.234 0.369,-0.35 0.611,-0.35 0.242,0 0.446,0.1168 0.611,0.3519 0.165,0.234 0.248,0.7027 0.248,1.4059 0,0.707 -0.082,1.1769 -0.248,1.409 -0.165,0.232 -0.371,0.3492 -0.616,0.3492 -0.243,0 -0.436,-0.1032 -0.58,-0.3082 -0.182,-0.2621 -0.273,-0.745 -0.273,-1.45" /><path
       inkscape:connector-curvature="0"
       id="path270"
       style="fill:#000000;fill-opacity:1;fill-rule:nonzero;stroke:none"
       d="m 182.157,52.5 -0.528,0 0,3.3609 c -0.127,-0.1211 -0.293,-0.2418 -0.499,-0.3629 -0.206,-0.121 -0.391,-0.2121 -0.555,-0.273 l 0,0.5102 c 0.295,0.1386 0.553,0.307 0.773,0.5039 0.221,0.1968 0.377,0.389 0.469,0.5738 l 0.34,0" /><path
       inkscape:connector-curvature="0"
       id="path272"
       style="fill:#000000;fill-opacity:1;fill-rule:nonzero;stroke:none"
       d="m 179.943,59.007 0,-0.507 -2.839,0 c -0.004,0.127 0.016,0.2488 0.061,0.366 0.073,0.193 0.188,0.384 0.347,0.5711 0.159,0.1879 0.389,0.4039 0.69,0.65 0.467,0.3828 0.782,0.6859 0.946,0.9098 0.164,0.223 0.246,0.4351 0.246,0.634 0,0.2089 -0.075,0.3851 -0.224,0.5293 -0.149,0.1437 -0.344,0.216 -0.584,0.216 -0.254,0 -0.457,-0.0774 -0.609,-0.2293 -0.152,-0.152 -0.229,-0.3629 -0.232,-0.6328 l -0.542,0.0558 c 0.037,0.4039 0.177,0.7129 0.419,0.9242 0.242,0.2118 0.567,0.318 0.975,0.318 0.412,0 0.738,-0.1141 0.979,-0.343 0.24,-0.2293 0.36,-0.5121 0.36,-0.8492 0,-0.1719 -0.035,-0.341 -0.105,-0.507 -0.07,-0.166 -0.187,-0.341 -0.35,-0.5238 -0.163,-0.184 -0.434,-0.436 -0.813,-0.7563 -0.316,-0.2656 -0.52,-0.4457 -0.609,-0.5398 -0.09,-0.095 -0.164,-0.1899 -0.223,-0.286" /><path
       inkscape:connector-curvature="0"
       id="path274"
       style="fill:#000000;fill-opacity:1;fill-rule:nonzero;stroke:none"
       d="m 174.171,65.625 0.554,0.0469 c 0.041,-0.2699 0.136,-0.4719 0.286,-0.6078 0.15,-0.136 0.33,-0.2039 0.541,-0.2039 0.254,0 0.469,0.0949 0.645,0.2867 0.176,0.1922 0.264,0.4453 0.264,0.7621 0,0.3012 -0.084,0.5379 -0.254,0.7121 -0.169,0.1738 -0.39,0.2609 -0.663,0.2609 -0.17,0 -0.323,-0.039 -0.46,-0.116 -0.137,-0.0769 -0.244,-0.1769 -0.322,-0.3 l -0.495,0.0641 0.416,2.2058 2.136,0 0,-0.5039 -1.714,0 -0.232,-1.1539 c 0.258,0.1797 0.529,0.2699 0.812,0.2699 0.375,0 0.691,-0.13 0.949,-0.3902 0.258,-0.259 0.387,-0.5937 0.387,-1.0019 0,-0.3887 -0.113,-0.725 -0.34,-1.0071 -0.276,-0.3476 -0.652,-0.5207 -1.128,-0.5207 -0.391,0 -0.709,0.109 -0.957,0.3278 -0.247,0.2191 -0.388,0.5089 -0.423,0.8703" /><path
       inkscape:connector-curvature="0"
       id="path276"
       style="fill:#000000;fill-opacity:1;fill-rule:nonzero;stroke:none"
       d="m 173.943,71.007 0,-0.507 -2.839,0 c -0.004,0.127 0.017,0.2488 0.061,0.366 0.073,0.193 0.188,0.384 0.347,0.5711 0.159,0.1879 0.389,0.4039 0.69,0.65 0.467,0.3828 0.782,0.6859 0.946,0.9098 0.164,0.223 0.246,0.4351 0.246,0.634 0,0.2089 -0.075,0.3851 -0.224,0.5293 -0.149,0.1437 -0.344,0.216 -0.584,0.216 -0.254,0 -0.457,-0.0774 -0.609,-0.2293 -0.152,-0.152 -0.229,-0.3629 -0.231,-0.6328 l -0.542,0.0558 c 0.037,0.4039 0.177,0.7129 0.419,0.9242 0.242,0.2118 0.567,0.318 0.975,0.318 0.412,0 0.738,-0.1141 0.979,-0.343 0.24,-0.2293 0.36,-0.5121 0.36,-0.8492 0,-0.1719 -0.035,-0.341 -0.105,-0.507 -0.07,-0.166 -0.187,-0.341 -0.35,-0.5238 -0.163,-0.184 -0.434,-0.436 -0.813,-0.7563 -0.316,-0.2656 -0.52,-0.4457 -0.609,-0.5398 -0.09,-0.095 -0.164,-0.1899 -0.223,-0.286" /><path
       inkscape:connector-curvature="0"
       id="path278"
       style="fill:#000000;fill-opacity:1;fill-rule:nonzero;stroke:none"
       d="m 168.174,77.634 0.527,0.0699 c 0.061,-0.2988 0.164,-0.5141 0.309,-0.6461 0.146,-0.1316 0.323,-0.1976 0.532,-0.1976 0.248,0 0.457,0.0859 0.628,0.2578 0.171,0.1718 0.256,0.384 0.256,0.639 0,0.2418 -0.079,0.4418 -0.237,0.5989 -0.158,0.157 -0.359,0.2363 -0.604,0.2363 -0.1,0 -0.223,-0.0203 -0.372,-0.0594 l 0.059,0.4633 c 0.035,-0.0039 0.063,-0.0063 0.085,-0.0063 0.225,0 0.427,0.059 0.607,0.1762 0.179,0.1168 0.269,0.2981 0.269,0.5418 0,0.1934 -0.065,0.3543 -0.196,0.4813 -0.131,0.1269 -0.3,0.1898 -0.507,0.1898 -0.205,0 -0.376,-0.0641 -0.512,-0.193 -0.137,-0.1289 -0.225,-0.3218 -0.264,-0.58 L 168.227,79.7 c 0.064,0.3539 0.211,0.627 0.439,0.8219 0.229,0.1941 0.513,0.291 0.852,0.291 0.235,0 0.45,-0.05 0.648,-0.1508 0.197,-0.1012 0.348,-0.2383 0.453,-0.4121 0.104,-0.1738 0.157,-0.3578 0.157,-0.5539 0,-0.1859 -0.05,-0.3539 -0.149,-0.507 -0.1,-0.152 -0.247,-0.2731 -0.443,-0.3629 0.254,-0.059 0.451,-0.1801 0.592,-0.3653 0.141,-0.1839 0.211,-0.4148 0.211,-0.6929 0,-0.375 -0.137,-0.693 -0.41,-0.9539 -0.273,-0.261 -0.619,-0.3911 -1.037,-0.3911 -0.377,0 -0.69,0.1122 -0.939,0.3372 -0.249,0.225 -0.391,0.516 -0.426,0.8726" /><path
       inkscape:connector-curvature="0"
       id="path280"
       style="fill:#000000;fill-opacity:1;fill-rule:nonzero;stroke:none"
       d="m 165.174,83.634 0.527,0.0699 c 0.061,-0.2988 0.164,-0.5141 0.309,-0.6461 0.146,-0.1316 0.323,-0.1976 0.532,-0.1976 0.248,0 0.457,0.0859 0.628,0.2578 0.171,0.1718 0.256,0.384 0.256,0.639 0,0.2418 -0.079,0.4418 -0.237,0.5989 -0.158,0.157 -0.359,0.2363 -0.604,0.2363 -0.1,0 -0.223,-0.0203 -0.372,-0.0594 l 0.059,0.4633 c 0.035,-0.0039 0.063,-0.0063 0.085,-0.0063 0.225,0 0.427,0.059 0.607,0.1762 0.179,0.1168 0.269,0.2981 0.269,0.5418 0,0.1934 -0.065,0.3543 -0.196,0.4813 -0.131,0.1269 -0.3,0.1898 -0.507,0.1898 -0.205,0 -0.376,-0.0641 -0.512,-0.193 -0.137,-0.1289 -0.225,-0.3218 -0.264,-0.58 L 165.227,85.7 c 0.064,0.3539 0.211,0.627 0.439,0.8219 0.229,0.1941 0.513,0.291 0.852,0.291 0.235,0 0.45,-0.05 0.648,-0.1508 0.197,-0.1012 0.348,-0.2383 0.453,-0.4121 0.104,-0.1738 0.157,-0.3578 0.157,-0.5539 0,-0.1859 -0.05,-0.3539 -0.149,-0.507 -0.1,-0.152 -0.247,-0.2731 -0.443,-0.3629 0.254,-0.059 0.451,-0.1801 0.592,-0.3653 0.141,-0.1839 0.211,-0.4148 0.211,-0.6929 0,-0.375 -0.137,-0.693 -0.41,-0.9539 -0.273,-0.261 -0.619,-0.3911 -1.037,-0.3911 -0.377,0 -0.69,0.1122 -0.939,0.3372 -0.249,0.225 -0.391,0.516 -0.426,0.8726" /><path
       inkscape:connector-curvature="0"
       id="path282"
       style="fill:#000000;fill-opacity:1;fill-rule:nonzero;stroke:none"
       d="m 164.943,89.007 0,-0.507 -2.839,0 c -0.004,0.127 0.016,0.2488 0.061,0.366 0.073,0.193 0.188,0.384 0.347,0.5711 0.159,0.1879 0.389,0.4039 0.69,0.65 0.467,0.3828 0.782,0.6859 0.946,0.9098 0.164,0.223 0.246,0.4351 0.246,0.634 0,0.2089 -0.075,0.3851 -0.224,0.5293 -0.149,0.1437 -0.344,0.216 -0.584,0.216 -0.254,0 -0.457,-0.0774 -0.609,-0.2293 -0.152,-0.152 -0.23,-0.3629 -0.232,-0.6328 l -0.542,0.0558 c 0.037,0.4039 0.177,0.7129 0.419,0.9242 0.243,0.2118 0.568,0.318 0.976,0.318 0.412,0 0.738,-0.1141 0.979,-0.343 0.24,-0.2293 0.36,-0.5121 0.36,-0.8492 0,-0.1719 -0.035,-0.341 -0.105,-0.507 -0.07,-0.166 -0.187,-0.341 -0.35,-0.5238 -0.163,-0.184 -0.434,-0.436 -0.813,-0.7563 -0.316,-0.2656 -0.52,-0.4457 -0.609,-0.5398 -0.09,-0.095 -0.164,-0.1899 -0.223,-0.286" /><path
       inkscape:connector-curvature="0"
       id="path284"
       style="fill:#000000;fill-opacity:1;fill-rule:nonzero;stroke:none"
       d="m 159.174,95.634 0.527,0.0699 c 0.061,-0.2988 0.164,-0.5141 0.309,-0.6461 0.146,-0.1316 0.323,-0.1976 0.532,-0.1976 0.248,0 0.457,0.0859 0.628,0.257 0.171,0.1719 0.256,0.3848 0.256,0.6387 0,0.2421 -0.079,0.4421 -0.237,0.5992 -0.158,0.157 -0.359,0.2359 -0.604,0.2359 -0.1,0 -0.223,-0.0199 -0.372,-0.059 l 0.059,0.4629 c 0.035,-0.0039 0.063,-0.0058 0.085,-0.0058 0.225,0 0.427,0.0589 0.607,0.1757 0.179,0.1172 0.269,0.2981 0.269,0.5422 0,0.193 -0.065,0.3539 -0.196,0.4809 -0.131,0.1269 -0.3,0.1902 -0.507,0.1902 -0.205,0 -0.376,-0.064 -0.512,-0.1929 -0.137,-0.1293 -0.225,-0.3223 -0.264,-0.5801 l -0.527,0.0937 c 0.064,0.3543 0.211,0.6274 0.439,0.8223 0.229,0.1937 0.513,0.291 0.852,0.291 0.235,0 0.45,-0.05 0.648,-0.1512 0.197,-0.1007 0.348,-0.2379 0.453,-0.4121 0.104,-0.1738 0.157,-0.3578 0.157,-0.5539 0,-0.1859 -0.05,-0.3539 -0.149,-0.507 -0.1,-0.152 -0.247,-0.2731 -0.443,-0.3629 0.254,-0.059 0.451,-0.1801 0.592,-0.3648 0.141,-0.184 0.211,-0.4153 0.211,-0.693 0,-0.375 -0.137,-0.6934 -0.41,-0.9543 -0.273,-0.2609 -0.619,-0.391 -1.037,-0.391 -0.377,0 -0.69,0.1121 -0.939,0.3371 -0.249,0.225 -0.391,0.516 -0.426,0.873" /><path
       inkscape:connector-curvature="0"
       id="path286"
       style="fill:#000000;fill-opacity:1;fill-rule:nonzero;stroke:none"
       d="m 158.943,101.007 0,-0.507 -2.839,0 c -0.004,0.127 0.016,0.249 0.061,0.366 0.073,0.193 0.188,0.384 0.347,0.571 0.159,0.188 0.389,0.404 0.69,0.65 0.467,0.383 0.782,0.686 0.946,0.91 0.164,0.223 0.246,0.435 0.246,0.634 0,0.209 -0.075,0.385 -0.224,0.529 -0.149,0.144 -0.344,0.216 -0.584,0.216 -0.254,0 -0.457,-0.077 -0.609,-0.229 -0.152,-0.152 -0.23,-0.363 -0.232,-0.633 l -0.542,0.056 c 0.037,0.404 0.177,0.713 0.419,0.924 0.243,0.212 0.568,0.318 0.976,0.318 0.412,0 0.738,-0.114 0.979,-0.343 0.24,-0.229 0.36,-0.512 0.36,-0.849 0,-0.172 -0.035,-0.341 -0.105,-0.507 -0.07,-0.166 -0.187,-0.341 -0.35,-0.524 -0.163,-0.184 -0.434,-0.436 -0.813,-0.756 -0.316,-0.266 -0.52,-0.446 -0.609,-0.54 -0.09,-0.095 -0.164,-0.19 -0.223,-0.286" /><path
       inkscape:connector-curvature="0"
       id="path288"
       style="fill:#ffffff;fill-opacity:1;fill-rule:nonzero;stroke:none"
       d="m 57.8402,3.5 60,0 0,60 -60,0 0,-60 z" /><path
       inkscape:connector-curvature="0"
       id="path290"
       style="fill:none;stroke:#000000;stroke-width:1;stroke-linecap:butt;stroke-linejoin:miter;stroke-miterlimit:4;stroke-opacity:1;stroke-dasharray:none"
       d="m 57.8402,3.5 60,0 0,60 -60,0 0,-60 z" /><path
       inkscape:connector-curvature="0"
       id="path324"
       style="fill:none;stroke:#000000;stroke-width:0.25;stroke-linecap:butt;stroke-linejoin:miter;stroke-miterlimit:4;stroke-opacity:1;stroke-dasharray:none"
       d="m 57.8398,18.5 60.0002,0" /><path
       inkscape:connector-curvature="0"
       id="path326"
       style="fill:none;stroke:#000000;stroke-width:0.25;stroke-linecap:butt;stroke-linejoin:miter;stroke-miterlimit:4;stroke-opacity:1;stroke-dasharray:none"
       d="m 57.8398,33.5 60.0002,0" /><path
       inkscape:connector-curvature="0"
       id="path328"
       style="fill:none;stroke:#000000;stroke-width:0.25;stroke-linecap:butt;stroke-linejoin:miter;stroke-miterlimit:4;stroke-opacity:1;stroke-dasharray:none"
       d="m 57.8398,48.5 60.0002,0" /><path
       inkscape:connector-curvature="0"
       id="path330"
       style="fill:none;stroke:#000000;stroke-width:0.25;stroke-linecap:butt;stroke-linejoin:miter;stroke-miterlimit:4;stroke-opacity:1;stroke-dasharray:none"
       d="m 72.8398,3.5 0,60" /><path
       inkscape:connector-curvature="0"
       id="path332"
       style="fill:none;stroke:#000000;stroke-width:0.25;stroke-linecap:butt;stroke-linejoin:miter;stroke-miterlimit:4;stroke-opacity:1;stroke-dasharray:none"
       d="m 87.8398,3.5 0,60" /><path
       inkscape:connector-curvature="0"
       id="path334"
       style="fill:none;stroke:#000000;stroke-width:0.25;stroke-linecap:butt;stroke-linejoin:miter;stroke-miterlimit:4;stroke-opacity:1;stroke-dasharray:none"
       d="m 102.84,3.5 0,60" /><g
       id="g14"
       transform="scale(0.1,0.1)"><g
         clip-path="url(#clipPath18)"
         id="g16"><path
           inkscape:connector-curvature="0"
           id="path22"
           style="fill:none;stroke:#000000;stroke-width:5;stroke-linecap:butt;stroke-linejoin:miter;stroke-miterlimit:10;stroke-opacity:1;stroke-dasharray:none"
           d="m -3.5,-3.5 6733.57,0 0,1423.5 -6733.57,0 0,-1423.5 z" /><path
           inkscape:connector-curvature="0"
           id="path24"
           style="fill:none;stroke:#000000;stroke-width:5;stroke-linecap:butt;stroke-linejoin:miter;stroke-miterlimit:4;stroke-opacity:1;stroke-dasharray:none"
           d="M 732.172,1037.3 123.07,428.199" /></g></g><g
       id="g26"
       transform="scale(0.1,0.1)"><g
         clip-path="url(#clipPath30)"
         id="g28"><path
           inkscape:connector-curvature="0"
           id="path34"
           style="fill:#000000;fill-opacity:1;fill-rule:nonzero;stroke:none"
           d="M 158.43,463.551 179.641,456.48 116,421.129 151.359,484.77" /></g></g><g
       id="g92"
       transform="scale(0.1,0.1)"><g
         clip-path="url(#clipPath96)"
         id="g94"><path
           inkscape:connector-curvature="0"
           id="path100"
           style="fill:#000000;fill-opacity:1;fill-rule:nonzero;stroke:none"
           d="m 553.398,710 10,-20 -70,20 70,20" /></g></g><g
       id="g152"
       transform="scale(0.1,0.1)"><g
         clip-path="url(#clipPath156)"
         id="g154"><path
           inkscape:connector-curvature="0"
           id="path160"
           style="fill:#000000;fill-opacity:1;fill-rule:nonzero;stroke:none"
           d="m 1006.96,1054.98 -7.069,-21.21 -35.36,63.64 63.639,-35.36" /></g></g><g
       id="g218"
       transform="scale(0.1,0.1)"><g
         clip-path="url(#clipPath222)"
         id="g220"><path
           inkscape:connector-curvature="0"
           id="path226"
           style="fill:#000000;fill-opacity:1;fill-rule:nonzero;stroke:none"
           d="m 1436.59,1063.39 -13.42,-17.89 -13.42,71.55 49.2,-53.66" /></g></g><g
       id="g336"
       transform="scale(0.1,0.1)"><g
         clip-path="url(#clipPath340)"
         id="g338" /></g><g
       id="g344"
       transform="scale(0.1,0.1)"><g
         clip-path="url(#clipPath348)"
         id="g346" /></g><g
       id="g352"
       transform="scale(0.1,0.1)"><g
         clip-path="url(#clipPath356)"
         id="g354" /></g></g></svg>