<?xml version="1.0" encoding="UTF-8" standalone="no"?>
<!-- Created with Inkscape (http://www.inkscape.org/) -->

<svg
   xmlns:dc="http://purl.org/dc/elements/1.1/"
   xmlns:cc="http://creativecommons.org/ns#"
   xmlns:rdf="http://www.w3.org/1999/02/22-rdf-syntax-ns#"
   xmlns:svg="http://www.w3.org/2000/svg"
   xmlns="http://www.w3.org/2000/svg"
   xmlns:sodipodi="http://sodipodi.sourceforge.net/DTD/sodipodi-0.dtd"
   xmlns:inkscape="http://www.inkscape.org/namespaces/inkscape"
   id="svg4053"
   version="1.1"
   inkscape:version="0.48.2 r9819"
   width="240"
   height="111.25"
   xml:space="preserve"
   sodipodi:docname="pasunicite.eps"><metadata
     id="metadata4059"><rdf:RDF><cc:Work
         rdf:about=""><dc:format>image/svg+xml</dc:format><dc:type
           rdf:resource="http://purl.org/dc/dcmitype/StillImage" /><dc:title></dc:title></cc:Work></rdf:RDF></metadata><defs
     id="defs4057" /><sodipodi:namedview
     pagecolor="#ffffff"
     bordercolor="#666666"
     borderopacity="1"
     objecttolerance="10"
     gridtolerance="10"
     guidetolerance="10"
     inkscape:pageopacity="0"
     inkscape:pageshadow="2"
     inkscape:window-width="640"
     inkscape:window-height="480"
     id="namedview4055"
     showgrid="false"
     inkscape:zoom="1.6291667"
     inkscape:cx="120"
     inkscape:cy="55.625"
     inkscape:window-x="0"
     inkscape:window-y="0"
     inkscape:window-maximized="0"
     inkscape:current-layer="g4061" /><g
     id="g4061"
     inkscape:groupmode="layer"
     inkscape:label="ink_ext_XXXXXX"
     transform="matrix(1.25,0,0,-1.25,0,111.25)"><g
       id="g4063"
       transform="scale(0.1,0.1)"><path
         d="m 441.602,659.602 c 0,-10.934 -8.868,-19.801 -19.801,-19.801 -10.934,0 -19.801,8.867 -19.801,19.801 0,10.933 8.867,19.796 19.801,19.796 10.933,0 19.801,-8.863 19.801,-19.796"
         style="fill:#262626;fill-opacity:1;fill-rule:evenodd;stroke:none"
         id="path4065" /><path
         d="m 441.602,659.602 c 0,-10.934 -8.868,-19.801 -19.801,-19.801 -10.934,0 -19.801,8.867 -19.801,19.801 0,10.933 8.867,19.796 19.801,19.796 10.933,0 19.801,-8.863 19.801,-19.796 z"
         style="fill:none;stroke:#000000;stroke-opacity:1;stroke-width:2.97;stroke-linecap:butt;stroke-linejoin:miter;stroke-miterlimit:10;stroke-dasharray:none"
         id="path4067" /><path
         d="m 322.801,303.199 c 0,-10.933 -8.867,-19.801 -19.801,-19.801 -10.934,0 -19.801,8.868 -19.801,19.801 0,10.934 8.867,19.801 19.801,19.801 10.934,0 19.801,-8.867 19.801,-19.801"
         style="fill:#262626;fill-opacity:1;fill-rule:evenodd;stroke:none"
         id="path4069" /><path
         d="m 322.801,303.199 c 0,-10.933 -8.867,-19.801 -19.801,-19.801 -10.934,0 -19.801,8.868 -19.801,19.801 0,10.934 8.867,19.801 19.801,19.801 10.934,0 19.801,-8.867 19.801,-19.801 z"
         style="fill:none;stroke:#000000;stroke-opacity:1;stroke-width:2.97;stroke-linecap:butt;stroke-linejoin:miter;stroke-miterlimit:10;stroke-dasharray:none"
         id="path4071" /><path
         d="m 560.398,422 c 0,-10.934 -8.863,-19.801 -19.796,-19.801 -10.934,0 -19.801,8.867 -19.801,19.801 0,10.934 8.867,19.801 19.801,19.801 10.933,0 19.796,-8.867 19.796,-19.801"
         style="fill:#262626;fill-opacity:1;fill-rule:evenodd;stroke:none"
         id="path4073" /><path
         d="m 560.398,422 c 0,-10.934 -8.863,-19.801 -19.796,-19.801 -10.934,0 -19.801,8.867 -19.801,19.801 0,10.934 8.867,19.801 19.801,19.801 10.933,0 19.796,-8.867 19.796,-19.801 z"
         style="fill:none;stroke:#000000;stroke-opacity:1;stroke-width:2.97;stroke-linecap:butt;stroke-linejoin:miter;stroke-miterlimit:10;stroke-dasharray:none"
         id="path4075" /><path
         d="M 322.801,540.801 C 322.801,529.867 313.934,521 303,521 c -10.934,0 -19.801,8.867 -19.801,19.801 0,10.933 8.867,19.801 19.801,19.801 10.934,0 19.801,-8.868 19.801,-19.801"
         style="fill:#262626;fill-opacity:1;fill-rule:evenodd;stroke:none"
         id="path4077" /><path
         d="M 322.801,540.801 C 322.801,529.867 313.934,521 303,521 c -10.934,0 -19.801,8.867 -19.801,19.801 0,10.933 8.867,19.801 19.801,19.801 10.934,0 19.801,-8.868 19.801,-19.801 z"
         style="fill:none;stroke:#000000;stroke-opacity:1;stroke-width:2.97;stroke-linecap:butt;stroke-linejoin:miter;stroke-miterlimit:10;stroke-dasharray:none"
         id="path4079" /><path
         d="M 441.602,540.801 C 441.602,529.867 432.734,521 421.801,521 410.867,521 402,529.867 402,540.801 c 0,10.933 8.867,19.801 19.801,19.801 10.933,0 19.801,-8.868 19.801,-19.801"
         style="fill:#262626;fill-opacity:1;fill-rule:evenodd;stroke:none"
         id="path4081" /><path
         d="M 441.602,540.801 C 441.602,529.867 432.734,521 421.801,521 410.867,521 402,529.867 402,540.801 c 0,10.933 8.867,19.801 19.801,19.801 10.933,0 19.801,-8.868 19.801,-19.801 z"
         style="fill:none;stroke:#000000;stroke-opacity:1;stroke-width:2.97;stroke-linecap:butt;stroke-linejoin:miter;stroke-miterlimit:10;stroke-dasharray:none"
         id="path4083" /><path
         d="m 441.602,422 c 0,-10.934 -8.868,-19.801 -19.801,-19.801 -10.934,0 -19.801,8.867 -19.801,19.801 0,10.934 8.867,19.801 19.801,19.801 10.933,0 19.801,-8.867 19.801,-19.801"
         style="fill:#262626;fill-opacity:1;fill-rule:evenodd;stroke:none"
         id="path4085" /><path
         d="m 441.602,422 c 0,-10.934 -8.868,-19.801 -19.801,-19.801 -10.934,0 -19.801,8.867 -19.801,19.801 0,10.934 8.867,19.801 19.801,19.801 10.933,0 19.801,-8.867 19.801,-19.801 z"
         style="fill:none;stroke:#000000;stroke-opacity:1;stroke-width:2.97;stroke-linecap:butt;stroke-linejoin:miter;stroke-miterlimit:10;stroke-dasharray:none"
         id="path4087" /><path
         d="m 322.801,422 c 0,-10.934 -8.867,-19.801 -19.801,-19.801 -10.934,0 -19.801,8.867 -19.801,19.801 0,10.934 8.867,19.801 19.801,19.801 10.934,0 19.801,-8.867 19.801,-19.801"
         style="fill:#262626;fill-opacity:1;fill-rule:evenodd;stroke:none"
         id="path4089" /><path
         d="m 322.801,422 c 0,-10.934 -8.867,-19.801 -19.801,-19.801 -10.934,0 -19.801,8.867 -19.801,19.801 0,10.934 8.867,19.801 19.801,19.801 10.934,0 19.801,-8.867 19.801,-19.801 z"
         style="fill:none;stroke:#000000;stroke-opacity:1;stroke-width:2.97;stroke-linecap:butt;stroke-linejoin:miter;stroke-miterlimit:10;stroke-dasharray:none"
         id="path4091" /><path
         d="m 188.953,422 c 0,-2.84 -2.129,-5.148 -4.754,-5.148 -2.621,0 -4.75,2.308 -4.75,5.148 0,2.84 2.129,5.148 4.75,5.148 2.625,0 4.754,-2.308 4.754,-5.148"
         style="fill:#ffffff;fill-opacity:1;fill-rule:evenodd;stroke:none"
         id="path4093" /><path
         d="m 188.953,422 c 0,-2.84 -2.129,-5.148 -4.754,-5.148 -2.621,0 -4.75,2.308 -4.75,5.148 0,2.84 2.129,5.148 4.75,5.148 2.625,0 4.754,-2.308 4.754,-5.148 z"
         style="fill:none;stroke:#000000;stroke-opacity:1;stroke-width:2.97;stroke-linecap:butt;stroke-linejoin:miter;stroke-miterlimit:10;stroke-dasharray:none"
         id="path4095" /><path
         d="m 188.953,303.199 c 0,-2.84 -2.129,-5.148 -4.754,-5.148 -2.621,0 -4.75,2.308 -4.75,5.148 0,2.84 2.129,5.149 4.75,5.149 2.625,0 4.754,-2.309 4.754,-5.149"
         style="fill:#ffffff;fill-opacity:1;fill-rule:evenodd;stroke:none"
         id="path4097" /><path
         d="m 188.953,303.199 c 0,-2.84 -2.129,-5.148 -4.754,-5.148 -2.621,0 -4.75,2.308 -4.75,5.148 0,2.84 2.129,5.149 4.75,5.149 2.625,0 4.754,-2.309 4.754,-5.149 z"
         style="fill:none;stroke:#000000;stroke-opacity:1;stroke-width:2.97;stroke-linecap:butt;stroke-linejoin:miter;stroke-miterlimit:10;stroke-dasharray:none"
         id="path4099" /><path
         d="m 426.551,303.199 c 0,-2.84 -2.129,-5.148 -4.75,-5.148 -2.625,0 -4.754,2.308 -4.754,5.148 0,2.84 2.129,5.149 4.754,5.149 2.621,0 4.75,-2.309 4.75,-5.149"
         style="fill:#ffffff;fill-opacity:1;fill-rule:evenodd;stroke:none"
         id="path4101" /><path
         d="m 426.551,303.199 c 0,-2.84 -2.129,-5.148 -4.75,-5.148 -2.625,0 -4.754,2.308 -4.754,5.148 0,2.84 2.129,5.149 4.754,5.149 2.621,0 4.75,-2.309 4.75,-5.149 z"
         style="fill:none;stroke:#000000;stroke-opacity:1;stroke-width:2.97;stroke-linecap:butt;stroke-linejoin:miter;stroke-miterlimit:10;stroke-dasharray:none"
         id="path4103" /><path
         d="m 545.352,303.199 c 0,-2.84 -2.129,-5.148 -4.75,-5.148 -2.625,0 -4.754,2.308 -4.754,5.148 0,2.84 2.129,5.149 4.754,5.149 2.621,0 4.75,-2.309 4.75,-5.149"
         style="fill:#ffffff;fill-opacity:1;fill-rule:evenodd;stroke:none"
         id="path4105" /><path
         d="m 545.352,303.199 c 0,-2.84 -2.129,-5.148 -4.75,-5.148 -2.625,0 -4.754,2.308 -4.754,5.148 0,2.84 2.129,5.149 4.754,5.149 2.621,0 4.75,-2.309 4.75,-5.149 z"
         style="fill:none;stroke:#000000;stroke-opacity:1;stroke-width:2.97;stroke-linecap:butt;stroke-linejoin:miter;stroke-miterlimit:10;stroke-dasharray:none"
         id="path4107" /><path
         d="m 545.352,540.801 c 0,-2.84 -2.129,-5.149 -4.75,-5.149 -2.625,0 -4.754,2.309 -4.754,5.149 0,2.84 2.129,5.148 4.754,5.148 2.621,0 4.75,-2.308 4.75,-5.148"
         style="fill:#ffffff;fill-opacity:1;fill-rule:evenodd;stroke:none"
         id="path4109" /><path
         d="m 545.352,540.801 c 0,-2.84 -2.129,-5.149 -4.75,-5.149 -2.625,0 -4.754,2.309 -4.754,5.149 0,2.84 2.129,5.148 4.754,5.148 2.621,0 4.75,-2.308 4.75,-5.148 z"
         style="fill:none;stroke:#000000;stroke-opacity:1;stroke-width:2.97;stroke-linecap:butt;stroke-linejoin:miter;stroke-miterlimit:10;stroke-dasharray:none"
         id="path4111" /><path
         d="m 307.754,659.602 c 0,-2.84 -2.129,-5.149 -4.754,-5.149 -2.625,0 -4.754,2.309 -4.754,5.149 0,2.839 2.129,5.144 4.754,5.144 2.625,0 4.754,-2.305 4.754,-5.144"
         style="fill:#ffffff;fill-opacity:1;fill-rule:evenodd;stroke:none"
         id="path4113" /><path
         d="m 307.754,659.602 c 0,-2.84 -2.129,-5.149 -4.754,-5.149 -2.625,0 -4.754,2.309 -4.754,5.149 0,2.839 2.129,5.144 4.754,5.144 2.625,0 4.754,-2.305 4.754,-5.144 z"
         style="fill:none;stroke:#000000;stroke-opacity:1;stroke-width:2.97;stroke-linecap:butt;stroke-linejoin:miter;stroke-miterlimit:10;stroke-dasharray:none"
         id="path4115" /><path
         d="m 188.953,659.602 c 0,-2.84 -2.129,-5.149 -4.754,-5.149 -2.621,0 -4.75,2.309 -4.75,5.149 0,2.839 2.129,5.144 4.75,5.144 2.625,0 4.754,-2.305 4.754,-5.144"
         style="fill:#ffffff;fill-opacity:1;fill-rule:evenodd;stroke:none"
         id="path4117" /><path
         d="m 188.953,659.602 c 0,-2.84 -2.129,-5.149 -4.754,-5.149 -2.621,0 -4.75,2.309 -4.75,5.149 0,2.839 2.129,5.144 4.75,5.144 2.625,0 4.754,-2.305 4.754,-5.144 z"
         style="fill:none;stroke:#000000;stroke-opacity:1;stroke-width:2.97;stroke-linecap:butt;stroke-linejoin:miter;stroke-miterlimit:10;stroke-dasharray:none"
         id="path4119" /><path
         d="m 1392,540.801 c 0,-10.934 -8.87,-19.801 -19.8,-19.801 -10.93,0 -19.8,8.867 -19.8,19.801 0,10.933 8.87,19.801 19.8,19.801 10.93,0 19.8,-8.868 19.8,-19.801"
         style="fill:#262626;fill-opacity:1;fill-rule:evenodd;stroke:none"
         id="path4121" /><path
         d="m 1392,540.801 c 0,-10.934 -8.87,-19.801 -19.8,-19.801 -10.93,0 -19.8,8.867 -19.8,19.801 0,10.933 8.87,19.801 19.8,19.801 10.93,0 19.8,-8.868 19.8,-19.801 z"
         style="fill:none;stroke:#000000;stroke-opacity:1;stroke-width:2.97;stroke-linecap:butt;stroke-linejoin:miter;stroke-miterlimit:10;stroke-dasharray:none"
         id="path4123" /><path
         d="m 1510.8,540.801 c 0,-10.934 -8.87,-19.801 -19.8,-19.801 -10.93,0 -19.8,8.867 -19.8,19.801 0,10.933 8.87,19.801 19.8,19.801 10.93,0 19.8,-8.868 19.8,-19.801"
         style="fill:#262626;fill-opacity:1;fill-rule:evenodd;stroke:none"
         id="path4125" /><path
         d="m 1510.8,540.801 c 0,-10.934 -8.87,-19.801 -19.8,-19.801 -10.93,0 -19.8,8.867 -19.8,19.801 0,10.933 8.87,19.801 19.8,19.801 10.93,0 19.8,-8.868 19.8,-19.801 z"
         style="fill:none;stroke:#000000;stroke-opacity:1;stroke-width:2.97;stroke-linecap:butt;stroke-linejoin:miter;stroke-miterlimit:10;stroke-dasharray:none"
         id="path4127" /><path
         d="m 1510.8,422 c 0,-10.934 -8.87,-19.801 -19.8,-19.801 -10.93,0 -19.8,8.867 -19.8,19.801 0,10.934 8.87,19.801 19.8,19.801 10.93,0 19.8,-8.867 19.8,-19.801"
         style="fill:#262626;fill-opacity:1;fill-rule:evenodd;stroke:none"
         id="path4129" /><path
         d="m 1510.8,422 c 0,-10.934 -8.87,-19.801 -19.8,-19.801 -10.93,0 -19.8,8.867 -19.8,19.801 0,10.934 8.87,19.801 19.8,19.801 10.93,0 19.8,-8.867 19.8,-19.801 z"
         style="fill:none;stroke:#000000;stroke-opacity:1;stroke-width:2.97;stroke-linecap:butt;stroke-linejoin:miter;stroke-miterlimit:10;stroke-dasharray:none"
         id="path4131" /><path
         d="m 1392,422 c 0,-10.934 -8.87,-19.801 -19.8,-19.801 -10.93,0 -19.8,8.867 -19.8,19.801 0,10.934 8.87,19.801 19.8,19.801 10.93,0 19.8,-8.867 19.8,-19.801"
         style="fill:#262626;fill-opacity:1;fill-rule:evenodd;stroke:none"
         id="path4133" /><path
         d="m 1392,422 c 0,-10.934 -8.87,-19.801 -19.8,-19.801 -10.93,0 -19.8,8.867 -19.8,19.801 0,10.934 8.87,19.801 19.8,19.801 10.93,0 19.8,-8.867 19.8,-19.801 z"
         style="fill:none;stroke:#000000;stroke-opacity:1;stroke-width:2.97;stroke-linecap:butt;stroke-linejoin:miter;stroke-miterlimit:10;stroke-dasharray:none"
         id="path4135" /><path
         d="m 1392,659.602 c 0,-10.934 -8.87,-19.801 -19.8,-19.801 -10.93,0 -19.8,8.867 -19.8,19.801 0,10.933 8.87,19.796 19.8,19.796 10.93,0 19.8,-8.863 19.8,-19.796"
         style="fill:#262626;fill-opacity:1;fill-rule:evenodd;stroke:none"
         id="path4137" /><path
         d="m 1392,659.602 c 0,-10.934 -8.87,-19.801 -19.8,-19.801 -10.93,0 -19.8,8.867 -19.8,19.801 0,10.933 8.87,19.796 19.8,19.796 10.93,0 19.8,-8.863 19.8,-19.796 z"
         style="fill:none;stroke:#000000;stroke-opacity:1;stroke-width:2.97;stroke-linecap:butt;stroke-linejoin:miter;stroke-miterlimit:10;stroke-dasharray:none"
         id="path4139" /><path
         d="m 1629.6,540.801 c 0,-10.934 -8.87,-19.801 -19.8,-19.801 -10.93,0 -19.8,8.867 -19.8,19.801 0,10.933 8.87,19.801 19.8,19.801 10.93,0 19.8,-8.868 19.8,-19.801"
         style="fill:#262626;fill-opacity:1;fill-rule:evenodd;stroke:none"
         id="path4141" /><path
         d="m 1629.6,540.801 c 0,-10.934 -8.87,-19.801 -19.8,-19.801 -10.93,0 -19.8,8.867 -19.8,19.801 0,10.933 8.87,19.801 19.8,19.801 10.93,0 19.8,-8.868 19.8,-19.801 z"
         style="fill:none;stroke:#000000;stroke-opacity:1;stroke-width:2.97;stroke-linecap:butt;stroke-linejoin:miter;stroke-miterlimit:10;stroke-dasharray:none"
         id="path4143" /><path
         d="m 1273.2,422 c 0,-10.934 -8.87,-19.801 -19.8,-19.801 -10.94,0 -19.8,8.867 -19.8,19.801 0,10.934 8.86,19.801 19.8,19.801 10.93,0 19.8,-8.867 19.8,-19.801"
         style="fill:#262626;fill-opacity:1;fill-rule:evenodd;stroke:none"
         id="path4145" /><path
         d="m 1273.2,422 c 0,-10.934 -8.87,-19.801 -19.8,-19.801 -10.94,0 -19.8,8.867 -19.8,19.801 0,10.934 8.86,19.801 19.8,19.801 10.93,0 19.8,-8.867 19.8,-19.801 z"
         style="fill:none;stroke:#000000;stroke-opacity:1;stroke-width:2.97;stroke-linecap:butt;stroke-linejoin:miter;stroke-miterlimit:10;stroke-dasharray:none"
         id="path4147" /><path
         d="m 1510.8,303.199 c 0,-10.933 -8.87,-19.801 -19.8,-19.801 -10.93,0 -19.8,8.868 -19.8,19.801 0,10.934 8.87,19.801 19.8,19.801 10.93,0 19.8,-8.867 19.8,-19.801"
         style="fill:#262626;fill-opacity:1;fill-rule:evenodd;stroke:none"
         id="path4149" /><path
         d="m 1510.8,303.199 c 0,-10.933 -8.87,-19.801 -19.8,-19.801 -10.93,0 -19.8,8.868 -19.8,19.801 0,10.934 8.87,19.801 19.8,19.801 10.93,0 19.8,-8.867 19.8,-19.801 z"
         style="fill:none;stroke:#000000;stroke-opacity:1;stroke-width:2.97;stroke-linecap:butt;stroke-linejoin:miter;stroke-miterlimit:10;stroke-dasharray:none"
         id="path4151" /><path
         d="m 1258.15,659.602 c 0,-2.84 -2.13,-5.149 -4.75,-5.149 -2.62,0 -4.75,2.309 -4.75,5.149 0,2.839 2.13,5.144 4.75,5.144 2.62,0 4.75,-2.305 4.75,-5.144"
         style="fill:#ffffff;fill-opacity:1;fill-rule:evenodd;stroke:none"
         id="path4153" /><path
         d="m 1258.15,659.602 c 0,-2.84 -2.13,-5.149 -4.75,-5.149 -2.62,0 -4.75,2.309 -4.75,5.149 0,2.839 2.13,5.144 4.75,5.144 2.62,0 4.75,-2.305 4.75,-5.144 z"
         style="fill:none;stroke:#000000;stroke-opacity:1;stroke-width:2.97;stroke-linecap:butt;stroke-linejoin:miter;stroke-miterlimit:10;stroke-dasharray:none"
         id="path4155" /><path
         d="m 1258.15,540.801 c 0,-2.84 -2.13,-5.149 -4.75,-5.149 -2.62,0 -4.75,2.309 -4.75,5.149 0,2.84 2.13,5.148 4.75,5.148 2.62,0 4.75,-2.308 4.75,-5.148"
         style="fill:#ffffff;fill-opacity:1;fill-rule:evenodd;stroke:none"
         id="path4157" /><path
         d="m 1258.15,540.801 c 0,-2.84 -2.13,-5.149 -4.75,-5.149 -2.62,0 -4.75,2.309 -4.75,5.149 0,2.84 2.13,5.148 4.75,5.148 2.62,0 4.75,-2.308 4.75,-5.148 z"
         style="fill:none;stroke:#000000;stroke-opacity:1;stroke-width:2.97;stroke-linecap:butt;stroke-linejoin:miter;stroke-miterlimit:10;stroke-dasharray:none"
         id="path4159" /><path
         d="m 1258.15,303.199 c 0,-2.84 -2.13,-5.148 -4.75,-5.148 -2.62,0 -4.75,2.308 -4.75,5.148 0,2.84 2.13,5.149 4.75,5.149 2.62,0 4.75,-2.309 4.75,-5.149"
         style="fill:#ffffff;fill-opacity:1;fill-rule:evenodd;stroke:none"
         id="path4161" /><path
         d="m 1258.15,303.199 c 0,-2.84 -2.13,-5.148 -4.75,-5.148 -2.62,0 -4.75,2.308 -4.75,5.148 0,2.84 2.13,5.149 4.75,5.149 2.62,0 4.75,-2.309 4.75,-5.149 z"
         style="fill:none;stroke:#000000;stroke-opacity:1;stroke-width:2.97;stroke-linecap:butt;stroke-linejoin:miter;stroke-miterlimit:10;stroke-dasharray:none"
         id="path4163" /><path
         d="m 1376.95,303.199 c 0,-2.84 -2.13,-5.148 -4.75,-5.148 -2.62,0 -4.75,2.308 -4.75,5.148 0,2.84 2.13,5.149 4.75,5.149 2.62,0 4.75,-2.309 4.75,-5.149"
         style="fill:#ffffff;fill-opacity:1;fill-rule:evenodd;stroke:none"
         id="path4165" /><path
         d="m 1376.95,303.199 c 0,-2.84 -2.13,-5.148 -4.75,-5.148 -2.62,0 -4.75,2.308 -4.75,5.148 0,2.84 2.13,5.149 4.75,5.149 2.62,0 4.75,-2.309 4.75,-5.149 z"
         style="fill:none;stroke:#000000;stroke-opacity:1;stroke-width:2.97;stroke-linecap:butt;stroke-linejoin:miter;stroke-miterlimit:10;stroke-dasharray:none"
         id="path4167" /><path
         d="m 1614.55,303.199 c 0,-2.84 -2.13,-5.148 -4.75,-5.148 -2.62,0 -4.75,2.308 -4.75,5.148 0,2.84 2.13,5.149 4.75,5.149 2.62,0 4.75,-2.309 4.75,-5.149"
         style="fill:#ffffff;fill-opacity:1;fill-rule:evenodd;stroke:none"
         id="path4169" /><path
         d="m 1614.55,303.199 c 0,-2.84 -2.13,-5.148 -4.75,-5.148 -2.62,0 -4.75,2.308 -4.75,5.148 0,2.84 2.13,5.149 4.75,5.149 2.62,0 4.75,-2.309 4.75,-5.149 z"
         style="fill:none;stroke:#000000;stroke-opacity:1;stroke-width:2.97;stroke-linecap:butt;stroke-linejoin:miter;stroke-miterlimit:10;stroke-dasharray:none"
         id="path4171" /><path
         d="m 1614.55,422 c 0,-2.84 -2.13,-5.148 -4.75,-5.148 -2.62,0 -4.75,2.308 -4.75,5.148 0,2.84 2.13,5.148 4.75,5.148 2.62,0 4.75,-2.308 4.75,-5.148"
         style="fill:#ffffff;fill-opacity:1;fill-rule:evenodd;stroke:none"
         id="path4173" /><path
         d="m 1614.55,422 c 0,-2.84 -2.13,-5.148 -4.75,-5.148 -2.62,0 -4.75,2.308 -4.75,5.148 0,2.84 2.13,5.148 4.75,5.148 2.62,0 4.75,-2.308 4.75,-5.148 z"
         style="fill:none;stroke:#000000;stroke-opacity:1;stroke-width:2.97;stroke-linecap:butt;stroke-linejoin:miter;stroke-miterlimit:10;stroke-dasharray:none"
         id="path4175" /><path
         d="m 1614.55,659.602 c 0,-2.84 -2.13,-5.149 -4.75,-5.149 -2.62,0 -4.75,2.309 -4.75,5.149 0,2.839 2.13,5.144 4.75,5.144 2.62,0 4.75,-2.305 4.75,-5.144"
         style="fill:#ffffff;fill-opacity:1;fill-rule:evenodd;stroke:none"
         id="path4177" /><path
         d="m 1614.55,659.602 c 0,-2.84 -2.13,-5.149 -4.75,-5.149 -2.62,0 -4.75,2.309 -4.75,5.149 0,2.839 2.13,5.144 4.75,5.144 2.62,0 4.75,-2.305 4.75,-5.144 z"
         style="fill:none;stroke:#000000;stroke-opacity:1;stroke-width:2.97;stroke-linecap:butt;stroke-linejoin:miter;stroke-miterlimit:10;stroke-dasharray:none"
         id="path4179" /><path
         d="m 1495.75,659.602 c 0,-2.84 -2.13,-5.149 -4.75,-5.149 -2.62,0 -4.75,2.309 -4.75,5.149 0,2.839 2.13,5.144 4.75,5.144 2.62,0 4.75,-2.305 4.75,-5.144"
         style="fill:#ffffff;fill-opacity:1;fill-rule:evenodd;stroke:none"
         id="path4181" /><path
         d="m 1495.75,659.602 c 0,-2.84 -2.13,-5.149 -4.75,-5.149 -2.62,0 -4.75,2.309 -4.75,5.149 0,2.839 2.13,5.144 4.75,5.144 2.62,0 4.75,-2.305 4.75,-5.144 z"
         style="fill:none;stroke:#000000;stroke-opacity:1;stroke-width:2.97;stroke-linecap:butt;stroke-linejoin:miter;stroke-miterlimit:10;stroke-dasharray:none"
         id="path4183" /><path
         d="M 204,540.801 C 204,529.867 195.133,521 184.199,521 c -10.933,0 -19.801,8.867 -19.801,19.801 0,10.933 8.868,19.801 19.801,19.801 10.934,0 19.801,-8.868 19.801,-19.801"
         style="fill:#262626;fill-opacity:1;fill-rule:evenodd;stroke:none"
         id="path4185" /><path
         d="M 204,540.801 C 204,529.867 195.133,521 184.199,521 c -10.933,0 -19.801,8.867 -19.801,19.801 0,10.933 8.868,19.801 19.801,19.801 10.934,0 19.801,-8.868 19.801,-19.801 z"
         style="fill:none;stroke:#000000;stroke-opacity:1;stroke-width:2.97;stroke-linecap:butt;stroke-linejoin:miter;stroke-miterlimit:10;stroke-dasharray:none"
         id="path4187" /><path
         d="m 545.352,659.602 c 0,-2.84 -2.129,-5.149 -4.75,-5.149 -2.625,0 -4.754,2.309 -4.754,5.149 0,2.839 2.129,5.144 4.754,5.144 2.621,0 4.75,-2.305 4.75,-5.144"
         style="fill:#ffffff;fill-opacity:1;fill-rule:evenodd;stroke:none"
         id="path4189" /><path
         d="m 545.352,659.602 c 0,-2.84 -2.129,-5.149 -4.75,-5.149 -2.625,0 -4.754,2.309 -4.754,5.149 0,2.839 2.129,5.144 4.754,5.144 2.621,0 4.75,-2.305 4.75,-5.144 z"
         style="fill:none;stroke:#000000;stroke-opacity:1;stroke-width:2.97;stroke-linecap:butt;stroke-linejoin:miter;stroke-miterlimit:10;stroke-dasharray:none"
         id="path4191" /><path
         d="m 1614.55,659.602 c 0,-2.84 -2.13,-5.149 -4.75,-5.149 -2.62,0 -4.75,2.309 -4.75,5.149 0,2.839 2.13,5.144 4.75,5.144 2.62,0 4.75,-2.305 4.75,-5.144"
         style="fill:#ffffff;fill-opacity:1;fill-rule:evenodd;stroke:none"
         id="path4193" /><path
         d="m 1614.55,659.602 c 0,-2.84 -2.13,-5.149 -4.75,-5.149 -2.62,0 -4.75,2.309 -4.75,5.149 0,2.839 2.13,5.144 4.75,5.144 2.62,0 4.75,-2.305 4.75,-5.144 z"
         style="fill:none;stroke:#000000;stroke-opacity:1;stroke-width:2.97;stroke-linecap:butt;stroke-linejoin:miter;stroke-miterlimit:10;stroke-dasharray:none"
         id="path4195" /><path
         d="m 303,659.602 0,-475.204"
         style="fill:none;stroke:#000000;stroke-opacity:1;stroke-width:2.97;stroke-linecap:butt;stroke-linejoin:miter;stroke-miterlimit:10;stroke-dasharray:none"
         id="path4197" /><path
         d="m 421.801,659.602 0,-475.204"
         style="fill:none;stroke:#000000;stroke-opacity:1;stroke-width:2.97;stroke-linecap:butt;stroke-linejoin:miter;stroke-miterlimit:10;stroke-dasharray:none"
         id="path4199" /><path
         d="m 540.602,659.602 0,-475.204"
         style="fill:none;stroke:#000000;stroke-opacity:1;stroke-width:2.97;stroke-linecap:butt;stroke-linejoin:miter;stroke-miterlimit:10;stroke-dasharray:none"
         id="path4201" /><path
         d="m 65.3984,303.199 475.2036,0"
         style="fill:none;stroke:#000000;stroke-opacity:1;stroke-width:2.97;stroke-linecap:butt;stroke-linejoin:miter;stroke-miterlimit:10;stroke-dasharray:none"
         id="path4203" /><path
         d="m 65.3984,422 475.2036,0"
         style="fill:none;stroke:#000000;stroke-opacity:1;stroke-width:2.97;stroke-linecap:butt;stroke-linejoin:miter;stroke-miterlimit:10;stroke-dasharray:none"
         id="path4205" /><path
         d="m 65.3984,540.801 475.2036,0"
         style="fill:none;stroke:#000000;stroke-opacity:1;stroke-width:2.97;stroke-linecap:butt;stroke-linejoin:miter;stroke-miterlimit:10;stroke-dasharray:none"
         id="path4207" /><path
         d="m 65.3984,659.602 475.2036,0"
         style="fill:none;stroke:#000000;stroke-opacity:1;stroke-width:2.97;stroke-linecap:butt;stroke-linejoin:miter;stroke-miterlimit:10;stroke-dasharray:none"
         id="path4209" /><path
         d="M 184.199,422 540.602,65.6016"
         style="fill:none;stroke:#000000;stroke-opacity:1;stroke-width:2.97;stroke-linecap:butt;stroke-linejoin:miter;stroke-miterlimit:10;stroke-dasharray:none"
         id="path4211" /><path
         d="M 184.199,540.801 600,125"
         style="fill:none;stroke:#000000;stroke-opacity:1;stroke-width:2.97;stroke-linecap:butt;stroke-linejoin:miter;stroke-miterlimit:10;stroke-dasharray:none"
         id="path4213" /><path
         d="M 184.199,659.602 659.398,184.398"
         style="fill:none;stroke:#000000;stroke-opacity:1;stroke-width:2.97;stroke-linecap:butt;stroke-linejoin:miter;stroke-miterlimit:10;stroke-dasharray:none"
         id="path4215" /><path
         d="M 303,659.602 718.801,243.801"
         style="fill:none;stroke:#000000;stroke-opacity:1;stroke-width:2.97;stroke-linecap:butt;stroke-linejoin:miter;stroke-miterlimit:10;stroke-dasharray:none"
         id="path4217" /><path
         d="M 421.801,659.602 778.199,303.199"
         style="fill:none;stroke:#000000;stroke-opacity:1;stroke-width:2.97;stroke-linecap:butt;stroke-linejoin:miter;stroke-miterlimit:10;stroke-dasharray:none"
         id="path4219" /><path
         d="m 184.199,540.801 297,297"
         style="fill:none;stroke:#000000;stroke-opacity:1;stroke-width:2.97;stroke-linecap:butt;stroke-linejoin:miter;stroke-miterlimit:10;stroke-dasharray:none"
         id="path4221" /><path
         d="M 184.199,422 540.602,778.398"
         style="fill:none;stroke:#000000;stroke-opacity:1;stroke-width:2.97;stroke-linecap:butt;stroke-linejoin:miter;stroke-miterlimit:10;stroke-dasharray:none"
         id="path4223" /><path
         d="M 184.199,303.199 600,719"
         style="fill:none;stroke:#000000;stroke-opacity:1;stroke-width:2.97;stroke-linecap:butt;stroke-linejoin:miter;stroke-miterlimit:10;stroke-dasharray:none"
         id="path4225" /><path
         d="M 303,303.199 659.398,659.602"
         style="fill:none;stroke:#000000;stroke-opacity:1;stroke-width:2.97;stroke-linecap:butt;stroke-linejoin:miter;stroke-miterlimit:10;stroke-dasharray:none"
         id="path4227" /><path
         d="m 421.801,303.199 297,297"
         style="fill:none;stroke:#000000;stroke-opacity:1;stroke-width:2.97;stroke-linecap:butt;stroke-linejoin:miter;stroke-miterlimit:10;stroke-dasharray:none"
         id="path4229" /><path
         d="m 1253.4,659.602 0,-475.204"
         style="fill:none;stroke:#000000;stroke-opacity:1;stroke-width:2.97;stroke-linecap:butt;stroke-linejoin:miter;stroke-miterlimit:10;stroke-dasharray:none"
         id="path4231" /><path
         d="m 1372.2,659.602 0,-475.204"
         style="fill:none;stroke:#000000;stroke-opacity:1;stroke-width:2.97;stroke-linecap:butt;stroke-linejoin:miter;stroke-miterlimit:10;stroke-dasharray:none"
         id="path4233" /><path
         d="m 1491,659.602 0,-475.204"
         style="fill:none;stroke:#000000;stroke-opacity:1;stroke-width:2.97;stroke-linecap:butt;stroke-linejoin:miter;stroke-miterlimit:10;stroke-dasharray:none"
         id="path4235" /><path
         d="m 1609.8,659.602 0,-475.204"
         style="fill:none;stroke:#000000;stroke-opacity:1;stroke-width:2.97;stroke-linecap:butt;stroke-linejoin:miter;stroke-miterlimit:10;stroke-dasharray:none"
         id="path4237" /><path
         d="m 1134.6,303.199 475.2,0"
         style="fill:none;stroke:#000000;stroke-opacity:1;stroke-width:2.97;stroke-linecap:butt;stroke-linejoin:miter;stroke-miterlimit:10;stroke-dasharray:none"
         id="path4239" /><path
         d="m 1134.6,422 475.2,0"
         style="fill:none;stroke:#000000;stroke-opacity:1;stroke-width:2.97;stroke-linecap:butt;stroke-linejoin:miter;stroke-miterlimit:10;stroke-dasharray:none"
         id="path4241" /><path
         d="m 1134.6,540.801 475.2,0"
         style="fill:none;stroke:#000000;stroke-opacity:1;stroke-width:2.97;stroke-linecap:butt;stroke-linejoin:miter;stroke-miterlimit:10;stroke-dasharray:none"
         id="path4243" /><path
         d="m 1134.6,659.602 475.2,0"
         style="fill:none;stroke:#000000;stroke-opacity:1;stroke-width:2.97;stroke-linecap:butt;stroke-linejoin:miter;stroke-miterlimit:10;stroke-dasharray:none"
         id="path4245" /><path
         d="M 1253.4,422 1609.8,65.6016"
         style="fill:none;stroke:#000000;stroke-opacity:1;stroke-width:2.97;stroke-linecap:butt;stroke-linejoin:miter;stroke-miterlimit:10;stroke-dasharray:none"
         id="path4247" /><path
         d="M 1253.4,540.801 1669.2,125"
         style="fill:none;stroke:#000000;stroke-opacity:1;stroke-width:2.97;stroke-linecap:butt;stroke-linejoin:miter;stroke-miterlimit:10;stroke-dasharray:none"
         id="path4249" /><path
         d="M 1253.4,659.602 1728.6,184.398"
         style="fill:none;stroke:#000000;stroke-opacity:1;stroke-width:2.97;stroke-linecap:butt;stroke-linejoin:miter;stroke-miterlimit:10;stroke-dasharray:none"
         id="path4251" /><path
         d="M 1372.2,659.602 1788,243.801"
         style="fill:none;stroke:#000000;stroke-opacity:1;stroke-width:2.97;stroke-linecap:butt;stroke-linejoin:miter;stroke-miterlimit:10;stroke-dasharray:none"
         id="path4253" /><path
         d="M 1491,659.602 1847.4,303.199"
         style="fill:none;stroke:#000000;stroke-opacity:1;stroke-width:2.97;stroke-linecap:butt;stroke-linejoin:miter;stroke-miterlimit:10;stroke-dasharray:none"
         id="path4255" /><path
         d="m 1253.4,540.801 297,297"
         style="fill:none;stroke:#000000;stroke-opacity:1;stroke-width:2.97;stroke-linecap:butt;stroke-linejoin:miter;stroke-miterlimit:10;stroke-dasharray:none"
         id="path4257" /><path
         d="m 1253.4,422 356.4,356.398"
         style="fill:none;stroke:#000000;stroke-opacity:1;stroke-width:2.97;stroke-linecap:butt;stroke-linejoin:miter;stroke-miterlimit:10;stroke-dasharray:none"
         id="path4259" /><path
         d="M 1253.4,303.199 1669.2,719"
         style="fill:none;stroke:#000000;stroke-opacity:1;stroke-width:2.97;stroke-linecap:butt;stroke-linejoin:miter;stroke-miterlimit:10;stroke-dasharray:none"
         id="path4261" /><path
         d="m 1372.2,303.199 356.4,356.403"
         style="fill:none;stroke:#000000;stroke-opacity:1;stroke-width:2.97;stroke-linecap:butt;stroke-linejoin:miter;stroke-miterlimit:10;stroke-dasharray:none"
         id="path4263" /><path
         d="m 1491,303.199 297,297"
         style="fill:none;stroke:#000000;stroke-opacity:1;stroke-width:2.97;stroke-linecap:butt;stroke-linejoin:miter;stroke-miterlimit:10;stroke-dasharray:none"
         id="path4265" /><path
         d="m 184.199,659.602 0,-475.204"
         style="fill:none;stroke:#000000;stroke-opacity:1;stroke-width:2.97;stroke-linecap:butt;stroke-linejoin:miter;stroke-miterlimit:10;stroke-dasharray:none"
         id="path4267" /><g
         id="g4269"
         transform="scale(10,10)"><text
           transform="matrix(1,0,0,-1,0.6,62.9898)"
           id="text4271"><tspan
             style="fill:#000000;fill-opacity:1;fill-rule:nonzero;stroke:none;font-family:Times;font-variant:normal;font-weight:normal;font-size:5.94;writing-mode:lr;-inkscape-font-specification:Times-Roman"
             x="0"
             y="0"
             id="tspan4273">1</tspan><tspan
             style="fill:#000000;fill-opacity:1;fill-rule:nonzero;stroke:none;font-family:Times;font-variant:normal;font-weight:normal;font-size:5.94;writing-mode:lr;-inkscape-font-specification:Times-Roman"
             x="0"
             y="23.7598"
             id="tspan4275">3</tspan><tspan
             style="fill:#000000;fill-opacity:1;fill-rule:nonzero;stroke:none;font-family:Times;font-variant:normal;font-weight:normal;font-size:5.94;writing-mode:lr;-inkscape-font-specification:Times-Roman"
             x="0"
             y="11.8797"
             id="tspan4277">3</tspan><tspan
             style="fill:#000000;fill-opacity:1;fill-rule:nonzero;stroke:none;font-family:Times;font-variant:normal;font-weight:normal;font-size:5.94;writing-mode:lr;-inkscape-font-specification:Times-Roman"
             x="0"
             y="35.6395"
             id="tspan4279">1</tspan><tspan
             style="fill:#000000;fill-opacity:1;fill-rule:nonzero;stroke:none;font-family:Times;font-variant:normal;font-weight:normal;font-size:5.94;writing-mode:lr;-inkscape-font-specification:Times-Roman"
             x="106.92"
             y="-0.0003"
             id="tspan4281">1</tspan><tspan
             style="fill:#000000;fill-opacity:1;fill-rule:nonzero;stroke:none;font-family:Times;font-variant:normal;font-weight:normal;font-size:5.94;writing-mode:lr;-inkscape-font-specification:Times-Roman"
             x="106.92"
             y="23.7595"
             id="tspan4283">3</tspan><tspan
             style="fill:#000000;fill-opacity:1;fill-rule:nonzero;stroke:none;font-family:Times;font-variant:normal;font-weight:normal;font-size:5.94;writing-mode:lr;-inkscape-font-specification:Times-Roman"
             x="106.92"
             y="11.8794"
             id="tspan4285">3</tspan><tspan
             style="fill:#000000;fill-opacity:1;fill-rule:nonzero;stroke:none;font-family:Times;font-variant:normal;font-weight:normal;font-size:5.94;writing-mode:lr;-inkscape-font-specification:Times-Roman"
             x="106.92"
             y="35.6392"
             id="tspan4287">1</tspan><tspan
             style="fill:#000000;fill-opacity:1;fill-rule:nonzero;stroke:none;font-family:Times;font-variant:normal;font-weight:normal;font-size:5.94;writing-mode:lr;-inkscape-font-specification:Times-Roman"
             x="133.6501 145.5301594 157.4102188 121.77 26.7302 38.6102594 50.4899624 14.8501"
             y="53.4591"
             sodipodi:role="line"
             id="tspan4289">33113311</tspan><tspan
             style="fill:#000000;fill-opacity:1;fill-rule:nonzero;stroke:none;font-family:Times;font-variant:normal;font-weight:normal;font-size:5.94;writing-mode:lr;-inkscape-font-specification:Times-Roman"
             x="56.4302"
             y="62.36926"
             id="tspan4291">1</tspan><tspan
             style="fill:#000000;fill-opacity:1;fill-rule:nonzero;stroke:none;font-family:Times;font-variant:normal;font-weight:normal;font-size:5.94;writing-mode:lr;-inkscape-font-specification:Times-Roman"
             x="80.19"
             y="38.60906"
             id="tspan4293">1</tspan><tspan
             style="fill:#000000;fill-opacity:1;fill-rule:nonzero;stroke:none;font-family:Times;font-variant:normal;font-weight:normal;font-size:5.94;writing-mode:lr;-inkscape-font-specification:Times-Roman"
             x="62.3701"
             y="56.42896"
             id="tspan4295">2</tspan><tspan
             style="fill:#000000;fill-opacity:1;fill-rule:nonzero;stroke:none;font-family:Times;font-variant:normal;font-weight:normal;font-size:5.94;writing-mode:lr;-inkscape-font-specification:Times-Roman"
             x="68.31033"
             y="50.48912"
             id="tspan4297">2</tspan><tspan
             style="fill:#000000;fill-opacity:1;fill-rule:nonzero;stroke:none;font-family:Times;font-variant:normal;font-weight:normal;font-size:5.94;writing-mode:lr;-inkscape-font-specification:Times-Roman"
             x="74.25017"
             y="44.54928"
             id="tspan4299">2</tspan><tspan
             style="fill:#000000;fill-opacity:1;fill-rule:nonzero;stroke:none;font-family:Times;font-variant:normal;font-weight:normal;font-size:5.94;writing-mode:lr;-inkscape-font-specification:Times-Roman"
             x="163.35017"
             y="62.36918"
             id="tspan4301">1</tspan><tspan
             style="fill:#000000;fill-opacity:1;fill-rule:nonzero;stroke:none;font-family:Times;font-variant:normal;font-weight:normal;font-size:5.94;writing-mode:lr;-inkscape-font-specification:Times-Roman"
             x="187.11037"
             y="38.60898"
             id="tspan4303">1</tspan><tspan
             style="fill:#000000;fill-opacity:1;fill-rule:nonzero;stroke:none;font-family:Times;font-variant:normal;font-weight:normal;font-size:5.94;writing-mode:lr;-inkscape-font-specification:Times-Roman"
             x="169.29007"
             y="56.42888"
             id="tspan4305">2</tspan><tspan
             style="fill:#000000;fill-opacity:1;fill-rule:nonzero;stroke:none;font-family:Times;font-variant:normal;font-weight:normal;font-size:5.94;writing-mode:lr;-inkscape-font-specification:Times-Roman"
             x="175.2303"
             y="50.48904"
             id="tspan4307">2</tspan><tspan
             style="fill:#000000;fill-opacity:1;fill-rule:nonzero;stroke:none;font-family:Times;font-variant:normal;font-weight:normal;font-size:5.94;writing-mode:lr;-inkscape-font-specification:Times-Roman"
             x="181.17014"
             y="44.5492"
             id="tspan4309">2</tspan><tspan
             style="fill:#000000;fill-opacity:1;fill-rule:nonzero;stroke:none;font-family:Times;font-variant:normal;font-weight:normal;font-size:5.94;writing-mode:lr;-inkscape-font-specification:Times-Roman"
             x="50.49014"
             y="-20.791"
             id="tspan4311">1</tspan><tspan
             style="fill:#000000;fill-opacity:1;fill-rule:nonzero;stroke:none;font-family:Times;font-variant:normal;font-weight:normal;font-size:5.94;writing-mode:lr;-inkscape-font-specification:Times-Roman"
             x="56.43037"
             y="-14.85077"
             id="tspan4313">2</tspan><tspan
             style="fill:#000000;fill-opacity:1;fill-rule:nonzero;stroke:none;font-family:Times;font-variant:normal;font-weight:normal;font-size:5.94;writing-mode:lr;-inkscape-font-specification:Times-Roman"
             x="62.37021"
             y="-8.91093"
             id="tspan4315">2</tspan><tspan
             style="fill:#000000;fill-opacity:1;fill-rule:nonzero;stroke:none;font-family:Times;font-variant:normal;font-weight:normal;font-size:5.94;writing-mode:lr;-inkscape-font-specification:Times-Roman"
             x="68.31044"
             y="-2.97109"
             id="tspan4317">2</tspan><tspan
             style="fill:#000000;fill-opacity:1;fill-rule:nonzero;stroke:none;font-family:Times;font-variant:normal;font-weight:normal;font-size:5.94;writing-mode:lr;-inkscape-font-specification:Times-Roman"
             x="74.25028"
             y="2.96914"
             id="tspan4319">1</tspan><tspan
             style="fill:#000000;fill-opacity:1;fill-rule:nonzero;stroke:none;font-family:Times;font-variant:normal;font-weight:normal;font-size:5.94;writing-mode:lr;-inkscape-font-specification:Times-Roman"
             x="157.41048"
             y="-20.79106"
             id="tspan4321">1</tspan><tspan
             style="fill:#000000;fill-opacity:1;fill-rule:nonzero;stroke:none;font-family:Times;font-variant:normal;font-weight:normal;font-size:5.94;writing-mode:lr;-inkscape-font-specification:Times-Roman"
             x="163.35032"
             y="-14.85083"
             id="tspan4323">2</tspan><tspan
             style="fill:#000000;fill-opacity:1;fill-rule:nonzero;stroke:none;font-family:Times;font-variant:normal;font-weight:normal;font-size:5.94;writing-mode:lr;-inkscape-font-specification:Times-Roman"
             x="169.29016"
             y="-8.91099"
             id="tspan4325">2</tspan><tspan
             style="fill:#000000;fill-opacity:1;fill-rule:nonzero;stroke:none;font-family:Times;font-variant:normal;font-weight:normal;font-size:5.94;writing-mode:lr;-inkscape-font-specification:Times-Roman"
             x="175.23039"
             y="-2.97115"
             id="tspan4327">2</tspan><tspan
             style="fill:#000000;fill-opacity:1;fill-rule:nonzero;stroke:none;font-family:Times;font-variant:normal;font-weight:normal;font-size:5.94;writing-mode:lr;-inkscape-font-specification:Times-Roman"
             x="181.17023"
             y="2.96908"
             id="tspan4329">1</tspan></text>
</g></g></g></svg>