<?xml version="1.0" standalone="no"?>
<svg xmlns="http://www.w3.org/2000/svg" width="420" height="400">
<rect fill="#000" width="100%" height="100%"/>
<g transform="translate(210,144) scale(130)">
<path fill="#F00" d="
M 1 0
A 1 1 0 0 0 -1 0
"/>
<path fill="#0F0" d="
M -1 0
A 1 1 0 0 0 0 1.732050808
"/>
<path fill="#00F" d="
M 0 1.732050808
A 1 1 0 0 0 1 0
"/>
<path fill="#FF0" d="
M 0 0
A 1 1 0 0 0 -1 0
  1 1 0 0 0 -0.5 0.866025404
"/>
<path fill="#0FF" d="
M -0.5 0.866025404
A 1 1 0 0 0 0 1.732050808
  1 1 0 0 0 0.5 0.866025404
"/>
<path fill="#F0F" d="
M 0.5 0.866025404
A 1 1 0 0 0 1 0
  1 1 0 0 0 0 0
"/>
<path fill="#FFF" d="
M 0 0
A 1 1 0 0 0 -0.5 0.866025404
  1 1 0 0 0 0.5 0.866025404
  1 1 0 0 0 0 0
"/>
</g>
</svg>
